<?xml version="1.0" standalone="no"?>
<!DOCTYPE svg PUBLIC "-//W3C//DTD SVG 1.1//EN" "http://www.w3.org/Graphics/SVG/1.1/DTD/svg11.dtd" >
<svg xmlns="http://www.w3.org/2000/svg">
<metadata>Generated by IcoMoon</metadata>
<defs>
<font id="icomoon" horiz-adv-x="1024">
<font-face units-per-em="1024" ascent="960" descent="-64" />
<missing-glyph horiz-adv-x="1024" />
<glyph unicode="&#x20;" horiz-adv-x="512" d="" />
<glyph unicode="&#xe900;" glyph-name="x-twitter" d="M778.411 864h141.141l-308.352-352.427 362.752-479.573h-284.032l-222.464 290.859-254.549-290.859h-141.227l329.813 376.96-347.989 455.040h291.243l201.088-265.856zM728.875 116.48h78.208l-504.832 667.477h-83.925z" />
<glyph unicode="&#xe901;" glyph-name="briefcase1" horiz-adv-x="1075" d="M408.837 794.833c0 39.731 30.515 72.013 67.814 72.013h116.301c37.299 0 74.906-32.282 74.906-71.987v3.789h58.112v30.31c0 54.989-30.208 99.072-92.211 99.072h-197.888c-41.421 0-86.221-46.771-86.221-99.072v-30.31h59.29v-3.789zM664.555 609.924h-253.798v-64.794h-379.699v253.798h1012.89v-253.773h-379.494v64.794zM665.246 416.055v63.693h378.701v-511.795h-1010.611v511.795h378.112v-63.693zM600.555 543.953v-61.901h-125.798v61.901z" />
<glyph unicode="&#xe902;" glyph-name="paper-plane" horiz-adv-x="1075" d="M1043.488 893.296l-351.898-890.419-220.006 222.643 44.006-133.504-102.707-89.318v217.318l503.117 523.955-565.248-421.99-319.232 81.613z" />
<glyph unicode="&#xe903;" glyph-name="code" horiz-adv-x="1280" d="M785.604 957.594c-5.279 1.569-11.344 2.471-17.62 2.471-29.106 0-53.678-19.414-61.472-45.999l-0.114-0.453-256-896c-1.567-5.277-2.469-11.339-2.469-17.613 0-35.381 28.682-64.062 64.062-64.062 29.107 0 53.681 19.412 61.48 45.997l0.114 0.453 256 896c1.569 5.279 2.471 11.344 2.471 17.62 0 29.106-19.414 53.678-45.999 61.472l-0.453 0.114zM946.781 717.389c-11.584-11.597-18.747-27.612-18.747-45.299s7.164-33.702 18.748-45.3l178.611-178.79-178.79-178.79c-11.591-11.599-18.76-27.618-18.76-45.312s7.169-33.713 18.76-45.312v0c11.597-11.584 27.612-18.747 45.299-18.747s33.702 7.164 45.3 18.748l223.999 223.999c11.591 11.599 18.76 27.618 18.76 45.312s-7.169 33.713-18.76 45.312l-224 224c-11.599 11.591-27.618 18.76-45.312 18.76s-33.713-7.169-45.312-18.76v0zM333.405 717.389c-11.599 11.591-27.618 18.76-45.312 18.76s-33.713-7.169-45.312-18.76l-224-224c-11.584-11.597-18.747-27.612-18.747-45.299s7.164-33.702 18.748-45.3l223.999-223.999c11.599-11.591 27.618-18.76 45.312-18.76s33.713 7.169 45.312 18.76v0c11.591 11.599 18.76 27.618 18.76 45.312s-7.169 33.713-18.76 45.312v0l-178.842 178.586 178.79 178.79c11.591 11.599 18.76 27.618 18.76 45.312s-7.169 33.713-18.76 45.312v0z" />
<glyph unicode="&#xe904;" glyph-name="headphones" d="M512 800c-229.8 0-416-186.2-416-416v-208c0-26.6-21.4-48-48-48s-48 21.4-48 48v208c0 282.8 229.2 512 512 512s512-229.2 512-512v-208c0-26.6-21.4-48-48-48s-48 21.4-48 48v208c0 229.8-186.2 416-416 416zM160 256c0 70.6 57.4 128 128 128h32c35.4 0 64-28.6 64-64v-256c0-35.4-28.6-64-64-64h-32c-70.6 0-128 57.4-128 128v128zM736 384c70.6 0 128-57.4 128-128v-128c0-70.6-57.4-128-128-128h-32c-35.4 0-64 28.6-64 64v256c0 35.4 28.6 64 64 64h32z" />
<glyph unicode="&#xe905;" glyph-name="bar-graph" d="M895.298 940.592h-109.514c-30.254 0-54.758-24.504-54.758-54.758v-930.432h219.028v930.432c0 30.254-24.504 54.758-54.758 54.758zM566.756 612.050h-109.514c-30.254 0-54.758-24.504-54.758-54.758v-601.888h219.028v601.888c0 30.254-24.504 54.758-54.758 54.758zM238.214 283.508h-109.514c-30.254 0-54.758-24.504-54.758-54.758v-273.346h219.028v273.346c0 30.254-24.504 54.758-54.758 54.758z" />
<glyph unicode="&#xe906;" glyph-name="cloud-download" horiz-adv-x="1408" d="M936.739 378.199c0.009 0.233 0.014 0.507 0.014 0.782 0 12.442-10.086 22.528-22.528 22.528-0.275 0-0.549-0.005-0.821-0.015l0.039 0.001h-162.893v256c0.001 0.056 0.001 0.123 0.001 0.189 0 6.338-2.651 12.057-6.904 16.109l-0.009 0.009c-4.093 4.264-9.84 6.913-16.205 6.913-0.063 0-0.126 0-0.188-0.001h-139.612c-6.298 0-11.776-2.304-16.384-6.912s-6.912-9.984-6.912-16.282v-256h-162.893c-6.298 0-11.776-2.304-16.384-7.014-4.608-4.608-6.912-9.984-6.912-16.307 0-6.784 2.202-12.39 6.605-16.691l256-256c4.055-4.088 9.676-6.619 15.887-6.619 0.283 0 0.565 0.005 0.845 0.016l-0.040-0.001c0.24-0.009 0.522-0.014 0.804-0.014 6.211 0 11.831 2.531 15.885 6.618l255.31 255.207c4.813 5.786 7.296 11.699 7.296 17.485zM1402.147 215.306c0-77.107-27.315-142.899-81.792-197.504-54.528-54.502-120.422-81.792-197.504-81.792h-791.219c-89.677 0-166.4 31.898-230.195 95.59-63.795 63.821-95.59 140.518-95.59 230.221 0 62.976 16.896 121.19 50.893 174.592 33.176 52.241 79.663 93.358 134.752 119.165l1.952 0.822c-0.755 8.932-1.299 19.795-1.503 30.742l-0.007 0.49c0 102.784 36.403 190.566 109.107 263.27 72.832 72.704 160.512 109.107 263.296 109.107 75.597 0 144.896-21.094 207.616-63.309 62.797-42.189 108.493-98.202 137.088-167.987 34.509 30.106 74.701 45.107 120.806 45.107 51.405 0 95.206-18.202 131.584-54.528 36.403-36.378 54.528-80.282 54.528-131.686 0-36.787-9.907-70.298-29.824-100.301 63.104-15.104 114.816-47.872 155.315-98.586 40.499-50.611 60.672-108.518 60.672-173.414z" />
<glyph unicode="&#xe907;" glyph-name="cloud" horiz-adv-x="1408" d="M1402.147 215.306c0-77.107-27.315-142.899-81.792-197.504-54.528-54.502-120.422-81.792-197.504-81.792h-791.219c-89.677 0-166.4 31.898-230.195 95.59-63.795 63.821-95.59 140.518-95.59 230.221 0 64 17.203 122.598 51.61 175.693 34.381 52.992 79.795 92.672 135.987 118.886-0.998 13.517-1.51 24.013-1.51 31.232 0 102.784 36.403 190.566 109.107 263.27 72.832 72.704 160.512 109.107 263.296 109.107 76.595 0 146.099-21.299 208.384-64 62.336-42.701 107.725-98.406 136.32-167.296 33.997 30.106 74.214 45.107 120.806 45.107 51.405 0 95.206-18.202 131.584-54.528 36.403-36.378 54.528-80.282 54.528-131.686 0.002-0.319 0.003-0.696 0.003-1.073 0-36.953-11.137-71.305-30.238-99.882l0.411 0.654c62.618-14.592 114.202-47.206 154.906-97.792 40.806-50.688 61.107-108.8 61.107-174.208z" />
<glyph unicode="&#xe908;" glyph-name="globe" d="M512 959.993c92.902 0 178.611-22.912 257.024-68.71 77.791-45.475 140.8-108.493 184.965-183.889l1.3-2.402c45.824-78.387 68.71-164.070 68.71-256.998 0-92.902-22.912-178.611-68.71-257.024-45.475-77.791-108.493-140.8-183.889-184.965l-2.402-1.3c-78.387-45.824-164.070-68.71-256.998-68.71-92.902 0-178.611 22.912-257.024 68.71-77.791 45.475-140.8 108.493-184.965 183.889l-1.3 2.402c-45.824 78.387-68.71 164.070-68.71 256.998 0 92.902 22.912 178.611 68.71 257.024 45.471 77.778 108.48 140.778 183.863 184.939l2.402 1.301c78.413 45.85 164.096 68.736 257.024 68.736zM694.707 612.703c-0.896-0.512-2.995-2.611-6.4-6.4-3.328-3.712-6.298-5.888-9.011-6.298 0.896 0 1.894 1.075 2.995 3.277 1.101 2.304 2.304 4.71 3.405 7.424 0.644 1.762 1.42 3.282 2.355 4.689l-0.051-0.081c2.688 3.072 7.603 6.477 14.694 9.984 6.195 2.688 17.715 5.376 34.611 7.987 15.104 3.584 26.496 1.101 33.997-7.296-0.896 0.896 1.28 3.814 6.4 8.704s8.294 7.501 9.6 7.987c1.408 0.922 4.685 1.92 9.984 3.021 5.402 1.101 8.704 2.688 10.010 4.992l1.408 14.592c-5.402-0.384-9.293 1.101-11.699 4.71-2.532 3.98-4.108 8.789-4.299 13.952l-0.001 0.051c0-0.896-1.408-2.714-3.994-5.299 0 3.072-1.024 4.89-3.021 5.299-0.701 0.104-1.51 0.164-2.333 0.164-1.914 0-3.752-0.323-5.464-0.916l0.117 0.035c-3.098-0.896-5.12-1.101-6.016-0.589-3.84 0.984-7.187 2.71-10.031 5.029l0.047-0.037c-2.202 1.997-4.019 5.606-5.299 11.008-1.936 7.83-2.868 11.171-3.826 14.5l1.113-4.516c-0.896 2.227-2.995 4.608-6.298 7.322-3.405 2.688-5.504 4.89-6.4 6.682-0.41 0.922-0.998 2.099-1.587 3.61-0.717 1.613-1.408 2.995-2.022 4.403-0.754 1.372-1.647 2.551-2.687 3.583l-0.001 0.001c-0.918 1.028-2.235 1.682-3.706 1.715h-0.006c-1.28 0-2.893-1.101-4.608-3.302-1.792-2.304-3.482-4.506-4.992-6.707-1.587-2.202-2.586-3.302-2.995-3.302-0.911 0.668-2.055 1.068-3.292 1.068-0.247 0-0.491-0.016-0.73-0.047l0.028 0.003c-1.408-0.307-2.406-0.512-2.995-0.717-1.158-0.508-2.15-1.18-2.998-2l0.003 0.003c-0.995-0.854-2.111-1.619-3.306-2.256l-0.099-0.048c-1.603-1.012-3.5-1.719-5.535-1.989l-0.071-0.008c-2.509-0.512-4.403-0.896-5.709-1.408 6.707 2.304 6.4 4.71-0.691 7.424-4.403 1.69-7.987 2.381-10.598 1.997 3.994 1.69 5.606 4.378 4.992 7.987-0.835 3.767-2.861 6.968-5.655 9.27l-0.028 0.023h3.302c-0.41 1.792-2.304 3.712-5.632 5.709-3.287 1.965-7.13 3.849-11.131 5.419l-0.542 0.187c-3.424 1.288-6.292 2.632-9.039 4.166l0.335-0.172c-3.507 2.304-11.11 4.403-22.605 6.4-11.597 1.997-18.893 2.099-22.016 0.307-2.304-2.714-3.277-5.018-2.97-7.014 0.179-1.997 1.101-5.094 2.586-9.293 1.613-4.301 2.406-6.989 2.406-8.397 0.384-2.611-0.794-5.504-3.712-8.602-2.893-3.098-4.301-5.811-4.301-8.013 0-3.072 3.098-6.579 9.318-10.394 6.195-3.686 8.397-8.499 6.682-14.285-1.382-3.61-4.89-7.117-10.701-10.701-5.786-3.507-9.293-6.221-10.701-8.013-2.202-3.507-2.483-7.603-0.998-12.288 1.376-4.38 3.804-8.098 6.994-10.99l0.021-0.018c0.896-0.896 1.28-1.792 0.998-2.688-0.205-0.922-1.024-1.92-2.304-3.021-2.329-1.808-4.956-3.468-7.737-4.866l-0.276-0.126-1.997-1.28c-4.89-2.227-9.395-0.922-13.696 3.968-4.1 4.822-7.205 10.624-8.915 16.998l-0.070 0.308c-3.098 11.11-6.605 17.818-10.598 20.019-10.317 3.584-16.717 3.379-19.405-0.614-2.202 5.709-11.315 11.52-27.315 17.306-11.085 3.994-23.987 4.89-38.682 2.688 2.688 0.41 2.688 3.712 0 10.010-3.098 6.605-7.296 9.293-12.621 7.987 1.306 2.611 2.202 6.502 2.611 11.622 0.512 5.094 0.691 8.090 0.691 8.986 1.306 5.811 4.019 10.906 8.013 15.411 3.887 4.338 7.513 9.103 10.742 14.148l0.266 0.444c1.587 2.688 1.69 3.994 0.282 3.994 15.616-1.69 26.701 0.717 33.408 7.424 2.202 2.176 4.71 5.99 7.603 11.264 2.893 5.325 5.299 9.114 6.989 11.315 4.019 2.714 7.117 3.891 9.395 3.712 2.202-0.205 5.402-1.408 9.6-3.712 4.301-2.202 7.501-3.302 9.728-3.302 6.195-0.384 9.677 1.997 10.291 7.296 0.116 0.69 0.183 1.484 0.183 2.294 0 4.457-2.012 8.444-5.178 11.102l-0.022 0.018c5.402-0.512 6.016 3.302 2.022 11.29-1.715 3.098-3.507 5.12-5.299 6.016-5.325 1.792-11.315 0.691-18.022-3.328-3.584-1.792-3.072-3.584 1.306-5.376-0.384 0.512-2.509-1.894-6.298-7.014-3.789-5.094-7.398-8.986-11.008-11.597-3.584-2.688-7.091-1.587-10.701 3.328-0.384 0.384-1.587 3.379-3.584 8.96-1.997 5.632-4.096 8.627-6.4 9.011-3.507 0-7.117-3.302-10.598-9.984 1.28 3.584-1.101 6.912-7.424 9.984-6.195 3.098-11.494 4.915-15.974 5.299 8.499 5.402 6.682 11.418-5.299 17.997-3.098 1.792-7.706 2.918-13.722 3.405-5.99 0.41-10.291-0.512-12.979-2.688-1.746-2.14-3.012-4.741-3.59-7.592l-0.019-0.113c-0.307-1.997 0.896-3.712 3.302-5.299 2.406-1.613 4.787-2.816 6.989-3.712s4.813-1.69 7.706-2.586c2.893-0.896 4.71-1.613 5.606-1.997 6.298-4.506 7.987-7.603 5.376-9.395-0.87-0.41-2.79-1.203-5.683-2.304l-7.68-2.995c-2.227-0.922-3.507-1.792-4.019-2.714-1.28-1.69-1.28-4.89 0-9.293 1.408-4.403 0.896-7.603-1.28-9.318-2.227 2.202-4.224 6.118-6.016 11.622-1.792 5.581-3.302 9.293-4.71 11.008 3.123-4.019-2.381-5.325-16.589-4.019l-6.707 0.691c-1.792 0-5.299-0.384-10.701-1.28-2.838-0.564-6.101-0.888-9.439-0.888-1.462 0-2.91 0.062-4.341 0.183l0.187-0.013c-3.758 0.342-6.988 2.344-8.984 5.258l-0.027 0.042c-1.792 3.584-1.792 8.013 0 13.414 0.41 1.69 1.306 2.202 2.611 1.28-2.682 2.118-5.059 4.187-7.335 6.361l0.039-0.037c-2.035 2.007-4.224 3.872-6.543 5.569l-0.164 0.115c-20.403-6.682-41.293-15.795-62.592-27.29 2.586-0.512 5.299-0.307 7.987 0.589 2.202 0.896 5.12 2.406 8.602 4.403 3.584 1.997 5.811 3.2 6.707 3.584 15.104 6.323 24.397 7.808 28.006 4.71l3.302 3.328c6.298-7.117 10.701-12.621 13.389-16.64-3.098 1.715-9.805 2.022-19.994 0.614-8.909-2.586-13.824-5.299-14.694-7.987 3.072-5.299 4.198-9.318 3.302-12.006-2.798 2.315-5.274 4.507-7.677 6.776l0.074-0.069c-2.855 2.718-6.043 5.132-9.484 7.163l-0.244 0.133c-2.874 1.696-6.246 2.897-9.844 3.389l-0.14 0.016c-7.091 0-12.006-0.307-14.694-0.717-64.788-35.687-117.649-85.786-155.568-146.214l-1.027-1.754c3.072-3.123 5.683-4.915 7.987-5.325 1.715-0.512 2.918-2.509 3.328-5.99 0.384-3.584 0.973-6.016 1.69-7.424 0.589-1.28 3.2-0.589 7.578 2.022 4.019-3.507 4.71-7.706 2.022-12.595 0.512 0.384 10.291-5.632 29.389-18.022 8.397-7.578 13.107-12.288 14.003-13.978 1.28-4.915-0.896-8.909-6.707-12.032-0.384 0.922-2.406 2.918-5.99 6.016s-5.606 3.994-6.016 2.611c-1.28-2.202-1.178-6.298 0.307-12.288 1.613-6.016 3.891-8.806 7.014-8.32-3.123 0-5.222-3.584-6.323-10.701-1.077-6.868-1.692-14.789-1.692-22.853 0-0.3 0.001-0.599 0.003-0.898v0.046c0-8.602-0.205-13.901-0.589-15.59l1.28-0.691c-1.28-5.299-0.102-13.005 3.712-23.014 3.686-9.984 8.499-14.285 14.31-13.005-5.811-1.28-1.306-10.88 13.286-28.672 2.688-3.507 4.506-5.53 5.402-6.016 1.28-0.896 3.994-2.509 7.987-4.992 4.019-2.406 7.322-4.608 10.010-6.605 2.611-1.997 4.89-4.403 6.605-7.014 1.792-2.304 3.994-7.296 6.707-15.002 2.688-7.782 5.786-12.979 9.293-15.693-0.896-2.688 1.28-7.091 6.4-13.312 5.12-6.272 7.398-11.392 6.989-15.386-0.512 0-0.998-0.205-1.69-0.589-0.691-0.512-1.203-0.717-1.69-0.717 1.382-3.072 4.787-6.195 10.394-9.293 5.504-3.098 8.986-5.99 10.291-8.704 0.41-1.28 0.896-3.584 1.28-6.707 0.512-3.072 1.126-5.478 2.022-7.296 0.896-1.792 2.688-2.202 5.402-1.28 0.896 8.883-4.506 22.579-16 41.293-6.707 11.085-10.496 17.587-11.392 19.302-1.559 2.998-2.807 6.474-3.564 10.13l-0.046 0.264c-0.74 3.649-1.774 6.861-3.116 9.907l0.121-0.307c0.896 0 2.202-0.307 3.994-1.024 1.69-0.589 3.584-1.382 5.606-2.278 1.997-0.896 3.686-1.792 4.992-2.688 1.408-0.922 1.792-1.536 1.408-2.022-1.408-3.072-0.896-6.989 1.28-11.597 2.227-4.685 4.915-8.781 8.013-12.39 3.098-3.507 6.912-7.68 11.315-12.595 4.48-4.915 7.091-7.808 7.987-8.704 2.688-2.714 5.811-7.014 9.395-13.005 3.507-5.99 3.507-9.011 0-9.011 3.994 0 8.397-2.304 13.312-6.989 4.89-4.71 8.704-9.011 11.29-13.005 2.304-3.584 3.994-9.293 5.402-17.306 1.28-7.987 2.406-13.389 3.302-16 0.896-3.072 2.816-6.093 5.709-8.986s5.581-4.992 8.294-6.4l10.701-5.299 8.602-4.71c2.304-0.896 6.4-3.2 12.39-6.989 6.016-3.712 10.701-6.298 14.31-7.603 4.403-1.792 7.987-2.688 10.701-2.688 2.586 0 5.888 0.589 9.6 1.69 3.789 1.101 6.784 1.894 8.986 2.304 6.707 0.896 13.107-2.406 19.405-9.984 6.195-7.629 10.906-12.211 14.003-14.029 16-8.397 28.211-10.906 36.608-7.296-0.896-0.512-0.717-2.099 0.384-4.992s2.918-6.4 5.299-10.394c2.406-4.019 4.403-7.219 6.016-9.6 1.587-2.509 2.816-4.403 3.686-5.709 2.202-2.714 6.195-6.016 12.006-9.984 5.709-4.019 9.702-7.322 12.006-10.010 2.586 1.792 4.198 3.789 4.608 5.99-1.306-3.584 0.282-8.013 4.685-13.312 4.403-5.376 8.397-7.578 12.006-6.682 6.195 1.28 9.293 8.397 9.293 21.299-13.696-6.605-24.576-2.611-32.589 12.006-0.412 1.403-0.997 2.628-1.745 3.733l0.030-0.047c-0.891 1.565-1.794 3.444-2.573 5.386l-0.115 0.323c-0.585 1.523-1.141 3.391-1.562 5.308l-0.050 0.273c-0.242 0.75-0.381 1.613-0.381 2.509s0.139 1.759 0.398 2.569l-0.016-0.060c0.41 1.382 1.51 1.997 3.328 1.997 3.968 0 6.17 0.794 6.656 2.406 0.41 1.485 0 4.301-1.382 8.294-0.754 2.055-1.64 4.96-2.41 7.912l-0.175 0.792c-0.512 3.482-2.918 7.987-7.424 13.312-2.467 2.879-5.084 6.13-7.605 9.457l-0.382 0.527c-2.202-3.994-5.709-5.811-10.598-5.299-4.89 0.384-8.499 2.406-10.701 5.99 0-0.512-0.307-1.69-1.024-3.686-0.514-1.263-0.861-2.726-0.97-4.255l-0.003-0.046c-5.811 0-9.114 0.205-9.984 0.589 0.384 1.408 0.973 5.299 1.69 11.699 0.457 5.607 1.273 10.728 2.445 15.711l-0.141-0.709c0.384 1.792 1.69 4.403 3.686 8.013 1.997 3.584 3.584 6.784 4.992 9.702 1.306 2.893 2.202 5.581 2.611 8.294 0.512 2.688-0.512 4.787-2.995 6.298-2.406 1.587-6.298 2.099-11.597 1.69-8.499-0.384-14.31-4.89-17.408-13.312-0.41-1.382-1.101-3.686-1.997-6.989-0.69-2.916-1.839-5.483-3.38-7.762l0.052 0.082c-1.586-1.989-3.581-3.582-5.865-4.668l-0.1-0.043c-3.123-1.28-8.422-1.715-16-1.28-7.603 0.384-12.902 1.587-16 3.277-5.811 3.584-10.803 9.984-15.002 19.405-4.224 9.293-6.323 17.485-6.323 24.576 0 4.531 0.512 10.419 1.613 17.715s1.792 12.902 1.997 16.717c0.307 3.686-0.998 9.19-3.584 16.282 1.28 0.896 3.277 2.995 5.99 6.298 2.586 3.405 4.89 5.709 6.605 7.014 0.867 0.468 1.874 0.817 2.939 0.991l0.056 0.008c0.448 0.142 0.963 0.224 1.498 0.224s1.050-0.082 1.534-0.234l-0.036 0.010c0.896-0.205 1.792 0.102 2.688 0.998 0.991 1.084 1.703 2.438 2.013 3.939l0.009 0.054c-0.79 0.758-1.681 1.42-2.648 1.963l-0.066 0.034c-1.28 1.408-2.202 1.997-2.586 1.997 3.072-1.28 9.395-0.998 18.995 1.024 9.472 1.997 15.616 1.69 18.304-1.024 6.682-4.89 11.597-4.378 14.694 1.408 0 0.41-0.614 2.509-1.715 6.298-1.101 3.814-1.178 6.81-0.282 9.011 2.202-12.006 8.602-14.003 19.302-6.016 1.28-1.28 4.787-2.381 10.291-3.302 5.606-0.896 9.498-1.997 11.699-3.379 1.28-0.896 2.893-2.099 4.71-3.61 1.69-1.587 2.995-2.611 3.584-2.995 0.717-0.512 1.792-0.41 3.405 0.307 2.166 1.164 4.016 2.598 5.595 4.288l0.011 0.012c4.506-6.221 7.091-11.52 7.987-16 4.915-17.715 9.114-27.52 12.698-29.312 3.098-1.28 5.632-1.792 7.322-1.28 1.792 0.384 2.79 2.483 2.995 6.272 0.282 3.814 0.282 6.912 0 9.318-0.27 3.294-0.632 6.172-1.109 9.011l0.085-0.614-0.589 5.299v11.981l-0.691 5.325c-6.707 1.382-10.803 3.994-12.288 7.987-0.631 1.542-0.998 3.331-0.998 5.206 0 2.651 0.733 5.13 2.006 7.248l-0.035-0.064c2.665 4.791 6.005 8.858 9.95 12.238l0.060 0.050c1.523 0.927 3.281 1.712 5.14 2.263l0.159 0.041c3.098 1.126 6.605 2.611 10.291 4.429 3.814 1.69 6.605 3.482 8.422 5.299 9.293 8.397 12.595 16.179 9.984 23.296 3.098 0 5.504 1.997 7.296 5.99-1.277 0.475-2.374 1.152-3.311 2.004l0.008-0.007c-1.445 1.132-3.074 2.255-4.77 3.28l-0.222 0.125c-0.858 0.573-1.859 1.015-2.933 1.268l-0.062 0.012c3.994 2.227 4.403 5.811 1.28 10.726 2.227 1.28 3.917 3.686 5.018 7.296 1.101 3.584 2.816 5.811 4.992 6.707 4.019-5.402 8.704-5.811 14.003-1.408 3.584 3.584 3.814 7.091 0.717 10.701 2.202 3.098 6.682 5.376 13.568 6.989 6.912 1.613 11.008 3.712 12.416 6.323 3.098-0.922 4.915-0.41 5.299 1.382 0.41 1.715 0.717 4.403 0.717 8.013 0 3.482 0.589 6.195 1.997 7.987 1.69 2.202 5.094 4.198 9.984 6.016 4.915 1.69 7.706 2.893 8.602 3.302l11.418 7.296c1.28 1.792 1.28 2.688 0 2.688 0.936-0.129 2.018-0.202 3.117-0.202 6.87 0 13.068 2.875 17.456 7.488l0.010 0.010c4.506 4.915 3.098 9.395-3.994 13.414 1.408 2.586 0.691 4.685-1.997 6.298-2.879 1.66-6.223 2.938-9.772 3.651l-0.212 0.036c1.382 0.41 3.891 0.512 7.68 0.307s6.093 0.102 6.989 1.024c6.707 4.378 5.12 7.987-4.685 10.675-7.501 2.202-17.101-0.512-28.595-7.987zM586.010 27.999c91.597 16 169.6 57.984 233.984 126.003-1.28 1.28-4.096 2.304-8.294 2.995-4.301 0.691-6.989 1.408-8.397 2.304-8.013 3.072-13.312 4.89-16 5.376 0.111 0.633 0.174 1.361 0.174 2.104 0 2.407-0.664 4.658-1.819 6.581l0.032-0.058c-1.345 2.417-3.154 4.422-5.32 5.953l-0.056 0.037c-2.022 1.408-4.71 3.098-8.32 5.376-3.241 1.934-5.621 3.456-7.963 5.030l0.667-0.422c-1.432 1.384-2.959 2.7-4.559 3.927l-0.126 0.092c-2.202 1.792-3.814 2.995-4.71 3.686-1.439 1.048-3.074 2.044-4.79 2.903l-0.202 0.092c-2.406 1.306-4.301 1.792-5.632 1.306-1.382-0.384-3.584-0.589-6.656-0.589l-2.022-0.691c-1.415-0.446-2.644-1.028-3.774-1.753l0.062 0.037-3.584-1.997c-1.408-0.589-2.304-1.28-2.714-1.997-0.384-0.614-0.384-1.203 0-1.613-9.293 7.501-17.28 12.416-23.987 14.592-2.807 0.754-5.249 2.034-7.33 3.739l0.034-0.027c-2.031 1.578-4.321 3.133-6.708 4.543l-0.307 0.168c-1.381 0.743-3.022 1.18-4.765 1.18-0.678 0-1.34-0.066-1.981-0.192l0.065 0.011c-3.074-0.836-5.692-2.483-7.693-4.697l-0.012-0.014c-2.202-2.202-3.507-5.581-3.994-9.984-0.224-3.216-0.688-6.191-1.381-9.076l0.075 0.372c-3.098 2.304-3.098 6.093 0 11.699 3.072 5.606 3.584 9.702 1.28 12.288-1.28 2.714-3.584 3.712-6.989 2.995-3.011-0.456-5.708-1.511-8.066-3.043l0.079 0.048c-2.022-1.28-4.506-3.2-7.603-5.581-1.777-1.509-3.74-2.959-5.799-4.273l-0.217-0.13c-0.896-0.41-2.79-1.613-5.683-3.61-2.208-1.385-4.092-3.041-5.678-4.953l-0.031-0.039c-1.28-1.792-2.611-4.506-3.994-8.013-0.953-2.842-2.079-5.287-3.429-7.585l0.101 0.186c-0.87 1.792-3.379 3.328-7.68 4.403-4.198 1.101-6.298 2.304-6.298 3.584 0.896-4.378 1.792-12.186 2.688-23.296 0.922-11.085 2.022-19.584 3.328-25.293 3.072-13.798 0.384-24.499-8.013-32-12.006-11.085-18.406-19.994-19.302-26.701-1.792-9.805 0.896-15.616 7.987-17.306 0-3.072-1.792-7.68-5.376-13.696-3.507-5.99-5.12-10.803-4.608-14.285 0-2.714 0.384-6.298 1.28-10.701z" />
<glyph unicode="&#xe909;" glyph-name="users" horiz-adv-x="1101" d="M342.429 447.984c-61.286-1.894-111.36-26.291-150.272-73.088h-76.032c-30.976 0-57.088 7.68-78.182 23.091-21.197 15.386-31.795 37.965-31.795 67.661 0 134.502 23.501 201.728 70.298 201.728 2.304 0 10.496-4.019 24.704-12.032 14.208-7.987 32.589-16.077 55.296-24.294 20.056-7.576 43.238-12.031 67.44-12.185h0.067c25.293 0 50.381 4.301 75.392 13.082-1.894-14.080-2.893-26.675-2.893-37.683 0-52.992 15.386-101.709 46.003-146.304zM949.738 83.952c0-45.696-13.798-81.792-41.395-108.288-27.597-26.47-64.307-39.68-109.978-39.68h-495.616c-45.773 0-82.381 13.21-109.978 39.68-27.597 26.522-41.395 62.618-41.395 108.314 0 20.224 0.589 39.91 1.997 59.11 1.28 19.302 3.891 39.987 7.91 62.285 3.994 22.323 8.986 43.008 14.976 62.003 6.118 19.098 14.208 37.632 24.422 55.706 9.849 17.742 21.548 32.983 35.161 46.272l0.039 0.038c13.184 12.8 29.389 22.989 48.486 30.592 18.995 7.603 40.090 11.392 63.206 11.392 3.789 0 11.904-4.096 24.397-12.288 12.39-8.115 26.189-17.306 41.395-27.392 15.104-10.112 35.328-19.2 60.595-27.392 25.421-8.218 50.918-12.314 76.621-12.314 25.677 0 51.2 4.096 76.493 12.288s45.594 17.306 60.672 27.392c15.104 10.112 28.928 19.302 41.421 27.392 12.493 8.218 20.608 12.314 24.397 12.314 23.014 0 44.109-3.789 63.206-11.392 18.811-7.347 34.931-17.71 48.578-30.654l-0.066 0.062c13.572-13.347 25.226-28.583 34.552-45.296l0.52-1.015c10.214-18.099 18.432-36.608 24.422-55.706 6.093-18.995 11.085-39.68 15.002-62.003 3.994-22.272 6.682-43.008 7.987-62.285 1.28-19.2 1.997-38.912 1.997-59.11zM369.053 813.68c0-40.397-14.208-74.803-42.496-103.398-28.416-28.595-62.618-42.906-102.605-42.906-40.115 0-74.317 14.31-102.707 42.906-28.288 28.595-42.496 63.002-42.496 103.424 0 40.371 14.208 74.88 42.496 103.373 28.416 28.595 62.592 42.906 102.707 42.906 39.987 0 74.189-14.31 102.605-42.906 28.288-28.493 42.496-62.976 42.496-103.398zM768.234 594.288c0-60.595-21.299-112.307-63.795-155.213-42.496-42.803-93.798-64.179-153.882-64.179-60.109 0-111.411 21.376-154.010 64.179-42.496 42.906-63.795 94.618-63.795 155.213s21.299 112.307 63.795 155.085c42.598 42.906 93.901 64.307 154.010 64.307 60.083 0 111.386-21.402 153.882-64.307 42.496-42.778 63.795-94.49 63.795-155.085zM1094.839 465.674c0-29.696-10.598-52.301-31.693-67.686-21.197-15.411-47.309-23.091-78.31-23.091h-75.981c-38.912 46.797-89.011 71.168-150.221 73.088 30.618 44.595 45.901 93.312 45.901 146.304 0 11.008-0.896 23.603-2.79 37.709 22.437-8.271 48.348-13.072 75.376-13.107h0.016c22.298 0 44.8 4.096 67.507 12.186 22.605 8.192 41.114 16.307 55.194 24.32 14.208 7.987 22.4 11.981 24.704 11.981 46.899 0 70.298-67.2 70.298-201.702zM1022.237 813.68c0-40.397-14.080-74.803-42.496-103.398-28.288-28.595-62.49-42.906-102.605-42.906-40.090 0-74.291 14.31-102.579 42.906-28.416 28.595-42.624 63.002-42.624 103.424 0 40.371 14.208 74.88 42.624 103.373 28.288 28.595 62.464 42.906 102.579 42.906s74.317-14.31 102.605-42.906c28.416-28.493 42.496-62.976 42.496-103.398z" />
<glyph unicode="&#xe90a;" glyph-name="cogs" horiz-adv-x="1280" d="M1024.205 577.997l-16.384-28.595c-4.35-7.469-12.319-12.409-21.442-12.409-3.151 0-6.164 0.589-8.935 1.663l0.169-0.058c-24.639 9.312-45.902 21.887-64.554 37.481l0.349-0.284c-5.468 4.587-8.92 11.422-8.92 19.064 0 4.544 1.22 8.802 3.351 12.466l-0.064-0.119 16.435 28.595c-13.399 15.495-24.197 33.685-31.439 53.584l-0.382 1.2h-32.998c-0.017 0-0.037 0-0.056 0-12.192 0-22.319 8.841-24.32 20.461l-0.021 0.147c-1.957 11.156-3.076 24.001-3.076 37.107s1.119 25.951 3.267 38.445l-0.19-1.337c2.016 11.825 12.158 20.724 24.39 20.787h33.031c7.616 21.098 18.406 39.289 31.982 55.005l-0.186-0.221-16.435 28.621c-2.118 3.557-3.37 7.843-3.37 12.421 0 7.631 3.478 14.449 8.935 18.957l0.042 0.033c18.326 15.266 39.591 27.835 62.698 36.681l1.532 0.515c2.602 1.017 5.615 1.606 8.766 1.606 9.123 0 17.092-4.94 21.379-12.291l0.063-0.118 16.384-28.595c9.529 1.812 20.49 2.849 31.693 2.849s22.164-1.037 32.792-3.019l-1.099 0.17 16.41 28.595c4.35 7.469 12.319 12.409 21.442 12.409 3.151 0 6.164-0.589 8.935-1.663l-0.169 0.058c24.639-9.312 45.902-21.887 64.554-37.481l-0.349 0.284c5.447-4.586 8.885-11.409 8.885-19.035 0-4.555-1.227-8.824-3.368-12.494l0.064 0.118-16.384-28.595c13.798-16 24.576-34.611 31.795-54.784h32.998c12.006 0 22.4-8.627 24.397-20.634 1.956-11.152 3.074-23.992 3.074-37.094s-1.118-25.942-3.264-38.432l0.19 1.337c-2.016-11.825-12.158-20.724-24.39-20.787h-33.031c-7.606-21.107-18.387-39.307-31.957-55.032l0.188 0.222 16.384-28.595c2.123-3.56 3.378-7.851 3.378-12.435 0-7.623-3.471-14.435-8.918-18.943l-0.041-0.033c-18.32-15.263-39.575-27.832-62.673-36.681l-1.532-0.516c-2.602-1.017-5.615-1.606-8.766-1.606-9.123 0-17.092 4.94-21.379 12.291l-0.063 0.118-16.384 28.595c-9.533-1.814-20.498-2.851-31.706-2.851s-22.173 1.037-32.805 3.022l1.099-0.17zM1003.213 695.603c76.979-59.213 164.787 28.595 105.574 105.6-76.979 59.392-164.787-28.595-105.574-105.6zM772.608 387.789l67.405-33.587c14.42-8.486 23.944-23.929 23.944-41.596 0-5.956-1.083-11.66-3.062-16.924l0.109 0.332c-17.818-48.41-52.813-92.8-85.197-131.61-8.83-10.456-21.948-17.051-36.606-17.051-8.835 0-17.111 2.396-24.213 6.574l0.224-0.122-58.214 33.587c-31.044-26.761-67.513-48.283-107.403-62.633l-2.396-0.753v-67.2c0-0.025 0-0.056 0-0.086 0-23.453-16.865-42.967-39.13-47.076l-0.295-0.045c-22.816-4.103-49.080-6.449-75.891-6.449s-53.074 2.346-78.595 6.844l2.704-0.395c-22.79 3.985-39.904 23.585-39.987 47.198v67.209c-42.276 15.189-78.74 36.7-110.289 63.775l0.465-0.39-58.189-33.382c-6.876-4.047-15.148-6.438-23.977-6.438-14.659 0-27.779 6.588-36.56 16.966l-0.058 0.070c-32.41 38.784-66.611 83.2-84.403 131.405-1.848 4.915-2.918 10.595-2.918 16.525 0 17.679 9.506 33.137 23.686 41.541l0.223 0.123 66.611 33.587c-3.722 19.066-5.852 40.99-5.852 63.411s2.13 44.346 6.198 65.581l-0.346-2.17-66.611 33.792c-14.429 8.382-23.976 23.765-23.976 41.378 0 5.964 1.095 11.671 3.094 16.934l-0.109-0.328c17.818 48.41 51.994 92.826 84.403 131.61 8.83 10.456 21.948 17.051 36.606 17.051 8.835 0 17.111-2.396 24.213-6.574l-0.224 0.122 58.214-33.587c31.044 26.761 67.513 48.283 107.403 62.633l2.396 0.753v67.43c0 23.014 16.384 43.008 39.194 47.002 23.033 4.123 49.548 6.48 76.612 6.48 26.633 0 52.733-2.283 78.114-6.663l-2.714 0.388c22.989-3.994 39.987-23.808 39.987-47.206v-67.2c42.276-15.189 78.74-36.7 110.289-63.775l-0.465 0.39 58.189 33.587c6.876 4.047 15.148 6.438 23.977 6.438 14.659 0 27.779-6.588 36.56-16.966l0.058-0.070c32.384-38.81 66.381-83.2 84.198-131.584 7.987-21.811 0.205-46.413-20.019-58.214l-67.379-33.613c7.782-41.984 7.782-84.992 0-126.976zM537.395 345.6c118.4 154.010-57.395 329.805-211.405 211.405-118.374-154.010 57.421-329.805 211.405-211.405zM1024.205-19.789l-16.384-28.621c-4.35-7.469-12.319-12.409-21.442-12.409-3.151 0-6.164 0.589-8.935 1.663l0.169-0.058c-24.64 9.32-45.902 21.903-64.552 37.505l0.348-0.283c-5.462 4.586-8.91 11.418-8.91 19.055 0 4.537 1.217 8.789 3.341 12.449l-0.064-0.119 16.435 28.595c-13.402 15.502-24.2 33.701-31.439 53.609l-0.382 1.201h-32.998c-0.017 0-0.037 0-0.056 0-12.192 0-22.319 8.841-24.32 20.461l-0.021 0.147c-1.956 11.152-3.074 23.992-3.074 37.094s1.118 25.942 3.264 38.432l-0.19-1.337c2.005 11.836 12.151 20.747 24.39 20.813h33.031c7.616 21.098 18.406 39.289 31.982 55.005l-0.186-0.221-16.41 28.595c-2.118 3.557-3.37 7.843-3.37 12.421 0 7.631 3.478 14.449 8.935 18.957l0.042 0.033c18.32 15.263 39.575 27.832 62.673 36.681l1.532 0.516c2.602 1.017 5.615 1.606 8.766 1.606 9.123 0 17.092-4.94 21.379-12.291l0.063-0.118 16.384-28.595c9.529 1.812 20.49 2.849 31.693 2.849s22.164-1.037 32.792-3.019l-1.099 0.17 16.41 28.595c4.35 7.469 12.319 12.409 21.442 12.409 3.151 0 6.164-0.589 8.935-1.663l-0.169 0.058c24.639-9.312 45.902-21.887 64.554-37.481l-0.349 0.284c5.447-4.586 8.885-11.409 8.885-19.035 0-4.555-1.227-8.824-3.368-12.494l0.064 0.118-16.384-28.595c13.798-16 24.576-34.586 31.795-54.784h32.998c12.006 0 22.4-8.602 24.397-20.608 1.956-11.152 3.074-23.992 3.074-37.094s-1.118-25.942-3.264-38.432l0.19 1.337c-2.005-11.836-12.151-20.747-24.39-20.813h-33.031c-7.608-21.097-18.389-39.288-31.957-55.006l0.187 0.222 16.384-28.621c2.117-3.556 3.368-7.841 3.368-12.418 0-7.618-3.466-14.427-8.908-18.935l-0.041-0.033c-18.32-15.263-39.575-27.832-62.673-36.681l-1.532-0.516c-2.606-1.020-5.623-1.61-8.778-1.61-9.115 0-17.078 4.931-21.367 12.271l-0.063 0.117-16.384 28.621c-9.533-1.814-20.498-2.851-31.706-2.851s-22.173 1.037-32.805 3.022l1.099-0.17zM1003.213 97.997c76.979-59.187 164.787 28.595 105.574 105.6-76.979 59.213-164.787-28.595-105.574-105.6z" />
<glyph unicode="&#xe90b;" glyph-name="download-alt" horiz-adv-x="933" d="M30.835 252.459c-0.51-93.133-1.021-186.255-1.496-279.404l871.386-5.055 0.735 69.025 0.735 69.012 1.46 138.050c-0.015 0-0.025 0-0.045 0-0.705 0-1.403 0.015-2.102 0.039l0.105-0.004v4.575h-578.372l-292.397 3.74zM685.003 205.002h160.199v-89.181h-156.543l-0.225 5.565-0.238 5.579-0.44 11.158-0.238 5.565-0.225 5.579-0.238 5.579-0.225 5.579-0.238 5.579-0.225 5.565-0.225 5.579-0.238 5.579-0.225 5.579-0.238 5.565-0.225 5.579zM369.537 534.789l0.285-33.971c-42.816-0.462-85.643-0.885-128.474-1.329l228.75-217.674 218.172 221.295-122.384 1.329c-1.84 140.721-3.643 281.444-5.445 422.172l-194.234 1.365 3.335-393.186z" />
<glyph unicode="&#xe90c;" glyph-name="phone-in-talk" d="M853.299 298.701c-53.299 0-104.499 8.499-152.32 24.32-3.93 1.295-8.453 2.042-13.151 2.042-11.804 0-22.506-4.716-30.326-12.367l0.008 0.008-93.901-93.798c-121.664 62.787-218.343 159.499-279.404 277.609l-1.684 3.582 93.773 94.208c7.892 7.482 12.803 18.041 12.803 29.747 0 4.634-0.77 9.088-2.188 13.242l0.086-0.288c-15.404 45.196-24.295 97.26-24.295 151.401 0 0.314 0 0.628 0.001 0.942v-0.049c0 23.501-19.2 42.701-42.701 42.701h-149.299c-23.501 0-42.701-19.2-42.701-42.701 0-400.589 324.71-725.299 725.299-725.299 23.501 0 42.701 19.2 42.701 42.701v149.299c0 23.501-19.2 42.701-42.701 42.701zM810.701 448h85.299c0 212.096-171.904 384-384 384v-85.299c165.12 0 298.701-133.606 298.701-298.701zM640 448h85.299c0 117.802-95.497 213.299-213.299 213.299v0-85.299c70.81 0 128-57.19 128-128z" />
<glyph unicode="&#xe90d;" glyph-name="display" d="M0 896v-640h1024v640zM960 320h-896v512h896zM672 192h-320l-32-128-64-64h512l-64 64z" />
<glyph unicode="&#xe90e;" glyph-name="chevrons-right" horiz-adv-x="896" d="M512.018 448c0 19.906-7.374 39.844-22.186 55.312l-351.986 368c-30.562 31.906-81.182 33.032-113.12 2.5-31.934-30.53-33.058-81.188-2.5-113.124l299.114-312.688-299.114-312.688c-30.496-31.936-29.558-82.594 2.5-113.124 31.938-30.532 82.558-29.406 113.12 2.5l351.986 368c14.812 15.468 22.186 35.406 22.186 55.312zM873.812 503.312l-351.984 368c-30.56 31.906-81.184 33.032-113.118 2.5-31.938-30.53-33-81.188-2.5-113.124l299.11-312.688-299.11-312.688c-30.5-31.936-29.5-82.594 2.5-113.124 31.934-30.532 82.558-29.406 113.118 2.5l351.984 368c14.812 15.468 22.188 35.406 22.188 55.312s-7.376 39.844-22.188 55.312z" />
<glyph unicode="&#xe90f;" glyph-name="laptop1" horiz-adv-x="1280" d="M283.428 864.002c-65.562 0-118.858-53.295-118.858-118.858v-475.43h118.858v475.43h713.146v-475.43h118.858v475.43c0 65.562-53.295 118.858-118.858 118.858zM81.37 210.284c-19.694 0-35.658-15.964-35.658-35.658v0c0-78.755 63.898-142.629 142.629-142.629h903.318c78.755 0 142.629 63.898 142.629 142.629 0 19.694-15.964 35.658-35.658 35.658v0z" />
<glyph unicode="&#xe910;" glyph-name="laptop-windows" d="M0 106.701v85.299h170.701v42.701c-0.378-0.006-0.823-0.010-1.27-0.010-23.162 0-44.086 9.583-59.023 24.999l-0.021 0.022c-15.47 15.034-25.068 36.039-25.068 59.285 0 0.353 0.002 0.705 0.007 1.056l-0.001-0.054v426.701c0 23.398 8.397 43.52 25.088 60.211 14.977 15.484 35.94 25.096 59.149 25.096 0.4 0 0.8-0.003 1.199-0.009l-0.060 0.001h682.598c23.501 0 43.597-8.397 60.288-25.088 16.717-16.717 25.114-36.813 25.114-60.211v-426.701c0-23.501-8.397-43.597-25.088-60.288-16.717-16.717-36.813-25.088-60.314-25.011v-42.701h170.701v-85.299zM170.701 320h682.598v426.701h-682.598zM170.701 320v426.701z" />
<glyph unicode="&#xe911;" glyph-name="iphone" d="M298.701-21.299c-0.37-0.006-0.807-0.009-1.244-0.009-23.162 0-44.085 9.582-59.023 24.999l-0.021 0.022c-15.5 15.039-25.119 36.063-25.119 59.334 0 0.335 0.002 0.67 0.006 1.005v-0.051 768c0 23.501 8.397 43.52 25.088 60.211 14.977 15.484 35.94 25.096 59.149 25.096 0.409 0 0.818-0.003 1.226-0.009l-0.062 0.001h426.598c23.501 0 43.597-8.294 60.288-25.088 16.717-16.717 25.114-36.813 25.114-60.211v-768c0-23.501-8.397-43.597-25.088-60.288-16.717-16.717-36.813-25.088-60.314-25.011zM512 85.299c12.109 0 22.195 4.096 30.413 12.288 8.192 8.192 12.288 18.304 12.288 30.413 0.003 0.2 0.005 0.435 0.005 0.671 0 23.215-18.82 42.035-42.035 42.035-0.236 0-0.471-0.002-0.706-0.006h0.035c-0.2 0.003-0.435 0.005-0.671 0.005-23.215 0-42.035-18.82-42.035-42.035 0-0.236 0.002-0.471 0.006-0.706v0.035c0-12.109 4.096-22.195 12.288-30.413 8.192-8.192 18.432-12.288 30.413-12.288zM298.701 277.299h426.598v426.701h-426.598z" />
<glyph unicode="&#xe912;" glyph-name="school" d="M512 832l-469.299-256 469.299-256 384 209.51v-294.81h85.299v341.299zM213.299 397.696v-170.701l298.701-162.995 298.701 162.995v170.701l-298.701-162.995z" />
<glyph unicode="&#xe913;" glyph-name="mouse" d="M554.701 914.304v-338.304h298.598c0 174.080-130.099 317.389-298.598 338.304zM170.701 320c0-188.595 152.704-341.299 341.299-341.299s341.299 152.704 341.299 341.299v170.701h-682.598zM469.299 914.304c-168.499-20.915-298.598-164.224-298.598-338.304h298.598z" />
<glyph unicode="&#xe915;" glyph-name="search-alt" d="M661.299 362.701h-33.69l-11.904 11.52c41.627 48.14 66.989 111.347 66.995 180.479v0.001c0 153.088-124.211 277.299-277.402 277.299-153.088 0-277.299-124.211-277.299-277.299 0-153.19 124.211-277.402 277.299-277.402 68.71 0 131.891 25.19 180.48 66.995l11.52-11.904v-33.69l213.402-212.89 63.488 63.488zM405.299 362.701c-0.076 0-0.166 0-0.256 0-105.897 0-191.744 85.847-191.744 191.744 0 0.090 0 0.18 0 0.27v-0.014c0 106.189 85.811 192 192 192 0.076 0 0.166 0 0.256 0 105.897 0 191.744-85.847 191.744-191.744 0-0.090 0-0.18 0-0.27v0.014c0-106.291-85.709-192-192-192z" />
<glyph unicode="&#xe916;" glyph-name="security" d="M512 917.333l-384-170.667v-256c0-236.8 163.84-458.24 384-512 220.16 53.76 384 275.2 384 512v256l-384 170.667zM512 448.427h298.667c-22.613-175.787-139.947-332.373-298.667-381.44v381.013h-298.667v243.2l298.667 132.693v-375.467z" />
<glyph unicode="&#xe917;" glyph-name="hdd" d="M248.082 920.268c7.243 4.251 126.593 7.448 280.545 7.565l268.025 0.234 16.832-17.975c13.167-13.987 31.615-80.055 82.812-296.468 36.216-153.014 65.746-284.535 65.746-291.982 0-12.932-24.725-13.724-434.003-13.724-414.207 0-434.119 0.674-434.119 14.075 0 19.589 122.078 542.968 132.839 569.419 4.808 11.79 14.339 24.871 21.318 28.856zM115.682 230.473h407.347c299.313 0 412.71-2.522 427.725-9.267 30.819-14.105 42.374-44.338 42.374-111.347 0-57.065-1.026-60.261-26.333-85.569l-26.363-26.363h-408.165c-442.709 0-440.659-0.205-460.010 42.403-5.157 11.201-9.296 46.596-9.296 78.795 0 56.361 1.055 59.675 26.363 85.013zM683.018 114.202v-38.826h77.562v77.562h-77.562zM838.145 114.202v-38.826h77.416v77.562h-77.416zM-28.712 58.661c-11.907 9.501-11.79 10.175 2.522 7.653 12.17-2.053 15.718-9.15 16.51-33.547 0.821-21.877 0-24.163-2.405-7.682-1.966 12.727-9.384 27.828-16.627 33.576z" />
<glyph unicode="&#xe918;" glyph-name="transfer" d="M735.778 877.752c2.867 2.785 6.827 5.134 8.738 5.134 8.41 0 210.562-189.863 215.231-202.151l-0.089 0.317c1.408-4.349 2.169-8.989 2.169-13.806s-0.761-9.458-2.080-13.489c-8.001-20.808-212.036-203.953-221.102-198.383-4.478 2.785-8.001 33.369-8.001 69.96v64.963h-310.941v154.037h310.968v64.089c0 35.308 2.348 66.464 5.106 69.332zM118.183 734.993c5.134 5.134 22.61 9.284 38.939 9.284h29.519v-153.982h-29.546c-16.329 0-33.806 4.151-38.939 9.284-12.37 12.261-12.37 123.098 0 135.468zM264.329 744.277h77.742v-154.010h-77.742v77.005zM138.008 396.937c58.791 55.378 110.428 99.505 114.688 98.249 4.287-1.283 8.738-32.44 10.022-69.14l2.239-66.683h310.286v-154.010h-310.286l-2.239-67.393c-1.475-44.919-5.325-67.338-11.305-67.338-15.674 0-220.256 196.608-220.256 211.627 0 8.028 45.657 57.071 106.878 114.688zM652.902 359.39h77.769v-154.010h-77.769v77.005zM808.332 359.39h29.546c42.134 0 48.196-9.83 48.196-77.005 0-67.202-6.062-77.005-48.196-77.005h-29.546v77.005z" />
<glyph unicode="&#xe919;" glyph-name="folder-open" d="M191.889 800.136c15.869 6.895 51.284 9.476 128.981 9.728 100.365 0.221 108.614-0.754 129.39-14.639 12.782-8.501 24.336-23.109 27.42-34.442l5.162-19.801 333.27 3.684v-132.068h-669.122l-128.887-253.337-0.379 192.45-0.345 192.607h132.917l9.855 23.233 0.145 0.4c5.897 14.271 17.125 25.778 31.589 32.185zM219.687 546.8h395.354c373.884 0 395.26-0.597 391.198-11.427-2.36-6.392-46.624-110.092-98.383-230.355l-94.194-218.897h-394.754c-217.195 0-394.882 1.857-394.882 3.935 0 2.236 44.013 105.906 97.753 230.355z" />
<glyph unicode="&#xe91b;" glyph-name="shopping-cart" d="M495.397 935.795c0 4.402 9.256 8.041 20.599 8.041 11.569 0 18.398-3.527 15.52-8.041-6.49-10.469-36.118-10.469-36.118 0zM855.054 906.252c27.003 7.055 91.48 5.276 106.802-2.85 9.905-5.305 15.548-16.761 15.548-31.886 0-26.778-18.313-40.097-55.024-40.097-28.218 0-15.096 48.929-114.28-425.713-40.125-192.103-76.723-353.787-81.237-359.205-4.515-5.503-20.514-12.218-35.497-14.983-24.577-4.627-27.342-7.816-27.342-31.97 0-41.649-44.752-63.489-66.141-32.281-3.189 4.741-5.954 20.372-5.954 34.707l-0.085 26.101h-249.13v-27.653c0-30.644-24.352-54.882-47.067-46.615-18.737 6.941-24.887 18.51-25.001 47.179-0.113 23.251-2.54 25.339-33.409 29.543-33.381 4.402-46.84 15.322-46.84 37.811 0 35.356 3.64 36.034 243.373 38.46l228.164 2.314 13.459 62.276c7.365 34.171 15.406 70.092 18.059 79.911l4.627 17.861h-258.357c-287.251 0-297.156 1.552-313.041 50.029-12.106 37.36-73.957 332.229-78.811 376.643-2.963 26.242-0.875 39.137 6.828 44.075 6.067 3.978 176.809 8.945 379.521 11.146l368.573 3.978 10.779 44.188c21.163 86.626 27.681 103.388 41.479 107.028z" />
<glyph unicode="&#xe91c;" glyph-name="random" d="M55.005 702.114l-2.535-118.396 164.798-6.298 78.596-78.091c32.114 31.488 64.229 62.977 96.343 94.465l-115.358 112.098zM56.272 322.994h154.656l394.247 384.157 158.459-2.519c1.268 39.465 2.535 70.74 3.803 110.205 45.814-29.998 82.095-63.423 123.093-99.29l82.271-76.411-205.363-171.455c-1.69 39.465-3.38 72.792-5.071 112.257-31.692-0.42-63.384-0.84-95.076-1.259l-391.712-382.898-224.379 2.519zM488.549 311.659l95.076 93.205 79.864-79.351 101.414-2.519v123.434c61.81-56.563 125.256-111.504 186.031-169.092 2.476-2.674 5.325-5.363 7.896-8.041s4.865-5.345 6.23-7.976c1.366-2.631 1.804-5.225 0.664-7.758s-3.857-5.003-8.802-7.387c-49.123-45.029-95.329-93.415-149.475-132.662l-41.277-32.348-2.535 119.656-159.727-2.519z" />
<glyph unicode="&#xe91d;" glyph-name="apps" d="M670.409 815.865c-3.409-11.872-6.651-24.36-10.208-36.221-20.061 0.023-40.084-6.030-57.17-16.3-9.686 7.457-17.755 22.145-28.26 26.328-19.511-14.743-38.127-32.417-49.943-54.039 6.513-11.975 17.406-20.716 26.508-30.49-0.459-9.771-7.434-21.434-7.842-32.502-0.531-5.882-1.863-11.594-2.804-17.411l-12.532-0.622-11.79-3.935-7.191-3.402-7.057-3.628c1.445-25.108 8.347-50.59 20.99-71.811 12.215 3.479 25.442 2.139 37.019 7.794 9.25-9.982 17.502-24.433 29.787-32.726 3.794-3.219 10.181-5.217 5.652-10.924-3.906-9.341-3.472-19.738-5.082-29.641 22.54-11.503 48.072-18.576 73.116-18.177 4.877 8.69 8.785 17.963 10.826 27.758 0.28 2.053-0.5 4.996 0.302 6.625 16.218 2.347 31.925 8.117 46.394 15.847 4.715 1.282 7.18-7.104 10.951-9.893 4.741-6.732 12.579-11.025 18.576-15.755 21.368 12.974 39.531 31.597 52.922 53.145-9.379 14.51-18.399 18.219-18.399 18.219h0.178c-8.192 4.668-14.239 9.611-9.987 15.755l6.137 8.858 3.937 10.028 2.716 10.605 2.369 10.65c2.92 13.067 7.543 12.297 18.439 20.155 2.824 2.987 18.118 4.919 18.368 9.526-2.534 18.91-7.409 38.121-16.781 54.576-9.29 2.966-23.634-6.225-34.062-6.784-12.63-7.244-14.297 6.365-20.523 14.927-8.322 9.307-17.356 17.885-26.768 26.010 3.869 12.825 7.75 25.643 11.657 38.458-21.409 10.989-45.127 18.489-69.219 18.219l-1.178 0.713zM620.776 810.049c-1.22-0.457 0.989 0.115 0 0zM619.239 809.512c-5.103-1.587 1.315 0.433 0 0zM616.872 808.749l-0.618-0.18zM665.723 704.926c31.459 1.143 60.497-28.854 56.25-61.338-2.711-34.885-41.24-58.531-73.074-47.546-29.371 7.861-48.041 43.262-36.317 72.347 7.935 22.050 30.335 36.852 53.143 36.536zM955.56 761.752l-0.006-0.41zM955.553 761.345c-4.457-4.208-8.998-8.711-13.514-12.861-8.164 4.845-17.886 7.104-27.497 6.874-2.022 5.495-1.516 13.643-4.714 17.947-11.753-1.541-23.897-4.536-34.297-10.847-0.437-6.64 1.743-12.952 2.92-19.29-2.71-4.024-8.577-7.271-11.594-11.86-1.732-2.364-3.748-4.464-5.634-6.696-3.511 1.839-6.85 4.182-11.088 3.915-2.51 0.303-5.075 0.326-7.611 0.462-5.903-10.97-9.665-23.414-10.001-35.439 5.871-1.469 10.918-5.224 17.087-5.629 1.192-6.457 0.83-14.555 3.698-21.018 0.713-2.277 2.788-4.646-0.529-5.974-4.003-3.012-6.511-7.52-9.728-11.32 6.21-10.297 14.79-19.435 25.097-25.298 4.23 2.506 8.208 5.49 11.565 9.133 0.646 0.805 1.081 2.231 1.823 2.731 7.215-2.918 15.107-4.254 22.996-4.466 2.253-0.596 1.106-4.737 1.915-6.83 0.2-3.983 2.259-7.696 3.476-11.135 13.082 0.372 26.356 4.437 38.077 11.263-1.845 6.552-3.656 13.108-5.514 19.658 6.877 2.14 11.591 8.274 16.544 13.341 6.051-1.673 12.258-3.242 18.726-2.535 1.914 0.58 2.644 4.349 3.932 6.238 3.846 8.618 6.83 17.915 7.263 27.134-3.014 3.493-9.749 4.018-14.143 6.281-7.014-0.023-5.673 5.173-5.997 10.297-0.989 5.938-2.455 11.749-4.186 17.453 4.893 4.489 9.775 8.988 14.676 13.468-5.882 9.803-13.59 18.697-23.474 24.381l-0.317 0.578zM933.831 770.835c-0.621 0.108 0.437-0.188 0 0zM933.071 770.974c-2.488 0.554 0.646-0.137 0 0zM931.906 771.221l-0.299 0.069zM924.993 715.529c13.108-7.098 17.195-26.792 7.075-39.514-10.114-14.103-31.918-14.827-42.049-2.506-9.935 10.398-8.394 29.87 3.886 39.35 8.926 7.423 21.875 8.3 31.088 2.669zM821.23 564.717l0.372-0.212zM821.603 564.502c1.72-5.974 3.657-12.171 5.312-18.171-8.435-4.575-15.239-11.792-19.688-20.176-6.048 1.052-13.332 5.634-18.851 5.064-4.282-10.903-7.41-22.883-6.646-35.035 5.91-3.748 12.807-5.084 19.219-7.289 2.394-4.376 2.552-11.078 5.312-16.008 1.335-2.691 2.3-5.496 3.447-8.256-3.4-2.087-7.19-3.77-8.994-7.56-1.497-2.006-2.762-4.203-4.116-6.319 7.262-10.649 16.912-20.219 27.849-26.623 4.208 4.307 10.122 6.738 13.491 11.847 6.532-2.255 13.825-6.688 21.184-7.503 2.453-0.536 5.638 0.044 5.262-3.49 0.835-4.983 3.776-9.432 5.726-14.135 12.515 0.115 25.117 2.855 35.533 8.745-0.253 4.916-1.081 9.849-2.824 14.601-0.434 0.964-1.54 2.067-1.631 2.963 6.186 4.731 11.262 10.834 15.291 17.523 1.638 1.634 4.903-1.451 7.238-1.817 3.774-1.863 8.193-1.959 11.968-2.665 6.002 11.449 8.712 24.947 8.094 38.504-6.94 1.741-13.869 3.518-20.813 5.244 1.358 7.014-2.004 14.187-4.279 21.024 4.484 4.366 8.946 8.901 11.431 14.833 0.391 1.953-2.736 4.484-3.857 6.554-6.076 7.7-13.22 14.987-21.507 20.046-4.688-0.824-8.44-6.351-12.671-8.985-3.383-6.048-7.52-2.253-12.411 0.069-5.956 2.167-12.028 3.862-18.14 5.266-1.771 6.491-3.543 12.99-5.306 19.481-11.899-0.069-23.849-2.188-33.897-7.811l-0.69 0.023zM802.302 550.621c-0.391-0.483 0.39 0.295 0 0zM801.798 550.036c-1.725-1.863 0.438 0.484 0 0zM801.008 549.162l-0.205-0.223zM849.047 514.902c12.904 7.68 33.069 1.177 39.899-14.001 8.113-15.877-1.817-35.012-18.099-37.472-14.419-3.266-31.639 7.953-34.427 23.346-2.507 11.455 2.966 23.053 12.627 28.122zM497.233 716.522c-1.815 0.050-3.652-0.074-5.387-0.443-23.622 0.316-49.81 0.046-74.431 0.135-81.396-0.002-162.8 0.007-244.193 0-25.777-1.882-45.322-24.722-53.011-48.4-7.407-43.671-5.036-88.399-6.27-132.564 0.366-101.568 0.916-203.143 1.357-304.706h84.157c0.708 133.697 1.331 267.399 2.053 401.097 89.561 0.833 179.125 1.777 268.683 2.69l3.635 0.759c1.312 3.886 3.282 7.863 6.002 11.549 2.92 9.979 12.857 26.462 45.167 43.74-0.14 0.364-0.19 0.651-0.347 1.033-1.271 14.511-14.743 24.746-27.428 25.115zM829.307 403.757c-0.345-0.002-0.687-0.020-1.009-0.046h-0.045l-5.821-2.69c-3.525-3.396-4.298-8.731-4.298-8.731v-153.069l0.213-10.65h86.042l-1.009 135.967c0 0 2.093 32.049-3.466 37.070-22.978-27.731-50.074-12.943-50.074-12.943l1.178 0.315c-7.742 2.417-13.685 9.725-16.515 13.827-1.955 0.646-3.697 0.946-5.217 0.943zM985.179 184.423c-0.55 0.001-1.265-0.028-1.929-0.046-0.663-0.007-1.453-0.026-2.458-0.046-0.991-0.017-2.946 0.001-3.68 0h-6.351l-6.396-0.046h-21.464c-3.055-0.003-6.213 0.003-9.546 0s-6.823-0.041-10.421-0.046c-3.61-0.003-7.339 0.004-11.216 0s-7.885 0.004-12.003 0c-4.119-0.004-8.389-0.041-12.755-0.046s-8.854 0.004-13.452 0-9.292 0.004-14.102 0c-4.809-0.004-9.744-0.041-14.763-0.046h-31.279c-5.404-0.005-10.894-0.041-16.47-0.046s-11.249 0.005-16.997 0c-5.745-0.005-11.583-0.039-17.479-0.046h-17.916c-6.044-0.006-12.14-0.039-18.31-0.046s-12.415 0.006-18.703 0h-19.016c-6.408-0.006-12.859-0.039-19.363-0.046s-13.039 0.006-19.623 0-13.223-0.039-19.892-0.046c-6.667-0.006-13.377 0.006-20.107 0s-13.499-0.039-20.283-0.046c-6.784-0.006-13.587 0.006-20.416 0l-20.586-0.046h-20.586l-20.721-0.046h-20.677l-61.903-0.092c-6.832-0.006-13.62-0.039-20.416-0.046s-13.591 0.006-20.327 0-13.433-0.039-20.107-0.046c-6.672-0.006-13.29 0.006-19.892 0s-13.157-0.039-19.666-0.046c-6.508-0.006-12.993 0.006-19.407 0s-12.801 0.005-19.106 0c-6.304-0.005-12.526-0.041-18.703-0.046s-12.348 0.005-18.399 0c-6.050-0.005-12.003-0.041-17.916-0.046h-17.523c-5.767-0.005-11.439 0.005-17.041 0s-11.133-0.041-16.559-0.046c-5.425-0.004-10.744 0.004-15.986 0s-10.373-0.041-15.426-0.046c-5.039-0.004-9.964 0.003-14.808 0s-9.573 0.003-14.191 0c-4.622-0.003-8.993 0.003-13.227 0s-8.328-0.044-12.351-0.046c-4.024-0.003-8.007 0.002-12.003 0s-8.529 0.002-12.136 0c-3.61-0.002-6.167 0.001-9.244 0s-6.167 0.001-9.244 0c-3.077-0.001-6.122 0.001-9.199 0s-7.704 0-9.244 0h-2.006c-0.028 0-0.097 0-0.133 0s-0.069 0-0.088 0h-0.301l-0.044-0.046h-0.301v0.046h-0.088v0.046h-0.874v0.046h-3.582v0.046h-0.177l-0.044 0.046h-0.132v0.046h-0.202v0.046h-0.177l-0.044 0.046h-0.257v-0.046h-0.088v-0.046h-0.044v-0.046h-0.044v-0.138h-0.044v-0.183h-0.044v-0.183h-0.044v-0.046h-0.044v0.046h-0.088v0.046h-0.044v0.046h-0.044l-0.044 0.046h-0.044v0.046h-0.088v0.046h-0.044v0.046h-0.132v-0.138c-0.005-0.025 0.007-0.089 0-0.135-0.007-0.044-0.029-0.089-0.044-0.135-0.007-0.044-0.030-0.089-0.044-0.135-0.007-0.044 0.016-0.072 0-0.135s-0.026-0.158-0.044-0.224c-0.018-0.069-0.026-0.114-0.044-0.181s-0.026-0.155-0.044-0.224c-0.017-0.069-0.025-0.138-0.044-0.224s-0.024-0.166-0.044-0.27-0.024-0.212-0.044-0.315c-0.020-0.097-0.025-0.166-0.044-0.27s-0.023-0.207-0.044-0.315c-0.021-0.114-0.023-0.237-0.044-0.352-0.022-0.118-0.069-0.234-0.088-0.352s-0.023-0.234-0.044-0.352c-0.022-0.118-0.023-0.227-0.044-0.352s-0.023-0.299-0.044-0.443c-0.023-0.143-0.069-0.299-0.088-0.443-0.023-0.143-0.023-0.253-0.044-0.397s-0.023-0.298-0.044-0.443c-0.023-0.16-0.023-0.326-0.044-0.487s-0.069-0.326-0.088-0.487c-0.023-0.161-0.023-0.326-0.044-0.487s-0.023-0.318-0.044-0.487c-0.022-0.168-0.069-0.392-0.088-0.578s-0.023-0.347-0.044-0.532c-0.022-0.186-0.024-0.392-0.044-0.578s-0.024-0.345-0.044-0.532c-0.021-0.201-0.024-0.42-0.044-0.622s-0.025-0.375-0.044-0.578c-0.020-0.207-0.025-0.42-0.044-0.622s-0.025-0.414-0.044-0.622c-0.019-0.21-0.026-0.444-0.044-0.667s-0.026-0.444-0.044-0.667c-0.017-0.224-0.028-0.444-0.044-0.667s-0.028-0.392-0.044-0.622c-0.007-0.229 0.007-0.482 0-0.713s-0.030-0.482-0.044-0.713c-0.006-0.237 0.005-0.482 0-0.713s-0.041-0.476-0.044-0.713c-0.004-0.249 0.003-0.508 0-0.759s0.002-0.508 0-0.759c-0.002-0.253 0-0.508 0-0.759s-0.001-0.503 0-0.759c0.001-0.256-0.003-0.535 0-0.805s-0.004-0.535 0-0.805c0.004-0.26 0.039-0.489 0.044-0.759s-0.007-0.53 0-0.805c0.007-0.273 0.028-0.575 0.044-0.851s0.026-0.529 0.044-0.805c0.017-0.278-0.019-0.575 0-0.851s0.069-0.572 0.088-0.851c0.021-0.282 0.023-0.568 0.044-0.851s0.023-0.569 0.044-0.851c0.023-0.293 0.068-0.605 0.088-0.897s0.022-0.557 0.044-0.851c0.023-0.298 0.053-0.599 0.088-0.897s0.096-0.599 0.133-0.897c0.028-0.299 0.062-0.553 0.088-0.851s0.069-0.707 0.088-0.897c0.021-0.201 0.039-0.223 0.044-0.315s-0.005-0.168 0-0.27c0.005-0.092-0.005-0.168 0-0.27 0.005-0.092 0.039-0.168 0.044-0.27 0.006-0.092-0.006-0.168 0-0.27 0.006-0.092 0.039-0.223 0.044-0.315s-0.006-0.168 0-0.27c0.006-0.092 0.030-0.168 0.044-0.27 0.006-0.092-0.006-0.179 0-0.27s0.030-0.179 0.044-0.27c0.006-0.092-0.006-0.224 0-0.315s0.030-0.179 0.044-0.27-0.006-0.179 0-0.27c0.006-0.092 0.030-0.179 0.044-0.27s-0.007-0.179 0-0.27c0.007-0.092 0.030-0.179 0.044-0.27s-0.007-0.181 0-0.27c0.007-0.092 0.030-0.179 0.044-0.27s0.030-0.179 0.044-0.27c0.007-0.092-0.007-0.224 0-0.315s0.029-0.181 0.044-0.27-0.007-0.181 0-0.27c0.007-0.089 0.029-0.181 0.044-0.27s-0.007-0.181 0-0.27c0.007-0.089 0.029-0.135 0.044-0.224s0.029-0.181 0.044-0.27c0.007-0.089-0.007-0.183 0-0.27 0.007-0.089 0.029-0.181 0.044-0.27s0.029-0.183 0.044-0.27c0.007-0.087-0.007-0.183 0-0.27s0.029-0.181 0.044-0.27c0.007-0.087-0.007-0.138 0-0.224s0.028-0.183 0.044-0.27c0.007-0.087 0.028-0.183 0.044-0.27s0.028-0.138 0.044-0.224c0.007-0.085-0.007-0.186 0-0.27s0.028-0.14 0.044-0.224c0.016-0.085 0.028-0.186 0.044-0.27s-0.016-0.143 0-0.224c0.016-0.085 0.028-0.186 0.044-0.27 0.016-0.074 0.028-0.143 0.044-0.224s0.027-0.188 0.044-0.27c0.016-0.074-0.016-0.143 0-0.224s0.027-0.143 0.044-0.224c0.016-0.074 0.027-0.144 0.044-0.224s0.027-0.191 0.044-0.27c0.016-0.072-0.016-0.144 0-0.224s0.027-0.155 0.044-0.224c0.017-0.072 0.027-0.155 0.044-0.224s0.027-0.144 0.044-0.224c0.017-0.069 0.026-0.155 0.044-0.224s-0.017-0.111 0-0.181c0.017-0.069 0.026-0.158 0.044-0.224s0.026-0.158 0.044-0.224c0.017-0.069 0.026-0.16 0.044-0.224 0.017-0.069 0.026-0.115 0.044-0.181s0.026-0.16 0.044-0.224c0.018-0.069 0.026-0.115 0.044-0.181s-0.018-0.16 0-0.224c0.018-0.069 0.026-0.115 0.044-0.181s0.026-0.118 0.044-0.181c0.017-0.063 0.026-0.118 0.044-0.181s0.025-0.115 0.044-0.181c0.019-0.069 0.023-0.155 0.044-0.224s0.023-0.138 0.044-0.224c0.023-0.085 0.069-0.181 0.088-0.27s0.023-0.181 0.044-0.27c0.023-0.089 0.069-0.186 0.088-0.27s0.023-0.14 0.044-0.224c0.023-0.085 0.023-0.186 0.044-0.27s0.069-0.143 0.088-0.224c0.023-0.085 0.023-0.188 0.044-0.27s0.069-0.143 0.088-0.224c0.023-0.074 0.023-0.143 0.044-0.224s0.069-0.143 0.088-0.224c0.023-0.072 0.023-0.191 0.044-0.27s0.069-0.144 0.088-0.224c0.023-0.072 0.069-0.155 0.088-0.224 0.023-0.072 0.023-0.155 0.044-0.224s0.069-0.155 0.088-0.224c0.023-0.069 0.023-0.155 0.044-0.224s0.068-0.158 0.088-0.224c0.023-0.069 0.068-0.111 0.088-0.181 0.023-0.069 0.023-0.158 0.044-0.224s0.068-0.158 0.088-0.224c0.023-0.069 0.023-0.16 0.044-0.224 0.023-0.069 0.068-0.114 0.088-0.181s0.067-0.16 0.088-0.224 0.067-0.115 0.088-0.181c0.023-0.069 0.023-0.161 0.044-0.224s0.067-0.115 0.088-0.181c0.023-0.069 0.067-0.161 0.088-0.224s0.022-0.115 0.044-0.181c0.023-0.069 0.067-0.115 0.088-0.181s0.066-0.115 0.088-0.181c0.023-0.069 0.066-0.161 0.088-0.224s0.066-0.115 0.088-0.181c0.023-0.066 0.022-0.115 0.044-0.181s0.066-0.115 0.088-0.181c0.023-0.066 0.066-0.115 0.088-0.181s0.066-0.118 0.088-0.181c0.023-0.063 0.066-0.118 0.088-0.181s0.065-0.118 0.088-0.181c0.024-0.063 0.021-0.118 0.044-0.181s0.065-0.072 0.088-0.135c0.024-0.063 0.065-0.121 0.088-0.181s0.065-0.121 0.088-0.181c0.024-0.053 0.065-0.121 0.088-0.181s0.065-0.074 0.088-0.135c0.024-0.053 0.065-0.122 0.088-0.181 0.025-0.053 0.064-0.121 0.088-0.181 0.025-0.050 0.064-0.085 0.088-0.135s0.064-0.121 0.088-0.181c0.025-0.050 0.064-0.085 0.088-0.135s0.064-0.122 0.088-0.181c0.025-0.050 0.064-0.087 0.088-0.135 0.025-0.050 0.064-0.085 0.088-0.135s0.064-0.133 0.088-0.181c0.025-0.048 0.064-0.087 0.088-0.135s0.064-0.087 0.088-0.135c0.025-0.048 0.063-0.133 0.088-0.181s0.063-0.089 0.088-0.135c0.025-0.048 0.063-0.087 0.088-0.135s0.063-0.087 0.088-0.135c0.025-0.046 0.053-0.122 0.088-0.181s0.053-0.087 0.088-0.135c0.027-0.048 0.064-0.092 0.088-0.135s0.069-0.099 0.088-0.135c0.023-0.028 0.025-0.069 0.044-0.089l0.132-0.138v-0.046c0.018-0.023 0.025-0.069 0.044-0.089l0.132-0.138c0.018-0.023 0.025-0.069 0.044-0.089l0.132-0.138c0.018-0.023 0.025-0.069 0.044-0.089l0.088-0.092v-0.046c0.018-0.022 0.025-0.069 0.044-0.089l0.132-0.138c0.018-0.022 0.025-0.069 0.044-0.089l0.177-0.183c0.018-0.022 0.025-0.069 0.044-0.089l0.088-0.092v-0.046l0.132-0.138c0.018-0.022 0.025-0.069 0.044-0.089l0.213-0.229c0.019-0.021 0.025-0.069 0.044-0.089l0.213-0.229c0.019-0.021 0.025-0.069 0.044-0.089l0.088-0.092v-0.046l0.177-0.183c0.019-0.021 0.025-0.069 0.044-0.089l0.257-0.276c-0.004 0.023 0.001 0.072 0 0.089l0.044-0.046c0.023-0.041 0.053-0.122 0.133-0.27 0.071-0.138 0.179-0.345 0.302-0.578s0.278-0.477 0.437-0.759 0.317-0.6 0.483-0.897 0.329-0.595 0.483-0.851c0.156-0.253 0.326-0.506 0.483-0.759s0.323-0.506 0.483-0.759c0.161-0.253 0.32-0.507 0.483-0.759s0.318-0.508 0.483-0.759c0.161-0.253 0.315-0.509 0.483-0.759s0.348-0.509 0.529-0.759c0.168-0.253 0.345-0.51 0.529-0.759s0.345-0.467 0.529-0.713 0.389-0.512 0.573-0.759c0.184-0.252 0.341-0.476 0.529-0.713s0.375-0.522 0.573-0.759c0.191-0.249 0.416-0.478 0.618-0.713s0.369-0.48 0.573-0.713 0.41-0.481 0.618-0.713c0.207-0.237 0.398-0.482 0.618-0.713s0.44-0.483 0.662-0.713c0.209-0.234 0.437-0.483 0.662-0.713s0.437-0.483 0.662-0.713c0.224-0.232 0.436-0.437 0.662-0.667 0.226-0.232 0.476-0.484 0.707-0.713s0.421-0.44 0.662-0.667c0.234-0.227 0.506-0.441 0.742-0.667s0.458-0.443 0.707-0.667c0.248-0.224 0.499-0.453 0.742-0.667s0.487-0.454 0.742-0.667c0.253-0.223 0.529-0.411 0.787-0.622s0.483-0.457 0.742-0.667c0.256-0.21 0.527-0.414 0.787-0.622s0.568-0.416 0.832-0.622 0.511-0.418 0.787-0.622c0.276-0.207 0.596-0.42 0.875-0.622s0.549-0.43 0.832-0.622c0.283-0.205 0.581-0.387 0.875-0.578s0.577-0.434 0.875-0.622 0.575-0.391 0.875-0.578c0.299-0.201 0.62-0.391 0.92-0.578s0.615-0.391 0.92-0.578c0.304-0.188 0.604-0.346 0.92-0.532s0.645-0.393 0.964-0.578c0.32-0.183 0.64-0.351 0.964-0.532s0.628-0.352 0.964-0.532c0.328-0.179 0.668-0.363 1.009-0.532 0.341-0.179 0.667-0.365 1.009-0.532s0.71-0.322 1.052-0.487c0.345-0.166 0.662-0.325 1.009-0.487s0.739-0.373 1.097-0.532c0.351-0.161 0.69-0.293 1.052-0.443s0.73-0.341 1.097-0.487 0.717-0.298 1.097-0.443c0.372-0.158 0.759-0.345 1.134-0.487s0.759-0.299 1.134-0.443c0.388-0.144 0.8-0.256 1.178-0.397s0.742-0.301 1.134-0.443c0.391-0.14 0.827-0.26 1.222-0.397s0.779-0.27 1.178-0.397c0.231-0.072 0.466-0.155 0.707-0.224h794.848c1.493 0.039 2.949 0.048 4.422 0.089s2.92 0.094 4.386 0.135c1.453 0.044 2.942 0.092 4.386 0.135s2.874 0.089 4.298 0.135c1.419 0.046 2.81 0.087 4.208 0.135s2.753 0.122 4.116 0.181c1.362 0.050 2.736 0.074 4.070 0.135s2.643 0.118 3.937 0.181c1.309 0.063 2.627 0.115 3.893 0.181s2.49 0.115 3.724 0.181c1.226 0.069 2.443 0.16 3.635 0.224s2.362 0.114 3.511 0.181c1.148 0.069 2.275 0.155 3.378 0.224s2.185 0.144 3.242 0.224c1.054 0.072 2.11 0.186 3.106 0.27s1.949 0.14 2.893 0.224c0.944 0.087 1.865 0.181 2.76 0.27s1.752 0.168 2.591 0.27c0.831 0.092 1.635 0.168 2.414 0.27s1.535 0.21 2.231 0.315c0.709 0.099 1.378 0.207 2.017 0.315 0.639 0.11 1.224 0.207 1.796 0.315s1.081 0.205 1.582 0.315 0.988 0.246 1.403 0.352 0.803 0.237 1.134 0.352c0.344 0.115 0.621 0.232 0.875 0.352s0.529 0.232 0.787 0.352c0.254 0.121 0.529 0.276 0.787 0.397s0.484 0.229 0.742 0.352c0.254 0.122 0.529 0.27 0.787 0.397 0.254 0.133 0.484 0.27 0.742 0.397s0.529 0.26 0.787 0.397c0.254 0.138 0.485 0.257 0.742 0.397s0.529 0.302 0.787 0.443 0.486 0.253 0.742 0.397c0.253 0.143 0.53 0.299 0.787 0.443s0.487 0.299 0.742 0.443c0.253 0.158 0.531 0.342 0.787 0.487s0.487 0.293 0.742 0.443c0.253 0.161 0.487 0.328 0.742 0.487s0.488 0.325 0.742 0.487c0.253 0.163 0.533 0.321 0.787 0.487s0.489 0.363 0.742 0.532c0.253 0.179 0.489 0.351 0.742 0.532s0.49 0.348 0.742 0.532c0.252 0.186 0.49 0.391 0.742 0.578s0.499 0.39 0.742 0.578c0.252 0.201 0.499 0.386 0.742 0.578s0.5 0.419 0.742 0.622c0.25 0.207 0.5 0.414 0.742 0.622s0.457 0.41 0.707 0.622c0.25 0.212 0.502 0.442 0.742 0.667 0.25 0.224 0.502 0.437 0.742 0.667s0.458 0.483 0.707 0.713c0.247 0.237 0.503 0.478 0.742 0.713s0.504 0.465 0.742 0.713c0.247 0.253 0.46 0.504 0.707 0.759s0.505 0.536 0.742 0.805c0.246 0.26 0.461 0.529 0.707 0.805s0.462 0.529 0.707 0.805c0.246 0.28 0.507 0.569 0.742 0.851s0.463 0.6 0.707 0.897c0.235 0.299 0.464 0.593 0.707 0.897s0.464 0.623 0.707 0.943c0.235 0.306 0.509 0.621 0.742 0.943 0.235 0.32 0.465 0.616 0.707 0.943s0.466 0.691 0.707 1.033c0.233 0.342 0.467 0.685 0.707 1.033s0.431 0.669 0.662 1.033c0.233 0.351 0.476 0.713 0.707 1.079s0.476 0.742 0.707 1.124c0.23 0.373 0.477 0.78 0.707 1.169s0.477 0.764 0.707 1.169c0.228 0.392 0.434 0.805 0.662 1.214s0.479 0.799 0.707 1.214c0.228 0.415 0.436 0.828 0.662 1.259s0.48 0.856 0.707 1.304c0.225 0.437 0.436 0.897 0.662 1.341s0.437 0.89 0.662 1.341c0.225 0.459 0.482 0.918 0.707 1.386s0.437 0.947 0.662 1.431 0.437 0.989 0.662 1.476c0.224 0.487 0.437 0.971 0.662 1.476s0.437 1.007 0.662 1.521 0.437 1.035 0.662 1.567c0.213 0.529 0.437 1.076 0.662 1.611s0.437 1.104 0.662 1.656c0.211 0.553 0.438 1.085 0.662 1.656s0.394 1.171 0.618 1.746c0.211 0.575 0.439 1.153 0.662 1.746s0.418 1.173 0.618 1.746c0.2 0.575 0.391 1.144 0.573 1.702s0.324 1.111 0.483 1.656c0.161 0.545 0.299 1.081 0.437 1.611s0.273 1.055 0.391 1.567 0.25 0.985 0.347 1.476c0.11 0.49 0.224 0.991 0.302 1.476 0.090 0.483 0.144 0.966 0.213 1.431s0.161 0.94 0.213 1.386c0.062 0.454 0.088 0.901 0.133 1.341 0.043 0.437 0.11 0.829 0.133 1.259s0.025 0.848 0.045 1.259 0.043 0.808 0.045 1.214c0.002 0.392-0.027 0.781-0.045 1.169s-0.023 0.8-0.045 1.169c-0.023 0.369-0.049 0.714-0.088 1.079s-0.088 0.687-0.133 1.033c-0.045 0.345-0.070 0.697-0.133 1.033s-0.112 0.667-0.178 0.989c-0.069 0.319-0.14 0.628-0.213 0.943-0.070 0.302-0.178 0.6-0.258 0.897s-0.165 0.572-0.258 0.851c-0.092 0.282-0.207 0.575-0.302 0.851s-0.203 0.502-0.302 0.759-0.233 0.555-0.347 0.805c-0.115 0.253-0.228 0.482-0.347 0.713s-0.224 0.484-0.347 0.713c-0.122 0.229-0.3 0.454-0.437 0.667s-0.253 0.418-0.391 0.622c-0.14 0.207-0.298 0.388-0.437 0.578s-0.295 0.391-0.437 0.578-0.282 0.397-0.437 0.578c-0.157 0.181-0.325 0.322-0.483 0.487s-0.28 0.329-0.437 0.487-0.321 0.344-0.483 0.487-0.32 0.299-0.483 0.443c-0.161 0.143-0.364 0.27-0.529 0.397s-0.319 0.276-0.483 0.397c-0.161 0.122-0.319 0.237-0.483 0.352s-0.319 0.249-0.483 0.352c-0.161 0.115-0.32 0.207-0.483 0.315s-0.321 0.212-0.483 0.315c-0.161 0.097-0.323 0.224-0.483 0.315s-0.325 0.14-0.483 0.224c-0.16 0.087-0.327 0.188-0.483 0.27s-0.293 0.155-0.437 0.224c-0.155 0.069-0.295 0.16-0.437 0.224s-0.299 0.115-0.437 0.181-0.256 0.122-0.391 0.181c-0.138 0.053-0.302 0.087-0.437 0.135s-0.225 0.092-0.347 0.135c-0.121 0.046-0.276 0.094-0.391 0.135s-0.203 0.097-0.302 0.135-0.252 0.063-0.347 0.089-0.208 0.069-0.302 0.089c-0.095 0.023-0.178 0.023-0.258 0.046s-0.14 0.069-0.213 0.089c-0.073 0.023-0.155 0.025-0.213 0.046s-0.161 0.028-0.213 0.046c0.14 0 0.278-0.003 0.213 0-0.069 0.004-0.181 0.041-0.258 0.046v-0.046c-0.181 0.003-0.391 0.066-0.391 0.089s-0.369 0.089-0.92 0.089z" />
<glyph unicode="&#xe91e;" glyph-name="arrow-right-solid" horiz-adv-x="896" d="M877.2 402.8c25 25 25 65.6 0 90.6l-320 320c-25 25-65.6 25-90.6 0s-25-65.6 0-90.6l211-210.8h-613.6c-35.4 0-64-28.6-64-64s28.6-64 64-64h613.4l-210.6-210.8c-25-25-25-65.6 0-90.6s65.6-25 90.6 0l320 320z" />
<glyph unicode="&#xe91f;" glyph-name="instagram" d="M512 867.8c136.8 0 153-0.6 206.8-3 50-2.2 77-10.6 95-17.6 23.8-9.2 41-20.4 58.8-38.2 18-18 29-35 38.4-58.8 7-18 15.4-45.2 17.6-95 2.4-54 3-70.2 3-206.8s-0.6-153-3-206.8c-2.2-50-10.6-77-17.6-95-9.2-23.8-20.4-41-38.2-58.8-18-18-35-29-58.8-38.4-18-7-45.2-15.4-95-17.6-54-2.4-70.2-3-206.8-3s-153 0.6-206.8 3c-50 2.2-77 10.6-95 17.6-23.8 9.2-41 20.4-58.8 38.2-18 18-29 35-38.4 58.8-7 18-15.4 45.2-17.6 95-2.4 54-3 70.2-3 206.8s0.6 153 3 206.8c2.2 50 10.6 77 17.6 95 9.2 23.8 20.4 41 38.2 58.8 18 18 35 29 58.8 38.4 18 7 45.2 15.4 95 17.6 53.8 2.4 70 3 206.8 3zM512 960c-139 0-156.4-0.6-211-3-54.4-2.4-91.8-11.2-124.2-23.8-33.8-13.2-62.4-30.6-90.8-59.2-28.6-28.4-46-57-59.2-90.6-12.6-32.6-21.4-69.8-23.8-124.2-2.4-54.8-3-72.2-3-211.2s0.6-156.4 3-211c2.4-54.4 11.2-91.8 23.8-124.2 13.2-33.8 30.6-62.4 59.2-90.8 28.4-28.4 57-46 90.6-59 32.6-12.6 69.8-21.4 124.2-23.8 54.6-2.4 72-3 211-3s156.4 0.6 211 3c54.4 2.4 91.8 11.2 124.2 23.8 33.6 13 62.2 30.6 90.6 59s46 57 59 90.6c12.6 32.6 21.4 69.8 23.8 124.2 2.4 54.6 3 72 3 211s-0.6 156.4-3 211c-2.4 54.4-11.2 91.8-23.8 124.2-12.6 34-30 62.6-58.6 91-28.4 28.4-57 46-90.6 59-32.6 12.6-69.8 21.4-124.2 23.8-54.8 2.6-72.2 3.2-211.2 3.2v0zM512 711c-145.2 0-263-117.8-263-263s117.8-263 263-263 263 117.8 263 263c0 145.2-117.8 263-263 263zM512 277.4c-94.2 0-170.6 76.4-170.6 170.6s76.4 170.6 170.6 170.6c94.2 0 170.6-76.4 170.6-170.6s-76.4-170.6-170.6-170.6zM846.8 721.4c0-33.91-27.49-61.4-61.4-61.4s-61.4 27.49-61.4 61.4c0 33.91 27.49 61.4 61.4 61.4s61.4-27.49 61.4-61.4z" />
<glyph unicode="&#xe920;" glyph-name="facebook" d="M608 768h160v192h-160c-123.514 0-224-100.486-224-224v-96h-128v-192h128v-512h192v512h160l32 192h-192v96c0 17.346 14.654 32 32 32z" />
<glyph unicode="&#xe921;" glyph-name="trending-up" d="M682 682.667h256v-256l-98 98-268-268-170 170-256-256-60 60 316 316 170-170 208 208z" />
<glyph unicode="&#xe922;" glyph-name="linkedin" horiz-adv-x="878" d="M199.429 593.714v-566.286h-188.571v566.286h188.571zM211.429 768.571c0.571-54.286-40.571-97.714-106.286-97.714v0h-1.143c-63.429 0-104 43.429-104 97.714 0 55.429 42.286 97.714 106.286 97.714 64.571 0 104.571-42.286 105.143-97.714zM877.714 352v-324.571h-188v302.857c0 76-27.429 128-95.429 128-52 0-82.857-34.857-96.571-68.571-4.571-12.571-6.286-29.143-6.286-46.286v-316h-188c2.286 513.143 0 566.286 0 566.286h188v-82.286h-1.143c24.571 38.857 69.143 95.429 170.857 95.429 124 0 216.571-81.143 216.571-254.857z" />
<glyph unicode="&#xe923;" glyph-name="star" horiz-adv-x="951" d="M950.857 581.143c0-10.286-7.429-20-14.857-27.429l-207.429-202.286 49.143-285.714c0.571-4 0.571-7.429 0.571-11.429 0-14.857-6.857-28.571-23.429-28.571-8 0-16 2.857-22.857 6.857l-256.571 134.857-256.571-134.857c-7.429-4-14.857-6.857-22.857-6.857-16.571 0-24 13.714-24 28.571 0 4 0.571 7.429 1.143 11.429l49.143 285.714-208 202.286c-6.857 7.429-14.286 17.143-14.286 27.429 0 17.143 17.714 24 32 26.286l286.857 41.714 128.571 260c5.143 10.857 14.857 23.429 28 23.429s22.857-12.571 28-23.429l128.571-260 286.857-41.714c13.714-2.286 32-9.143 32-26.286z" />
<glyph unicode="&#xe924;" glyph-name="handshake" horiz-adv-x="1317" d="M109.714 292.571c48 0 48 73.143 0 73.143s-48-73.143 0-73.143zM951.429 325.714c-45.143 58.857-89.143 118.857-140.571 172.571l-71.429-80c-62.857-71.429-175.429-69.714-236.571 3.429-43.429 52.571-43.429 128 1.143 180l101.143 117.714c-35.429 18.286-78.286 12-116.571 12-33.714 0-66.286-13.714-90.286-37.714l-90.286-90.286h-88.571v-310.857c25.143 0 48 3.429 68-16l169.714-166.857c34.857-33.714 80-63.429 129.714-63.429 25.714 0 53.143 8.571 71.429 26.857 42.857-14.857 92.571 9.143 105.714 53.143 27.429-2.286 52.571 6.286 72.571 25.143 13.143 12 30.286 36 28.571 54.857 5.143-5.143 17.714-5.714 24.571-5.714 68 0 103.429 71.429 61.714 125.143zM1042.286 292.571h54.857v292.571h-53.143l-89.714 102.857c-24 27.429-60 43.429-96.571 43.429h-95.429c-32 0-62.857-14.286-83.429-38.286l-119.429-138.857c-21.143-25.143-21.143-60.571-0.571-85.714 32.571-38.857 92.571-39.429 126.286-1.714l110.286 124.571c26.286 29.143 74.286 1.714 62.286-35.429 21.714-25.143 45.143-49.714 66.286-74.857 28.571-35.429 56-72.571 84-108.571 17.714-22.857 30.857-50.286 34.286-80zM1206.857 292.571c48 0 48 73.143 0 73.143s-48-73.143 0-73.143zM1316.571 621.714v-365.714c0-20-16.571-36.571-36.571-36.571h-248c-20.571-49.714-65.714-82.857-118.286-90.286-24.571-36-62.286-63.429-104.571-72.571-31.429-40-82.286-64-133.143-60.571-94.286-53.143-200.571-6.857-270.857 62.286l-164 161.143h-204.571c-20 0-36.571 16.571-36.571 36.571v384c0 20 16.571 36.571 36.571 36.571h240.571c66.286 66.286 112 128 211.429 128h66.857c37.143 0 73.143-11.429 103.429-32 30.286 20.571 66.286 32 103.429 32h95.429c108.571 0 153.714-70.857 219.429-146.286h202.857c20 0 36.571-16.571 36.571-36.571z" />
<glyph unicode="&#xe925;" glyph-name="question-circle" horiz-adv-x="878" d="M512 164.571v109.714c0 10.286-8 18.286-18.286 18.286h-109.714c-10.286 0-18.286-8-18.286-18.286v-109.714c0-10.286 8-18.286 18.286-18.286h109.714c10.286 0 18.286 8 18.286 18.286zM658.286 548.571c0 104.571-109.714 182.857-208 182.857-93.143 0-162.857-40-212-121.714-5.143-8-2.857-18.286 4.571-24l75.429-57.143c2.857-2.286 6.857-3.429 10.857-3.429 5.143 0 10.857 2.286 14.286 6.857 26.857 34.286 38.286 44.571 49.143 52.571 9.714 6.857 28.571 13.714 49.143 13.714 36.571 0 70.286-23.429 70.286-48.571 0-29.714-15.429-44.571-50.286-60.571-40.571-18.286-96-65.714-96-121.143v-20.571c0-10.286 8-18.286 18.286-18.286h109.714c10.286 0 18.286 8 18.286 18.286v0c0 13.143 16.571 41.143 43.429 56.571 43.429 24.571 102.857 57.714 102.857 144.571zM877.714 438.857c0-242.286-196.571-438.857-438.857-438.857s-438.857 196.571-438.857 438.857 196.571 438.857 438.857 438.857 438.857-196.571 438.857-438.857z" />
<glyph unicode="&#xe926;" glyph-name="lock" horiz-adv-x="658" d="M182.857 512h292.571v109.714c0 80.571-65.714 146.286-146.286 146.286s-146.286-65.714-146.286-146.286v-109.714zM658.286 457.143v-329.143c0-30.286-24.571-54.857-54.857-54.857h-548.571c-30.286 0-54.857 24.571-54.857 54.857v329.143c0 30.286 24.571 54.857 54.857 54.857h18.286v109.714c0 140.571 115.429 256 256 256s256-115.429 256-256v-109.714h18.286c30.286 0 54.857-24.571 54.857-54.857z" />
<glyph unicode="&#xe927;" glyph-name="flask" horiz-adv-x="951" d="M872.571 123.428c42.857-68 12.571-123.429-68-123.429h-658.286c-80.571 0-110.857 55.429-68 123.429l287.429 453.143v228h-36.571c-20 0-36.571 16.571-36.571 36.571s16.571 36.571 36.571 36.571h292.571c20 0 36.571-16.571 36.571-36.571s-16.571-36.571-36.571-36.571h-36.571v-228zM427.429 537.714l-155.429-245.143h406.857l-155.429 245.143-11.429 17.714v249.143h-73.143v-249.143z" />
<glyph unicode="&#xe928;" glyph-name="clock" horiz-adv-x="878" d="M512 640v-256c0-10.286-8-18.286-18.286-18.286h-182.857c-10.286 0-18.286 8-18.286 18.286v36.571c0 10.286 8 18.286 18.286 18.286h128v201.143c0 10.286 8 18.286 18.286 18.286h36.571c10.286 0 18.286-8 18.286-18.286zM749.714 438.857c0 171.429-139.429 310.857-310.857 310.857s-310.857-139.429-310.857-310.857 139.429-310.857 310.857-310.857 310.857 139.429 310.857 310.857zM877.714 438.857c0-242.286-196.571-438.857-438.857-438.857s-438.857 196.571-438.857 438.857 196.571 438.857 438.857 438.857 438.857-196.571 438.857-438.857z" />
<glyph unicode="&#xe929;" glyph-name="clipboard" d="M438.857 0h512v365.714h-237.714c-30.286 0-54.857 24.571-54.857 54.857v237.714h-219.429v-658.286zM585.143 822.857v36.571c0 9.714-8.571 18.286-18.286 18.286h-402.286c-9.714 0-18.286-8.571-18.286-18.286v-36.571c0-9.714 8.571-18.286 18.286-18.286h402.286c9.714 0 18.286 8.571 18.286 18.286zM731.429 438.857h170.857l-170.857 170.857v-170.857zM1024 365.714v-384c0-30.286-24.571-54.857-54.857-54.857h-548.571c-30.286 0-54.857 24.571-54.857 54.857v91.429h-310.857c-30.286 0-54.857 24.571-54.857 54.857v768c0 30.286 24.571 54.857 54.857 54.857h621.714c30.286 0 54.857-24.571 54.857-54.857v-187.429c7.429-4.571 14.286-9.714 20.571-16l233.143-233.143c21.714-21.714 38.857-63.429 38.857-93.714z" />
<glyph unicode="&#xe92a;" glyph-name="bullhorn" d="M950.857 585.143c40.571 0 73.143-32.571 73.143-73.143s-32.571-73.143-73.143-73.143v-219.429c0-40-33.143-73.143-73.143-73.143-101.714 84.571-265.714 200.571-464 217.143-68-22.857-91.429-102.286-46.857-148-40-65.714 11.429-112 72-159.429-35.429-69.714-182.857-70.857-235.429-22.286-33.143 101.714-82.286 203.429-42.286 332h-69.714c-50.286 0-91.429 41.143-91.429 91.429v109.714c0 50.286 41.143 91.429 91.429 91.429h274.286c219.429 0 402.286 128 512 219.429 40 0 73.143-33.143 73.143-73.143v-219.429zM877.714 240v545.143c-149.143-114.286-293.714-180-438.857-196v-154.286c145.143-16 289.714-80.571 438.857-194.857z" />
<glyph unicode="&#xe92b;" glyph-name="desktop" horiz-adv-x="1097" d="M1024 384v475.429c0 9.714-8.571 18.286-18.286 18.286h-914.286c-9.714 0-18.286-8.571-18.286-18.286v-475.429c0-9.714 8.571-18.286 18.286-18.286h914.286c9.714 0 18.286 8.571 18.286 18.286zM1097.143 859.428v-621.714c0-50.286-41.143-91.429-91.429-91.429h-310.857c0-48.571 36.571-89.714 36.571-109.714s-16.571-36.571-36.571-36.571h-292.571c-20 0-36.571 16.571-36.571 36.571 0 21.143 36.571 60 36.571 109.714h-310.857c-50.286 0-91.429 41.143-91.429 91.429v621.714c0 50.286 41.143 91.429 91.429 91.429h914.286c50.286 0 91.429-41.143 91.429-91.429z" />
<glyph unicode="&#xe92c;" glyph-name="dashboard, tachometer" d="M219.429 292.571c0 40.571-32.571 73.143-73.143 73.143s-73.143-32.571-73.143-73.143 32.571-73.143 73.143-73.143 73.143 32.571 73.143 73.143zM329.143 548.571c0 40.571-32.571 73.143-73.143 73.143s-73.143-32.571-73.143-73.143 32.571-73.143 73.143-73.143 73.143 32.571 73.143 73.143zM573.714 273.714l57.714 218.286c4.571 19.429-6.857 39.429-26.286 44.571v0c-19.429 5.143-39.429-6.857-44.571-26.286l-57.714-218.286c-45.143-3.429-84.571-34.857-97.143-81.143-15.429-58.857 20-118.857 78.286-134.286 58.857-15.429 118.857 20 134.286 78.286 12 46.286-7.429 93.143-44.571 118.857zM950.857 292.571c0 40.571-32.571 73.143-73.143 73.143s-73.143-32.571-73.143-73.143 32.571-73.143 73.143-73.143 73.143 32.571 73.143 73.143zM585.143 658.286c0 40.571-32.571 73.143-73.143 73.143s-73.143-32.571-73.143-73.143 32.571-73.143 73.143-73.143 73.143 32.571 73.143 73.143zM841.143 548.571c0 40.571-32.571 73.143-73.143 73.143s-73.143-32.571-73.143-73.143 32.571-73.143 73.143-73.143 73.143 32.571 73.143 73.143zM1024 292.571c0-98.286-28-193.143-80.571-276-6.857-10.286-18.286-16.571-30.857-16.571h-801.143c-12.571 0-24 6.286-30.857 16.571-52.571 82.286-80.571 177.714-80.571 276 0 282.286 229.714 512 512 512s512-229.714 512-512z" />
<glyph unicode="&#xe92d;" glyph-name="phone-square" horiz-adv-x="878" d="M731.429 269.143c0 2.857 0 6.286-1.143 9.143-3.429 10.286-86.857 52.571-102.857 61.714-10.857 6.286-24 18.857-37.143 18.857-25.143 0-62.286-74.857-84.571-74.857-11.429 0-25.714 10.286-36 16-75.429 42.286-127.429 94.286-169.714 169.714-5.714 10.286-16 24.571-16 36 0 22.286 74.857 59.429 74.857 84.571 0 13.143-12.571 26.286-18.857 37.143-9.143 16-51.429 99.429-61.714 102.857-2.857 1.143-6.286 1.143-9.143 1.143-14.857 0-44-6.857-57.714-12.571-37.714-17.143-65.143-89.143-65.143-128.571 0-38.286 15.429-73.143 28.571-108.571 45.714-125.143 181.714-261.143 306.857-306.857 35.429-13.143 70.286-28.571 108.571-28.571 39.429 0 111.429 27.429 128.571 65.143 5.714 13.714 12.571 42.857 12.571 57.714zM877.714 713.143v-548.571c0-90.857-73.714-164.571-164.571-164.571h-548.571c-90.857 0-164.571 73.714-164.571 164.571v548.571c0 90.857 73.714 164.571 164.571 164.571h548.571c90.857 0 164.571-73.714 164.571-164.571z" />
<glyph unicode="&#xe92e;" glyph-name="phone" horiz-adv-x="805" d="M804.571 242.286c0-20.571-9.143-60.571-17.714-79.429-12-28-44-46.286-69.714-60.571-33.714-18.286-68-29.143-106.286-29.143-53.143 0-101.143 21.714-149.714 39.429-34.857 12.571-68.571 28-100 47.429-97.143 60-214.286 177.143-274.286 274.286-19.429 31.429-34.857 65.143-47.429 100-17.714 48.571-39.429 96.571-39.429 149.714 0 38.286 10.857 72.571 29.143 106.286 14.286 25.714 32.571 57.714 60.571 69.714 18.857 8.571 58.857 17.714 79.429 17.714 4 0 8 0 12-1.714 12-4 24.571-32 30.286-43.429 18.286-32.571 36-65.714 54.857-97.714 9.143-14.857 26.286-33.143 26.286-50.857 0-34.857-103.429-85.714-103.429-116.571 0-15.429 14.286-35.429 22.286-49.143 57.714-104 129.714-176 233.714-233.714 13.714-8 33.714-22.286 49.143-22.286 30.857 0 81.714 103.429 116.571 103.429 17.714 0 36-17.143 50.857-26.286 32-18.857 65.143-36.571 97.714-54.857 11.429-5.714 39.429-18.286 43.429-30.286 1.714-4 1.714-8 1.714-12z" />
<glyph unicode="&#xe92f;" glyph-name="ticket" d="M585.143 692.571l180.571-180.571-326.857-326.857-180.571 180.571zM464.571 133.143l353.143 353.143c14.286 14.286 14.286 37.143 0 51.429l-206.857 206.857c-13.714 13.714-37.714 13.714-51.429 0l-353.143-353.143c-14.286-14.286-14.286-37.143 0-51.429l206.857-206.857c6.857-6.857 16-10.286 25.714-10.286s18.857 3.429 25.714 10.286zM972.571 497.143l-518.286-518.857c-28.571-28-75.429-28-103.429 0l-72 72c42.857 42.857 42.857 112.571 0 155.429s-112.571 42.857-155.429 0l-71.429 72c-28.571 28-28.571 74.857 0 103.429l518.286 517.714c28 28.571 74.857 28.571 103.429 0l71.429-71.429c-42.857-42.857-42.857-112.571 0-155.429s112.571-42.857 155.429 0l72-71.429c28-28.571 28-75.429 0-103.429z" />
<glyph unicode="&#xe930;" glyph-name="search" horiz-adv-x="951" d="M658.286 475.428c0 141.143-114.857 256-256 256s-256-114.857-256-256 114.857-256 256-256 256 114.857 256 256zM950.857 0c0-40-33.143-73.143-73.143-73.143-19.429 0-38.286 8-51.429 21.714l-196 195.429c-66.857-46.286-146.857-70.857-228-70.857-222.286 0-402.286 180-402.286 402.286s180 402.286 402.286 402.286 402.286-180 402.286-402.286c0-81.143-24.571-161.143-70.857-228l196-196c13.143-13.143 21.143-32 21.143-51.429z" />
<glyph unicode="&#xe931;" glyph-name="pencil" horiz-adv-x="866" d="M207.429 73.143l52 52-134.286 134.286-52-52v-61.143h73.143v-73.143h61.143zM506.286 603.428c0 7.429-5.143 12.571-12.571 12.571-3.429 0-6.857-1.143-9.714-4l-309.714-309.714c-2.857-2.857-4-6.286-4-9.714 0-7.429 5.143-12.571 12.571-12.571 3.429 0 6.857 1.143 9.714 4l309.714 309.714c2.857 2.857 4 6.286 4 9.714zM475.429 713.143l237.714-237.714-475.429-475.429h-237.714v237.714zM865.714 658.286c0-19.429-8-38.286-21.143-51.429l-94.857-94.857-237.714 237.714 94.857 94.286c13.143 13.714 32 21.714 51.429 21.714s38.286-8 52-21.714l134.286-133.714c13.143-13.714 21.143-32.571 21.143-52z" />
<glyph unicode="&#xe932;" glyph-name="money" horiz-adv-x="1097" d="M438.857 292.571h219.429v54.857h-73.143v256h-65.143l-84.571-78.286 44-45.714c13.714 12 22.286 18.286 31.429 32.571h1.143v-164.571h-73.143v-54.857zM731.429 438.857c0-104-62.857-237.714-182.857-237.714s-182.857 133.714-182.857 237.714 62.857 237.714 182.857 237.714 182.857-133.714 182.857-237.714zM1024 292.571v292.571c-80.571 0-146.286 65.714-146.286 146.286h-658.286c0-80.571-65.714-146.286-146.286-146.286v-292.571c80.571 0 146.286-65.714 146.286-146.286h658.286c0 80.571 65.714 146.286 146.286 146.286zM1097.143 768v-658.286c0-20-16.571-36.571-36.571-36.571h-1024c-20 0-36.571 16.571-36.571 36.571v658.286c0 20 16.571 36.571 36.571 36.571h1024c20 0 36.571-16.571 36.571-36.571z" />
<glyph unicode="&#xe933;" glyph-name="envelope" d="M1024 545.143v-453.714c0-50.286-41.143-91.429-91.429-91.429h-841.143c-50.286 0-91.429 41.143-91.429 91.429v453.714c17.143-18.857 36.571-35.429 57.714-49.714 94.857-64.571 190.857-129.143 284-197.143 48-35.429 107.429-78.857 169.714-78.857h1.143c62.286 0 121.714 43.429 169.714 78.857 93.143 67.429 189.143 132.571 284.571 197.143 20.571 14.286 40 30.857 57.143 49.714zM1024 713.143c0-64-47.429-121.714-97.714-156.571-89.143-61.714-178.857-123.429-267.429-185.714-37.143-25.714-100-78.286-146.286-78.286h-1.143c-46.286 0-109.143 52.571-146.286 78.286-88.571 62.286-178.286 124-266.857 185.714-40.571 27.429-98.286 92-98.286 144 0 56 30.286 104 91.429 104h841.143c49.714 0 91.429-41.143 91.429-91.429z" />
<glyph unicode="&#xe934;" glyph-name="laptop" horiz-adv-x="1097" d="M237.714 219.428c-50.286 0-91.429 41.143-91.429 91.429v402.286c0 50.286 41.143 91.429 91.429 91.429h621.714c50.286 0 91.429-41.143 91.429-91.429v-402.286c0-50.286-41.143-91.429-91.429-91.429h-621.714zM219.429 713.143v-402.286c0-9.714 8.571-18.286 18.286-18.286h621.714c9.714 0 18.286 8.571 18.286 18.286v402.286c0 9.714-8.571 18.286-18.286 18.286h-621.714c-9.714 0-18.286-8.571-18.286-18.286zM1005.714 182.857h91.429v-54.857c0-30.286-41.143-54.857-91.429-54.857h-914.286c-50.286 0-91.429 24.571-91.429 54.857v54.857h1005.714zM594.286 128c5.143 0 9.143 4 9.143 9.143s-4 9.143-9.143 9.143h-91.429c-5.143 0-9.143-4-9.143-9.143s4-9.143 9.143-9.143h91.429z" />
<glyph unicode="&#xe935;" glyph-name="briefcase" d="M365.714 804.571h292.571v73.143h-292.571v-73.143zM1024 438.857v-274.286c0-50.286-41.143-91.429-91.429-91.429h-841.143c-50.286 0-91.429 41.143-91.429 91.429v274.286h384v-91.429c0-20 16.571-36.571 36.571-36.571h182.857c20 0 36.571 16.571 36.571 36.571v91.429h384zM585.143 438.857v-73.143h-146.286v73.143h146.286zM1024 713.143v-219.429h-1024v219.429c0 50.286 41.143 91.429 91.429 91.429h201.143v91.429c0 30.286 24.571 54.857 54.857 54.857h329.143c30.286 0 54.857-24.571 54.857-54.857v-91.429h201.143c50.286 0 91.429-41.143 91.429-91.429z" />
</font>
</defs>
</svg>
