<!-- Generated by IcoMoon.io -->
<svg version="1.1" xmlns="http://www.w3.org/2000/svg" width="32" height="32" viewBox="0 0 32 32">
<path d="M20.95 4.504c-0.107 0.371-0.208 0.761-0.319 1.132-0.627-0.001-1.253 0.188-1.787 0.509-0.303-0.233-0.555-0.692-0.883-0.823-0.61 0.461-1.191 1.013-1.561 1.689 0.204 0.374 0.544 0.647 0.828 0.953-0.014 0.305-0.232 0.67-0.245 1.016-0.017 0.184-0.058 0.362-0.088 0.544l-0.392 0.019-0.368 0.123-0.225 0.106-0.221 0.113c0.045 0.785 0.261 1.581 0.656 2.244 0.382-0.109 0.795-0.067 1.157-0.244 0.289 0.312 0.547 0.764 0.931 1.023 0.119 0.101 0.318 0.163 0.177 0.341-0.122 0.292-0.108 0.617-0.159 0.926 0.704 0.359 1.502 0.581 2.285 0.568 0.152-0.272 0.275-0.561 0.338-0.867 0.009-0.064-0.016-0.156 0.009-0.207 0.507-0.073 0.998-0.254 1.45-0.495 0.147-0.040 0.224 0.222 0.342 0.309 0.148 0.21 0.393 0.345 0.581 0.492 0.668-0.405 1.235-0.987 1.654-1.661-0.293-0.453-0.575-0.569-0.575-0.569h0.006c-0.256-0.146-0.445-0.3-0.312-0.492l0.192-0.277 0.123-0.313 0.085-0.331 0.074-0.333c0.091-0.408 0.236-0.384 0.576-0.63 0.088-0.093 0.566-0.154 0.574-0.298-0.079-0.591-0.232-1.191-0.524-1.705-0.29-0.093-0.739 0.195-1.064 0.212-0.395 0.226-0.447-0.199-0.641-0.466-0.26-0.291-0.542-0.559-0.837-0.813 0.121-0.401 0.242-0.801 0.364-1.202-0.669-0.343-1.41-0.578-2.163-0.569l-0.037-0.022zM19.399 4.686c-0.038 0.014 0.031-0.004 0 0zM19.351 4.703c-0.159 0.050 0.041-0.014 0 0zM19.277 4.727l-0.019 0.006zM20.804 7.971c0.983-0.036 1.891 0.902 1.758 1.917-0.085 1.090-1.289 1.829-2.284 1.486-0.918-0.246-1.501-1.352-1.135-2.261 0.248-0.689 0.948-1.152 1.661-1.142z"></path>
<path d="M29.861 6.195l-0 0.013zM29.861 6.208c-0.139 0.131-0.281 0.272-0.422 0.402-0.255-0.151-0.559-0.222-0.859-0.215-0.063-0.172-0.047-0.426-0.147-0.561-0.367 0.048-0.747 0.142-1.072 0.339-0.014 0.207 0.054 0.405 0.091 0.603-0.085 0.126-0.268 0.227-0.362 0.371-0.054 0.074-0.117 0.139-0.176 0.209-0.11-0.057-0.214-0.131-0.346-0.122-0.078-0.009-0.159-0.010-0.238-0.014-0.184 0.343-0.302 0.732-0.313 1.107 0.183 0.046 0.341 0.163 0.534 0.176 0.037 0.202 0.026 0.455 0.116 0.657 0.022 0.071 0.087 0.145-0.017 0.187-0.125 0.094-0.203 0.235-0.304 0.354 0.194 0.322 0.462 0.607 0.784 0.791 0.132-0.078 0.256-0.172 0.361-0.285 0.020-0.025 0.034-0.070 0.057-0.085 0.225 0.091 0.472 0.133 0.719 0.14 0.070 0.019 0.035 0.148 0.060 0.213 0.006 0.124 0.071 0.241 0.109 0.348 0.409-0.012 0.824-0.139 1.19-0.352-0.058-0.205-0.114-0.41-0.172-0.614 0.215-0.067 0.362-0.259 0.517-0.417 0.189 0.052 0.383 0.101 0.585 0.079 0.060-0.018 0.083-0.136 0.123-0.195 0.12-0.269 0.213-0.56 0.227-0.848-0.094-0.109-0.305-0.126-0.442-0.196-0.219 0.001-0.177-0.162-0.187-0.322-0.031-0.186-0.077-0.367-0.131-0.545 0.153-0.14 0.305-0.281 0.459-0.421-0.184-0.306-0.425-0.584-0.734-0.762l-0.010-0.018zM29.182 5.911c-0.019-0.003 0.014 0.006 0 0zM29.158 5.907c-0.078-0.017 0.020 0.004 0 0zM29.122 5.899l-0.009-0.002zM28.906 7.64c0.41 0.222 0.537 0.837 0.221 1.235-0.316 0.441-0.997 0.463-1.314 0.078-0.31-0.325-0.262-0.933 0.121-1.23 0.279-0.232 0.684-0.259 0.971-0.083z"></path>
<path d="M25.663 12.353l0.012 0.007zM25.675 12.359c0.054 0.187 0.114 0.38 0.166 0.568-0.264 0.143-0.476 0.368-0.615 0.63-0.189-0.033-0.417-0.176-0.589-0.158-0.134 0.341-0.232 0.715-0.208 1.095 0.185 0.117 0.4 0.159 0.601 0.228 0.075 0.137 0.080 0.346 0.166 0.5 0.042 0.084 0.072 0.172 0.108 0.258-0.106 0.065-0.225 0.118-0.281 0.236-0.047 0.063-0.086 0.131-0.129 0.197 0.227 0.333 0.529 0.632 0.87 0.832 0.131-0.135 0.316-0.211 0.422-0.37 0.204 0.070 0.432 0.209 0.662 0.234 0.077 0.017 0.176-0.001 0.164 0.109 0.026 0.156 0.118 0.295 0.179 0.442 0.391-0.004 0.785-0.089 1.11-0.273-0.008-0.154-0.034-0.308-0.088-0.456-0.014-0.030-0.048-0.065-0.051-0.093 0.193-0.148 0.352-0.339 0.478-0.548 0.051-0.051 0.153 0.045 0.226 0.057 0.118 0.058 0.256 0.061 0.374 0.083 0.188-0.358 0.272-0.78 0.253-1.203-0.217-0.054-0.433-0.11-0.65-0.164 0.042-0.219-0.063-0.443-0.134-0.657 0.14-0.136 0.28-0.278 0.357-0.464 0.012-0.061-0.085-0.14-0.121-0.205-0.19-0.241-0.413-0.468-0.672-0.626-0.146 0.026-0.264 0.198-0.396 0.281-0.106 0.189-0.235 0.070-0.388-0.002-0.186-0.068-0.376-0.121-0.567-0.165-0.055-0.203-0.111-0.406-0.166-0.609-0.372 0.002-0.745 0.068-1.059 0.244l-0.022-0.001zM25.072 12.793c-0.012 0.015 0.012-0.009 0 0zM25.056 12.811c-0.054 0.058 0.014-0.015 0 0zM25.032 12.839l-0.006 0.007zM26.533 13.909c0.403-0.24 1.033-0.037 1.247 0.438 0.254 0.496-0.057 1.094-0.566 1.171-0.451 0.102-0.989-0.249-1.076-0.73-0.078-0.358 0.093-0.72 0.395-0.879z"></path>
<path d="M15.539 7.609c-0.057-0.002-0.114 0.002-0.168 0.014-0.738-0.010-1.557-0.001-2.326-0.004-2.544 0-5.088-0-7.631 0-0.806 0.059-1.416 0.773-1.657 1.513-0.231 1.365-0.157 2.762-0.196 4.143 0.011 3.174 0.029 6.348 0.042 9.522h2.63c0.022-4.178 0.042-8.356 0.064-12.534 2.799-0.026 5.598-0.056 8.396-0.084l0.114-0.024c0.041-0.121 0.103-0.246 0.188-0.361 0.091-0.312 0.402-0.827 1.411-1.367-0.004-0.011-0.006-0.020-0.011-0.032-0.040-0.453-0.461-0.773-0.857-0.785z"></path>
<path d="M25.916 17.383c-0.011 0-0.021 0.001-0.032 0.001h-0.001l-0.182 0.084c-0.11 0.106-0.134 0.273-0.134 0.273v4.783l0.007 0.333h2.689l-0.032-4.249c0 0 0.065-1.002-0.108-1.158-0.718 0.867-1.565 0.404-1.565 0.404l0.037-0.010c-0.242-0.076-0.428-0.304-0.516-0.432-0.061-0.020-0.116-0.030-0.163-0.029z"></path>
<path d="M30.787 24.237c-0.017-0-0.040 0.001-0.060 0.001s-0.045 0.001-0.077 0.001c-0.031 0.001-0.092-0-0.115 0h-0.198l-0.2 0.001h-0.671c-0.095 0-0.194-0-0.298 0s-0.213 0.001-0.326 0.001c-0.113 0-0.229-0-0.351 0s-0.246-0-0.375 0c-0.129 0-0.262 0.001-0.399 0.001s-0.277-0-0.42 0-0.29-0-0.441 0c-0.15 0-0.305 0.001-0.461 0.001h-0.977c-0.169 0-0.34 0.001-0.515 0.001s-0.352-0-0.531 0c-0.18 0-0.362 0.001-0.546 0.001h-0.56c-0.189 0-0.379 0.001-0.572 0.001s-0.388-0-0.584 0h-0.594c-0.2 0-0.402 0.001-0.605 0.001s-0.407-0-0.613 0-0.413 0.001-0.622 0.001c-0.208 0-0.418-0-0.628 0s-0.422 0.001-0.634 0.001c-0.212 0-0.425-0-0.638 0l-0.643 0.001h-0.643l-0.648 0.001h-0.646l-1.934 0.003c-0.213 0-0.426 0.001-0.638 0.001s-0.425-0-0.635 0-0.42 0.001-0.628 0.001c-0.209 0-0.415-0-0.622 0s-0.411 0.001-0.615 0.001c-0.203 0-0.406-0-0.606 0s-0.4-0-0.597 0c-0.197 0-0.391 0.001-0.584 0.001s-0.386-0-0.575 0c-0.189 0-0.375 0.001-0.56 0.001h-0.548c-0.18 0-0.357-0-0.533 0s-0.348 0.001-0.517 0.001c-0.17 0-0.336-0-0.5 0s-0.324 0.001-0.482 0.001c-0.157 0-0.311-0-0.463 0s-0.299-0-0.443 0c-0.144 0-0.281-0-0.413 0s-0.26 0.001-0.386 0.001c-0.126 0-0.25-0-0.375 0s-0.267-0-0.379 0c-0.113 0-0.193-0-0.289 0s-0.193-0-0.289 0c-0.096 0-0.191-0-0.287 0s-0.241 0-0.289 0h-0.063c-0.001 0-0.003 0-0.004 0s-0.002 0-0.003 0h-0.009l-0.001 0.001h-0.009v-0.001h-0.003v-0.001h-0.027v-0.001h-0.112v-0.001h-0.006l-0.001-0.001h-0.004v-0.001h-0.006v-0.001h-0.006l-0.001-0.001h-0.008v0.001h-0.003v0.001h-0.001v0.001h-0.001v0.004h-0.001v0.006h-0.001v0.006h-0.001v0.001h-0.001v-0.001h-0.003v-0.001h-0.001v-0.001h-0.001l-0.001-0.001h-0.001v-0.001h-0.003v-0.001h-0.001v-0.001h-0.004v0.004c-0 0.001 0 0.003 0 0.004s-0.001 0.003-0.001 0.004c-0 0.001-0.001 0.003-0.001 0.004s0 0.002 0 0.004-0.001 0.005-0.001 0.007c-0.001 0.002-0.001 0.004-0.001 0.006s-0.001 0.005-0.001 0.007c-0.001 0.002-0.001 0.004-0.001 0.007s-0.001 0.005-0.001 0.008-0.001 0.007-0.001 0.010c-0.001 0.003-0.001 0.005-0.001 0.008s-0.001 0.006-0.001 0.010c-0.001 0.004-0.001 0.007-0.001 0.011s-0.002 0.007-0.003 0.011-0.001 0.007-0.001 0.011c-0.001 0.004-0.001 0.007-0.001 0.011s-0.001 0.009-0.001 0.014c-0.001 0.004-0.002 0.009-0.003 0.014s-0.001 0.008-0.001 0.012-0.001 0.009-0.001 0.014-0.001 0.010-0.001 0.015-0.002 0.010-0.003 0.015c-0.001 0.005-0.001 0.010-0.001 0.015s-0.001 0.010-0.001 0.015c-0.001 0.005-0.002 0.012-0.003 0.018s-0.001 0.011-0.001 0.017c-0.001 0.006-0.001 0.012-0.001 0.018s-0.001 0.011-0.001 0.017c-0.001 0.006-0.001 0.013-0.001 0.019s-0.001 0.012-0.001 0.018c-0.001 0.006-0.001 0.013-0.001 0.019s-0.001 0.013-0.001 0.019c-0.001 0.007-0.001 0.014-0.001 0.021s-0.001 0.014-0.001 0.021c-0.001 0.007-0.001 0.014-0.001 0.021s-0.001 0.012-0.001 0.019c-0 0.007 0 0.015 0 0.022s-0.001 0.015-0.001 0.022c-0 0.007 0 0.015 0 0.022s-0.001 0.015-0.001 0.022c-0 0.008 0 0.016 0 0.024s0 0.016 0 0.024c-0 0.008 0 0.016 0 0.024s-0 0.016 0 0.024c0 0.008-0 0.017 0 0.025s-0 0.017 0 0.025c0 0.008 0.001 0.015 0.001 0.024s-0 0.017 0 0.025c0 0.009 0.001 0.018 0.001 0.027s0.001 0.017 0.001 0.025c0.001 0.009-0.001 0.018 0 0.027s0.002 0.018 0.003 0.027c0.001 0.009 0.001 0.018 0.001 0.027s0.001 0.018 0.001 0.027c0.001 0.009 0.002 0.019 0.003 0.028s0.001 0.017 0.001 0.027c0.001 0.009 0.002 0.019 0.003 0.028s0.003 0.019 0.004 0.028c0.001 0.009 0.002 0.017 0.003 0.027s0.002 0.022 0.003 0.028c0.001 0.006 0.001 0.007 0.001 0.010s-0 0.005 0 0.008c0 0.003-0 0.005 0 0.008s0.001 0.005 0.001 0.008c0 0.003-0 0.005 0 0.008s0.001 0.007 0.001 0.010-0 0.005 0 0.008c0 0.003 0.001 0.005 0.001 0.008s-0 0.006 0 0.008 0.001 0.006 0.001 0.008c0 0.003-0 0.007 0 0.010s0.001 0.006 0.001 0.008-0 0.006 0 0.008c0 0.003 0.001 0.006 0.001 0.008s-0 0.006 0 0.008c0 0.003 0.001 0.006 0.001 0.008s-0 0.006 0 0.008c0 0.003 0.001 0.006 0.001 0.008s0.001 0.006 0.001 0.008c0 0.003-0 0.007 0 0.010s0.001 0.006 0.001 0.008-0 0.006 0 0.008c0 0.003 0.001 0.006 0.001 0.008s-0 0.006 0 0.008c0 0.003 0.001 0.004 0.001 0.007s0.001 0.006 0.001 0.008c0 0.003-0 0.006 0 0.008s0.001 0.006 0.001 0.008 0.001 0.006 0.001 0.008-0 0.006 0 0.008 0.001 0.006 0.001 0.008c0 0.003-0 0.004 0 0.007s0.001 0.006 0.001 0.008c0 0.003 0.001 0.006 0.001 0.008s0.001 0.004 0.001 0.007c0 0.003-0 0.006 0 0.008s0.001 0.004 0.001 0.007c0 0.003 0.001 0.006 0.001 0.008s-0 0.004 0 0.007c0 0.003 0.001 0.006 0.001 0.008s0.001 0.004 0.001 0.007 0.001 0.006 0.001 0.008c0 0.002-0 0.004 0 0.007s0.001 0.004 0.001 0.007c0 0.002 0.001 0.005 0.001 0.007s0.001 0.006 0.001 0.008c0 0.002-0 0.005 0 0.007s0.001 0.005 0.001 0.007c0.001 0.002 0.001 0.005 0.001 0.007s0.001 0.005 0.001 0.007c0.001 0.002 0.001 0.005 0.001 0.007s-0.001 0.003 0 0.006c0.001 0.002 0.001 0.005 0.001 0.007s0.001 0.005 0.001 0.007c0.001 0.002 0.001 0.005 0.001 0.007s0.001 0.004 0.001 0.006 0.001 0.005 0.001 0.007c0.001 0.002 0.001 0.004 0.001 0.006s-0.001 0.005 0 0.007c0.001 0.002 0.001 0.004 0.001 0.006s0.001 0.004 0.001 0.006c0.001 0.002 0.001 0.004 0.001 0.006s0.001 0.004 0.001 0.006c0.001 0.002 0.001 0.005 0.001 0.007s0.001 0.004 0.001 0.007c0.001 0.003 0.002 0.006 0.003 0.008s0.001 0.006 0.001 0.008c0.001 0.003 0.002 0.006 0.003 0.008s0.001 0.004 0.001 0.007c0.001 0.003 0.001 0.006 0.001 0.008s0.002 0.004 0.003 0.007c0.001 0.003 0.001 0.006 0.001 0.008s0.002 0.004 0.003 0.007c0.001 0.002 0.001 0.004 0.001 0.007s0.002 0.004 0.003 0.007c0.001 0.002 0.001 0.006 0.001 0.008s0.002 0.005 0.003 0.007c0.001 0.002 0.002 0.005 0.003 0.007s0.001 0.005 0.001 0.007 0.002 0.005 0.003 0.007c0.001 0.002 0.001 0.005 0.001 0.007s0.002 0.005 0.003 0.007c0.001 0.002 0.002 0.003 0.003 0.006s0.001 0.005 0.001 0.007 0.002 0.005 0.003 0.007c0.001 0.002 0.001 0.005 0.001 0.007s0.002 0.004 0.003 0.006 0.002 0.005 0.003 0.007 0.002 0.004 0.003 0.006c0.001 0.002 0.001 0.005 0.001 0.007s0.002 0.004 0.003 0.006c0.001 0.002 0.002 0.005 0.003 0.007s0.001 0.004 0.001 0.006c0.001 0.002 0.002 0.004 0.003 0.006s0.002 0.004 0.003 0.006c0.001 0.002 0.002 0.005 0.003 0.007s0.002 0.004 0.003 0.006c0.001 0.002 0.001 0.004 0.001 0.006s0.002 0.004 0.003 0.006c0.001 0.002 0.002 0.004 0.003 0.006s0.002 0.004 0.003 0.006c0.001 0.002 0.002 0.004 0.003 0.006s0.002 0.004 0.003 0.006c0.001 0.002 0.001 0.004 0.001 0.006s0.002 0.002 0.003 0.004c0.001 0.002 0.002 0.004 0.003 0.006s0.002 0.004 0.003 0.006c0.001 0.002 0.002 0.004 0.003 0.006s0.002 0.002 0.003 0.004c0.001 0.002 0.002 0.004 0.003 0.006s0.002 0.004 0.003 0.006c0.001 0.002 0.002 0.003 0.003 0.004s0.002 0.004 0.003 0.006c0.001 0.002 0.002 0.003 0.003 0.004s0.002 0.004 0.003 0.006c0.001 0.002 0.002 0.003 0.003 0.004s0.002 0.003 0.003 0.004 0.002 0.004 0.003 0.006c0.001 0.002 0.002 0.003 0.003 0.004s0.002 0.003 0.003 0.004c0.001 0.002 0.002 0.004 0.003 0.006s0.002 0.003 0.003 0.004c0.001 0.002 0.002 0.003 0.003 0.004s0.002 0.003 0.003 0.004c0.001 0.001 0.002 0.004 0.003 0.006s0.002 0.003 0.003 0.004 0.002 0.003 0.003 0.004 0.002 0.003 0.003 0.004c0.001 0.001 0.001 0.002 0.001 0.003l0.004 0.004v0.001c0.001 0.001 0.001 0.002 0.001 0.003l0.004 0.004c0.001 0.001 0.001 0.002 0.001 0.003l0.004 0.004c0.001 0.001 0.001 0.002 0.001 0.003l0.003 0.003v0.001c0.001 0.001 0.001 0.002 0.001 0.003l0.004 0.004c0.001 0.001 0.001 0.002 0.001 0.003l0.006 0.006c0.001 0.001 0.001 0.002 0.001 0.003l0.003 0.003v0.001l0.004 0.004c0.001 0.001 0.001 0.002 0.001 0.003l0.007 0.007c0.001 0.001 0.001 0.002 0.001 0.003l0.007 0.007c0.001 0.001 0.001 0.002 0.001 0.003l0.003 0.003v0.001l0.006 0.006c0.001 0.001 0.001 0.002 0.001 0.003l0.008 0.009c-0-0.001 0-0.002 0-0.003l0.001 0.001c0.001 0.001 0.002 0.004 0.004 0.008s0.006 0.011 0.009 0.018 0.009 0.015 0.014 0.024 0.010 0.019 0.015 0.028 0.010 0.019 0.015 0.027c0.005 0.008 0.010 0.016 0.015 0.024s0.010 0.016 0.015 0.024c0.005 0.008 0.010 0.016 0.015 0.024s0.010 0.016 0.015 0.024c0.005 0.008 0.010 0.016 0.015 0.024s0.011 0.016 0.017 0.024c0.005 0.008 0.011 0.016 0.017 0.024s0.011 0.015 0.017 0.022 0.012 0.016 0.018 0.024c0.006 0.008 0.011 0.015 0.017 0.022s0.012 0.016 0.018 0.024c0.006 0.008 0.013 0.015 0.019 0.022s0.012 0.015 0.018 0.022 0.013 0.015 0.019 0.022c0.006 0.007 0.012 0.015 0.019 0.022s0.014 0.015 0.021 0.022c0.007 0.007 0.014 0.015 0.021 0.022s0.014 0.015 0.021 0.022c0.007 0.007 0.014 0.014 0.021 0.021s0.015 0.015 0.022 0.022 0.013 0.014 0.021 0.021c0.007 0.007 0.016 0.014 0.023 0.021s0.014 0.014 0.022 0.021c0.008 0.007 0.016 0.014 0.023 0.021s0.015 0.014 0.023 0.021c0.008 0.007 0.017 0.013 0.025 0.019s0.015 0.014 0.023 0.021c0.008 0.007 0.016 0.013 0.025 0.019s0.018 0.013 0.026 0.019 0.016 0.013 0.025 0.019c0.009 0.006 0.019 0.013 0.027 0.019s0.017 0.013 0.026 0.019c0.009 0.006 0.018 0.012 0.027 0.018s0.018 0.014 0.027 0.019 0.018 0.012 0.027 0.018c0.009 0.006 0.019 0.012 0.029 0.018s0.019 0.012 0.029 0.018c0.010 0.006 0.019 0.011 0.029 0.017s0.020 0.012 0.030 0.018c0.010 0.006 0.020 0.011 0.030 0.017s0.020 0.011 0.030 0.017c0.010 0.006 0.021 0.011 0.032 0.017s0.021 0.011 0.032 0.017 0.022 0.010 0.033 0.015c0.011 0.005 0.021 0.010 0.032 0.015s0.023 0.012 0.034 0.017c0.011 0.005 0.022 0.009 0.033 0.014s0.023 0.011 0.034 0.015 0.022 0.009 0.034 0.014c0.012 0.005 0.024 0.011 0.035 0.015s0.024 0.009 0.035 0.014c0.012 0.005 0.025 0.008 0.037 0.012s0.023 0.009 0.035 0.014c0.012 0.004 0.026 0.008 0.038 0.012s0.024 0.008 0.037 0.012c0.007 0.002 0.015 0.005 0.022 0.007h24.839c0.047-0.001 0.092-0.002 0.138-0.003s0.091-0.003 0.137-0.004c0.045-0.001 0.092-0.003 0.137-0.004s0.090-0.003 0.134-0.004c0.044-0.001 0.088-0.003 0.131-0.004s0.086-0.004 0.129-0.006c0.043-0.002 0.085-0.002 0.127-0.004s0.083-0.004 0.123-0.006c0.041-0.002 0.082-0.004 0.122-0.006s0.078-0.004 0.116-0.006c0.038-0.002 0.076-0.005 0.114-0.007s0.074-0.004 0.11-0.006c0.036-0.002 0.071-0.005 0.106-0.007s0.068-0.005 0.101-0.007c0.033-0.002 0.066-0.006 0.097-0.008s0.061-0.004 0.090-0.007c0.029-0.003 0.058-0.006 0.086-0.008s0.055-0.005 0.081-0.008c0.026-0.003 0.051-0.005 0.075-0.008s0.048-0.007 0.070-0.010c0.022-0.003 0.043-0.006 0.063-0.010s0.038-0.006 0.056-0.010 0.034-0.006 0.049-0.010 0.031-0.008 0.044-0.011 0.025-0.007 0.035-0.011c0.011-0.004 0.019-0.007 0.027-0.011s0.017-0.007 0.025-0.011c0.008-0.004 0.017-0.009 0.025-0.012s0.015-0.007 0.023-0.011c0.008-0.004 0.017-0.008 0.025-0.012s0.015-0.008 0.023-0.012 0.017-0.008 0.025-0.012c0.008-0.004 0.015-0.008 0.023-0.012s0.017-0.009 0.025-0.014 0.015-0.008 0.023-0.012c0.008-0.004 0.017-0.009 0.025-0.014s0.015-0.009 0.023-0.014c0.008-0.005 0.017-0.011 0.025-0.015s0.015-0.009 0.023-0.014c0.008-0.005 0.015-0.010 0.023-0.015s0.015-0.010 0.023-0.015c0.008-0.005 0.017-0.010 0.025-0.015s0.015-0.011 0.023-0.017c0.008-0.006 0.015-0.011 0.023-0.017s0.015-0.011 0.023-0.017c0.008-0.006 0.015-0.012 0.023-0.018s0.016-0.012 0.023-0.018c0.008-0.006 0.016-0.012 0.023-0.018s0.016-0.013 0.023-0.019c0.008-0.006 0.016-0.013 0.023-0.019s0.014-0.013 0.022-0.019c0.008-0.007 0.016-0.014 0.023-0.021s0.016-0.014 0.023-0.021 0.014-0.015 0.022-0.022c0.008-0.007 0.016-0.015 0.023-0.022s0.016-0.015 0.023-0.022c0.008-0.008 0.014-0.016 0.022-0.024s0.016-0.017 0.023-0.025c0.008-0.008 0.014-0.017 0.022-0.025s0.014-0.017 0.022-0.025c0.008-0.009 0.016-0.018 0.023-0.027s0.014-0.019 0.022-0.028c0.007-0.009 0.015-0.019 0.022-0.028s0.015-0.019 0.022-0.029c0.007-0.010 0.016-0.019 0.023-0.029s0.015-0.019 0.022-0.029 0.015-0.022 0.022-0.032c0.007-0.011 0.015-0.021 0.022-0.032s0.013-0.021 0.021-0.032c0.007-0.011 0.015-0.022 0.022-0.034s0.015-0.023 0.022-0.035c0.007-0.012 0.015-0.024 0.022-0.037s0.015-0.024 0.022-0.037c0.007-0.012 0.014-0.025 0.021-0.038s0.015-0.025 0.022-0.038c0.007-0.013 0.014-0.026 0.021-0.039s0.015-0.027 0.022-0.041c0.007-0.014 0.014-0.028 0.021-0.042s0.014-0.028 0.021-0.042c0.007-0.014 0.015-0.029 0.022-0.043s0.014-0.030 0.021-0.045 0.014-0.031 0.021-0.046 0.014-0.030 0.021-0.046 0.014-0.031 0.021-0.048 0.014-0.032 0.021-0.049c0.007-0.017 0.014-0.034 0.021-0.050s0.014-0.035 0.021-0.052c0.007-0.017 0.014-0.034 0.021-0.052s0.012-0.037 0.019-0.055c0.007-0.018 0.014-0.036 0.021-0.055s0.013-0.037 0.019-0.055c0.006-0.018 0.012-0.036 0.018-0.053s0.010-0.035 0.015-0.052c0.005-0.017 0.009-0.034 0.014-0.050s0.009-0.033 0.012-0.049 0.008-0.031 0.011-0.046c0.003-0.015 0.007-0.031 0.009-0.046s0.005-0.030 0.007-0.045 0.005-0.029 0.007-0.043 0.003-0.028 0.004-0.042c0.001-0.014 0.003-0.026 0.004-0.039s0.001-0.026 0.001-0.039 0.001-0.025 0.001-0.038-0.001-0.024-0.001-0.037-0.001-0.025-0.001-0.037c-0.001-0.012-0.002-0.022-0.003-0.034s-0.003-0.021-0.004-0.032c-0.001-0.011-0.002-0.022-0.004-0.032s-0.003-0.021-0.006-0.031c-0.002-0.010-0.004-0.020-0.007-0.029s-0.006-0.019-0.008-0.028-0.005-0.018-0.008-0.027-0.006-0.018-0.009-0.027-0.006-0.016-0.009-0.024-0.007-0.017-0.011-0.025c-0.004-0.008-0.007-0.015-0.011-0.022s-0.007-0.015-0.011-0.022c-0.004-0.007-0.009-0.014-0.014-0.021s-0.008-0.013-0.012-0.019c-0.004-0.006-0.009-0.012-0.014-0.018s-0.009-0.012-0.014-0.018-0.009-0.012-0.014-0.018-0.010-0.010-0.015-0.015-0.009-0.010-0.014-0.015-0.010-0.011-0.015-0.015-0.010-0.009-0.015-0.014c-0.005-0.004-0.011-0.008-0.017-0.012s-0.010-0.009-0.015-0.012c-0.005-0.004-0.010-0.007-0.015-0.011s-0.010-0.008-0.015-0.011c-0.005-0.004-0.010-0.006-0.015-0.010s-0.010-0.007-0.015-0.010c-0.005-0.003-0.010-0.007-0.015-0.010s-0.010-0.004-0.015-0.007c-0.005-0.003-0.010-0.006-0.015-0.008s-0.009-0.005-0.014-0.007c-0.005-0.002-0.009-0.005-0.014-0.007s-0.009-0.004-0.014-0.006-0.008-0.004-0.012-0.006c-0.004-0.002-0.009-0.003-0.014-0.004s-0.007-0.003-0.011-0.004c-0.004-0.001-0.009-0.003-0.012-0.004s-0.006-0.003-0.009-0.004-0.008-0.002-0.011-0.003-0.006-0.002-0.009-0.003c-0.003-0.001-0.006-0.001-0.008-0.001s-0.004-0.002-0.007-0.003c-0.002-0.001-0.005-0.001-0.007-0.001s-0.005-0.001-0.007-0.001c0.004 0 0.009 0 0.007 0s-0.006-0.001-0.008-0.001v0.001c-0.006-0-0.012-0.002-0.012-0.003s-0.012-0.003-0.029-0.003z"></path>
</svg>
