<!-- Generated by IcoMoon.io -->
<svg version="1.1" xmlns="http://www.w3.org/2000/svg" width="42" height="42" viewBox="0 0 42 42">
<path d="M15 6h12v-3h-12v3zM42 21v11.25c0 2.063-1.688 3.75-3.75 3.75h-34.5c-2.063 0-3.75-1.688-3.75-3.75v-11.25h15.75v3.75c0 0.82 0.68 1.5 1.5 1.5h7.5c0.82 0 1.5-0.68 1.5-1.5v-3.75h15.75zM24 21v3h-6v-3h6zM42 9.75v9h-42v-9c0-2.063 1.688-3.75 3.75-3.75h8.25v-3.75c0-1.242 1.008-2.25 2.25-2.25h13.5c1.242 0 2.25 1.008 2.25 2.25v3.75h8.25c2.063 0 3.75 1.688 3.75 3.75z"></path>
</svg>
