<!-- Generated by IcoMoon.io -->
<svg version="1.1" xmlns="http://www.w3.org/2000/svg" width="34" height="32" viewBox="0 0 34 32">
<path d="M12.776 5.161c0-1.242 0.954-2.25 2.119-2.25h3.634c1.166 0 2.341 1.009 2.341 2.25v-0.118h1.816v-0.947c0-1.718-0.944-3.096-2.882-3.096h-6.184c-1.294 0-2.694 1.462-2.694 3.096v0.947h1.853v0.118z"></path>
<path d="M20.767 10.94h-7.931v2.025h-11.866v-7.931h31.653v7.93h-11.859v-2.025zM20.789 16.998v-1.99h11.834v15.994h-31.582v-15.994h11.816v1.99zM18.767 13.001v1.934h-3.931v-1.934z"></path>
</svg>
