<!-- Generated by IcoMoon.io -->
<svg version="1.1" xmlns="http://www.w3.org/2000/svg" width="42" height="42" viewBox="0 0 42 42">
<path d="M39 15c1.664 0 3 1.336 3 3s-1.336 3-3 3v9c0 1.641-1.359 3-3 3-4.172-3.469-10.898-8.227-19.031-8.906-2.789 0.937-3.75 4.195-1.922 6.070-1.641 2.695 0.469 4.594 2.953 6.539-1.453 2.859-7.5 2.906-9.656 0.914-1.359-4.172-3.375-8.344-1.734-13.617h-2.859c-2.063 0-3.75-1.688-3.75-3.75v-4.5c0-2.063 1.688-3.75 3.75-3.75h11.25c9 0 16.5-5.25 21-9 1.641 0 3 1.359 3 3v9zM36 29.156v-22.359c-6.117 4.688-12.047 7.383-18 8.039v6.328c5.953 0.656 11.883 3.305 18 7.992z"></path>
</svg>
