<svg xmlns="http://www.w3.org/2000/svg" viewBox="0 0 448 512"><path d="M256.009 256c0-9.953-3.687-19.922-11.093-27.656l-175.993-184c-15.281-15.953-40.591-16.516-56.56-1.25-15.967 15.265-16.529 40.594-1.25 56.562L160.67 256 11.113 412.344c-15.248 15.968-14.779 41.297 1.25 56.562 15.969 15.266 41.279 14.703 56.56-1.25l175.993-184c7.406-7.734 11.093-17.703 11.093-27.656Zm180.897-27.656-175.992-184c-15.28-15.953-40.592-16.516-56.559-1.25-15.969 15.265-16.5 40.594-1.25 56.562L352.66 256 203.105 412.344c-15.25 15.968-14.75 41.297 1.25 56.562 15.967 15.266 41.279 14.703 56.559-1.25l175.992-184C444.312 275.922 448 265.953 448 256s-3.688-19.922-11.094-27.656Z"/></svg>