<!-- Generated by IcoMoon.io -->
<svg version="1.1" xmlns="http://www.w3.org/2000/svg" width="42" height="42" viewBox="0 0 42 42">
<path d="M18 39h21v-15h-9.75c-1.242 0-2.25-1.008-2.25-2.25v-9.75h-9v27zM24 5.25v-1.5c0-0.398-0.352-0.75-0.75-0.75h-16.5c-0.398 0-0.75 0.352-0.75 0.75v1.5c0 0.398 0.352 0.75 0.75 0.75h16.5c0.398 0 0.75-0.352 0.75-0.75zM30 21h7.008l-7.008-7.008v7.008zM42 24v15.75c0 1.242-1.008 2.25-2.25 2.25h-22.5c-1.242 0-2.25-1.008-2.25-2.25v-3.75h-12.75c-1.242 0-2.25-1.008-2.25-2.25v-31.5c0-1.242 1.008-2.25 2.25-2.25h25.5c1.242 0 2.25 1.008 2.25 2.25v7.688c0.305 0.187 0.586 0.398 0.844 0.656l9.563 9.563c0.891 0.891 1.594 2.602 1.594 3.844z"></path>
</svg>
