<!-- Generated by IcoMoon.io -->
<svg version="1.1" xmlns="http://www.w3.org/2000/svg" width="36" height="42" viewBox="0 0 36 42">
<path d="M21 12.75v10.5c0 0.422-0.328 0.75-0.75 0.75h-7.5c-0.422 0-0.75-0.328-0.75-0.75v-1.5c0-0.422 0.328-0.75 0.75-0.75h5.25v-8.25c0-0.422 0.328-0.75 0.75-0.75h1.5c0.422 0 0.75 0.328 0.75 0.75zM30.75 21c0-7.031-5.719-12.75-12.75-12.75s-12.75 5.719-12.75 12.75 5.719 12.75 12.75 12.75 12.75-5.719 12.75-12.75zM36 21c0 9.938-8.062 18-18 18s-18-8.062-18-18 8.062-18 18-18 18 8.062 18 18z"></path>
</svg>
