<!-- Generated by IcoMoon.io -->
<svg version="1.1" xmlns="http://www.w3.org/2000/svg" width="44" height="32" viewBox="0 0 44 32">
<path d="M29.273 18.181c0-0.007 0-0.016 0-0.024 0-0.389-0.315-0.704-0.704-0.704-0.009 0-0.017 0-0.026 0l0.001-0h-5.090v-8c0-0.002 0-0.004 0-0.006 0-0.198-0.083-0.377-0.216-0.503l-0-0c-0.128-0.133-0.308-0.216-0.506-0.216-0.002 0-0.004 0-0.006 0h-4.363c-0.197 0-0.368 0.072-0.512 0.216s-0.216 0.312-0.216 0.509v8h-5.090c-0.197 0-0.368 0.072-0.512 0.219-0.144 0.144-0.216 0.312-0.216 0.51 0 0.212 0.069 0.387 0.206 0.522l8 8c0.127 0.128 0.302 0.207 0.496 0.207 0.009 0 0.018-0 0.026-0l-0.001 0c0.008 0 0.016 0 0.025 0 0.194 0 0.37-0.079 0.496-0.207l7.978-7.975c0.15-0.181 0.228-0.366 0.228-0.546zM43.817 23.272c0 2.41-0.854 4.466-2.556 6.172-1.704 1.703-3.763 2.556-6.172 2.556h-24.726c-2.802 0-5.2-0.997-7.194-2.987-1.994-1.994-2.987-4.391-2.987-7.194 0-1.968 0.528-3.787 1.59-5.456 1.037-1.633 2.489-2.917 4.211-3.724l0.061-0.026c-0.024-0.279-0.041-0.619-0.047-0.961l-0-0.015c0-3.212 1.138-5.955 3.41-8.227 2.276-2.272 5.016-3.41 8.228-3.41 2.362 0 4.528 0.659 6.488 1.978 1.962 1.318 3.39 3.069 4.284 5.25 1.078-0.941 2.334-1.41 3.775-1.41 1.606 0 2.975 0.569 4.112 1.704 1.138 1.137 1.704 2.509 1.704 4.115 0 1.15-0.31 2.197-0.932 3.134 1.972 0.472 3.588 1.496 4.854 3.081 1.266 1.582 1.896 3.391 1.896 5.419z"></path>
</svg>
