<!-- Generated by IcoMoon.io -->
<svg version="1.1" xmlns="http://www.w3.org/2000/svg" width="44" height="32" viewBox="0 0 44 32">
<path d="M43.817 23.272c0 2.41-0.854 4.466-2.556 6.172-1.704 1.703-3.763 2.556-6.172 2.556h-24.726c-2.802 0-5.2-0.997-7.194-2.987-1.994-1.994-2.987-4.391-2.987-7.194 0-2 0.538-3.831 1.613-5.49 1.074-1.656 2.494-2.896 4.25-3.715-0.031-0.422-0.047-0.75-0.047-0.976 0-3.212 1.138-5.955 3.41-8.227 2.276-2.272 5.016-3.41 8.228-3.41 2.394 0 4.566 0.666 6.512 2 1.948 1.334 3.366 3.075 4.26 5.228 1.062-0.941 2.319-1.41 3.775-1.41 1.606 0 2.975 0.569 4.112 1.704 1.138 1.137 1.704 2.509 1.704 4.115 0 0.010 0 0.022 0 0.034 0 1.155-0.348 2.228-0.945 3.121l0.013-0.020c1.957 0.456 3.569 1.475 4.841 3.056 1.275 1.584 1.91 3.4 1.91 5.444z"></path>
</svg>
