<!-- Generated by IcoMoon.io -->
<svg version="1.1" xmlns="http://www.w3.org/2000/svg" width="40" height="32" viewBox="0 0 40 32">
<path d="M24.55 0.075c-0.165-0.049-0.355-0.077-0.551-0.077-0.91 0-1.677 0.607-1.921 1.437l-0.004 0.014-8 28c-0.049 0.165-0.077 0.354-0.077 0.55 0 1.106 0.896 2.002 2.002 2.002 0.91 0 1.678-0.607 1.921-1.437l0.004-0.014 8-28c0.049-0.165 0.077-0.354 0.077-0.551 0-0.91-0.607-1.677-1.437-1.921l-0.014-0.004zM29.587 7.582c-0.362 0.362-0.586 0.863-0.586 1.416s0.224 1.053 0.586 1.416l5.582 5.587-5.587 5.587c-0.362 0.362-0.586 0.863-0.586 1.416s0.224 1.054 0.586 1.416v0c0.362 0.362 0.863 0.586 1.416 0.586s1.053-0.224 1.416-0.586l7-7c0.362-0.362 0.586-0.863 0.586-1.416s-0.224-1.054-0.586-1.416l-7-7c-0.362-0.362-0.863-0.586-1.416-0.586s-1.054 0.224-1.416 0.586v0zM10.419 7.582c-0.362-0.362-0.863-0.586-1.416-0.586s-1.054 0.224-1.416 0.586l-7 7c-0.362 0.362-0.586 0.863-0.586 1.416s0.224 1.053 0.586 1.416l7 7c0.362 0.362 0.863 0.586 1.416 0.586s1.054-0.224 1.416-0.586v0c0.362-0.362 0.586-0.863 0.586-1.416s-0.224-1.054-0.586-1.416v0l-5.589-5.581 5.587-5.587c0.362-0.362 0.586-0.863 0.586-1.416s-0.224-1.054-0.586-1.416v0z"></path>
</svg>
