<!-- Generated by IcoMoon.io -->
<svg version="1.1" xmlns="http://www.w3.org/2000/svg" width="40" height="32" viewBox="0 0 40 32">
<path d="M32.006 11.938l-0.512 0.894c-0.136 0.233-0.385 0.388-0.67 0.388-0.098 0-0.193-0.018-0.279-0.052l0.005 0.002c-0.77-0.291-1.434-0.684-2.017-1.171l0.011 0.009c-0.171-0.143-0.279-0.357-0.279-0.596 0-0.142 0.038-0.275 0.105-0.39l-0.002 0.004 0.514-0.894c-0.419-0.484-0.756-1.053-0.982-1.675l-0.012-0.037h-1.031c-0.001 0-0.001 0-0.002 0-0.381 0-0.697-0.276-0.76-0.639l-0.001-0.005c-0.061-0.349-0.096-0.75-0.096-1.16s0.035-0.811 0.102-1.201l-0.006 0.042c0.063-0.37 0.38-0.648 0.762-0.65h1.032c0.238-0.659 0.575-1.228 0.999-1.719l-0.006 0.007-0.514-0.894c-0.066-0.111-0.105-0.245-0.105-0.388 0-0.238 0.109-0.452 0.279-0.592l0.001-0.001c0.573-0.477 1.237-0.87 1.959-1.146l0.048-0.016c0.081-0.032 0.175-0.050 0.274-0.050 0.285 0 0.534 0.154 0.668 0.384l0.002 0.004 0.512 0.894c0.298-0.057 0.64-0.089 0.99-0.089s0.693 0.032 1.025 0.094l-0.034-0.005 0.513-0.894c0.136-0.233 0.385-0.388 0.67-0.388 0.098 0 0.193 0.018 0.279 0.052l-0.005-0.002c0.77 0.291 1.434 0.684 2.017 1.171l-0.011-0.009c0.17 0.143 0.278 0.357 0.278 0.595 0 0.142-0.038 0.276-0.105 0.39l0.002-0.004-0.512 0.894c0.431 0.5 0.768 1.082 0.994 1.712h1.031c0.375 0 0.7 0.27 0.762 0.645 0.061 0.348 0.096 0.75 0.096 1.159s-0.035 0.811-0.102 1.201l0.006-0.042c-0.063 0.37-0.38 0.648-0.762 0.65h-1.032c-0.238 0.66-0.575 1.228-0.999 1.72l0.006-0.007 0.512 0.894c0.066 0.111 0.106 0.245 0.106 0.389 0 0.238-0.108 0.451-0.279 0.592l-0.001 0.001c-0.572 0.477-1.237 0.87-1.959 1.146l-0.048 0.016c-0.081 0.032-0.175 0.050-0.274 0.050-0.285 0-0.534-0.154-0.668-0.384l-0.002-0.004-0.512-0.894c-0.298 0.057-0.641 0.089-0.991 0.089s-0.693-0.032-1.025-0.094l0.034 0.005zM31.35 8.262c2.406 1.85 5.15-0.894 3.299-3.3-2.406-1.856-5.15 0.894-3.299 3.3zM24.144 17.882l2.106 1.050c0.451 0.265 0.748 0.748 0.748 1.3 0 0.186-0.034 0.364-0.096 0.529l0.003-0.010c-0.557 1.513-1.65 2.9-2.662 4.113-0.276 0.327-0.686 0.533-1.144 0.533-0.276 0-0.535-0.075-0.757-0.205l0.007 0.004-1.819-1.050c-0.97 0.836-2.11 1.509-3.356 1.957l-0.075 0.024v2.1c0 0.001 0 0.002 0 0.003 0 0.733-0.527 1.343-1.223 1.471l-0.009 0.001c-0.713 0.128-1.534 0.202-2.372 0.202s-1.659-0.073-2.456-0.214l0.085 0.012c-0.712-0.125-1.247-0.737-1.25-1.475v-2.1c-1.321-0.475-2.461-1.147-3.447-1.993l0.015 0.012-1.818 1.043c-0.215 0.126-0.473 0.201-0.749 0.201-0.458 0-0.868-0.206-1.143-0.53l-0.002-0.002c-1.013-1.212-2.082-2.6-2.638-4.106-0.058-0.154-0.091-0.331-0.091-0.516 0-0.552 0.297-1.036 0.74-1.298l0.007-0.004 2.082-1.050c-0.116-0.596-0.183-1.281-0.183-1.982s0.067-1.386 0.194-2.049l-0.011 0.068-2.082-1.056c-0.451-0.262-0.749-0.743-0.749-1.293 0-0.186 0.034-0.365 0.097-0.529l-0.003 0.010c0.557-1.513 1.625-2.901 2.638-4.113 0.276-0.327 0.686-0.533 1.144-0.533 0.276 0 0.535 0.075 0.757 0.205l-0.007-0.004 1.819 1.050c0.97-0.836 2.11-1.509 3.356-1.957l0.075-0.024v-2.107c0-0.719 0.512-1.344 1.225-1.469 0.72-0.129 1.548-0.203 2.394-0.203 0.832 0 1.648 0.071 2.441 0.208l-0.085-0.012c0.718 0.125 1.25 0.744 1.25 1.475v2.1c1.321 0.475 2.461 1.147 3.447 1.993l-0.015-0.012 1.818-1.050c0.215-0.126 0.473-0.201 0.749-0.201 0.458 0 0.868 0.206 1.143 0.53l0.002 0.002c1.012 1.213 2.074 2.6 2.631 4.112 0.25 0.682 0.006 1.45-0.626 1.819l-2.106 1.050c0.243 1.312 0.243 2.656 0 3.968zM16.794 19.2c3.7-4.813-1.794-10.306-6.606-6.606-3.699 4.813 1.794 10.306 6.606 6.606zM32.006 30.618l-0.512 0.894c-0.136 0.233-0.385 0.388-0.67 0.388-0.098 0-0.193-0.018-0.279-0.052l0.005 0.002c-0.77-0.291-1.434-0.684-2.017-1.172l0.011 0.009c-0.171-0.143-0.278-0.357-0.278-0.595 0-0.142 0.038-0.275 0.104-0.389l-0.002 0.004 0.514-0.894c-0.419-0.484-0.756-1.053-0.982-1.675l-0.012-0.038h-1.031c-0.001 0-0.001 0-0.002 0-0.381 0-0.697-0.276-0.76-0.639l-0.001-0.005c-0.061-0.349-0.096-0.75-0.096-1.159s0.035-0.811 0.102-1.201l-0.006 0.042c0.063-0.37 0.38-0.648 0.762-0.65h1.032c0.238-0.659 0.575-1.228 0.999-1.719l-0.006 0.007-0.513-0.894c-0.066-0.111-0.105-0.245-0.105-0.388 0-0.238 0.109-0.452 0.279-0.592l0.001-0.001c0.573-0.477 1.237-0.87 1.959-1.146l0.048-0.016c0.081-0.032 0.175-0.050 0.274-0.050 0.285 0 0.534 0.154 0.668 0.384l0.002 0.004 0.512 0.894c0.298-0.057 0.64-0.089 0.99-0.089s0.693 0.032 1.025 0.094l-0.034-0.005 0.513-0.894c0.136-0.233 0.385-0.388 0.67-0.388 0.098 0 0.193 0.018 0.279 0.052l-0.005-0.002c0.77 0.291 1.434 0.684 2.017 1.171l-0.011-0.009c0.17 0.143 0.278 0.357 0.278 0.595 0 0.142-0.038 0.276-0.105 0.39l0.002-0.004-0.512 0.894c0.431 0.5 0.768 1.081 0.994 1.712h1.031c0.375 0 0.7 0.269 0.762 0.644 0.061 0.349 0.096 0.75 0.096 1.159s-0.035 0.811-0.102 1.201l0.006-0.042c-0.063 0.37-0.38 0.648-0.762 0.65h-1.032c-0.238 0.659-0.575 1.228-0.999 1.719l0.006-0.007 0.512 0.894c0.066 0.111 0.105 0.245 0.105 0.388 0 0.238-0.108 0.451-0.278 0.592l-0.001 0.001c-0.572 0.477-1.237 0.87-1.959 1.146l-0.048 0.016c-0.081 0.032-0.176 0.050-0.274 0.050-0.285 0-0.534-0.154-0.668-0.383l-0.002-0.004-0.512-0.894c-0.298 0.057-0.641 0.089-0.991 0.089s-0.693-0.032-1.025-0.094l0.034 0.005zM31.35 26.938c2.406 1.85 5.15-0.894 3.299-3.3-2.406-1.85-5.15 0.894-3.299 3.3z"></path>
</svg>
