<!-- Generated by IcoMoon.io -->
<svg version="1.1" xmlns="http://www.w3.org/2000/svg" width="42" height="42" viewBox="0 0 42 42">
<path d="M9 27c0-1.664-1.336-3-3-3s-3 1.336-3 3 1.336 3 3 3 3-1.336 3-3zM13.5 16.5c0-1.664-1.336-3-3-3s-3 1.336-3 3 1.336 3 3 3 3-1.336 3-3zM23.531 27.773l2.367-8.953c0.187-0.797-0.281-1.617-1.078-1.828v0c-0.797-0.211-1.617 0.281-1.828 1.078l-2.367 8.953c-1.852 0.141-3.469 1.43-3.984 3.328-0.633 2.414 0.82 4.875 3.211 5.508 2.414 0.633 4.875-0.82 5.508-3.211 0.492-1.898-0.305-3.82-1.828-4.875zM39 27c0-1.664-1.336-3-3-3s-3 1.336-3 3 1.336 3 3 3 3-1.336 3-3zM24 12c0-1.664-1.336-3-3-3s-3 1.336-3 3 1.336 3 3 3 3-1.336 3-3zM34.5 16.5c0-1.664-1.336-3-3-3s-3 1.336-3 3 1.336 3 3 3 3-1.336 3-3zM42 27c0 4.031-1.148 7.922-3.305 11.32-0.281 0.422-0.75 0.68-1.266 0.68h-32.859c-0.516 0-0.984-0.258-1.266-0.68-2.156-3.375-3.305-7.289-3.305-11.32 0-11.578 9.422-21 21-21s21 9.422 21 21z"></path>
</svg>
