<!-- Generated by IcoMoon.io -->
<svg version="1.1" xmlns="http://www.w3.org/2000/svg" width="45" height="42" viewBox="0 0 45 42">
<path d="M42 23.25v-19.5c0-0.398-0.352-0.75-0.75-0.75h-37.5c-0.398 0-0.75 0.352-0.75 0.75v19.5c0 0.398 0.352 0.75 0.75 0.75h37.5c0.398 0 0.75-0.352 0.75-0.75zM45 3.75v25.5c0 2.063-1.688 3.75-3.75 3.75h-12.75c0 1.992 1.5 3.68 1.5 4.5s-0.68 1.5-1.5 1.5h-12c-0.82 0-1.5-0.68-1.5-1.5 0-0.867 1.5-2.461 1.5-4.5h-12.75c-2.063 0-3.75-1.688-3.75-3.75v-25.5c0-2.063 1.688-3.75 3.75-3.75h37.5c2.063 0 3.75 1.688 3.75 3.75z"></path>
</svg>
