<!-- Generated by IcoMoon.io -->
<svg version="1.1" xmlns="http://www.w3.org/2000/svg" width="42" height="42" viewBox="0 0 42 42">
<path d="M42 16.641v18.609c0 2.063-1.688 3.75-3.75 3.75h-34.5c-2.063 0-3.75-1.688-3.75-3.75v-18.609c0.703 0.773 1.5 1.453 2.367 2.039 3.891 2.648 7.828 5.297 11.648 8.086 1.969 1.453 4.406 3.234 6.961 3.234h0.047c2.555 0 4.992-1.781 6.961-3.234 3.82-2.766 7.758-5.437 11.672-8.086 0.844-0.586 1.641-1.266 2.344-2.039zM42 9.75c0 2.625-1.945 4.992-4.008 6.422-3.656 2.531-7.336 5.063-10.969 7.617-1.523 1.055-4.102 3.211-6 3.211h-0.047c-1.898 0-4.477-2.156-6-3.211-3.633-2.555-7.313-5.086-10.945-7.617-1.664-1.125-4.031-3.773-4.031-5.906 0-2.297 1.242-4.266 3.75-4.266h34.5c2.039 0 3.75 1.688 3.75 3.75z"></path>
</svg>
