<!-- Generated by IcoMoon.io -->
<svg version="1.1" xmlns="http://www.w3.org/2000/svg" width="32" height="32" viewBox="0 0 32 32">
<path d="M5.997 4.996c0.496-0.215 1.603-0.296 4.031-0.304 3.136-0.007 3.394 0.024 4.043 0.457 0.399 0.266 0.761 0.722 0.857 1.076l0.161 0.619 10.415-0.115v4.127h-20.91l-4.028 7.917-0.012-6.014-0.011-6.019h4.154l0.308-0.726 0.005-0.013c0.184-0.446 0.535-0.806 0.987-1.006zM6.865 12.912h12.355c11.684 0 12.352 0.019 12.225 0.357-0.074 0.2-1.457 3.44-3.074 7.199l-2.944 6.841h-12.336c-6.787 0-12.34-0.058-12.34-0.123 0-0.070 1.375-3.31 3.055-7.199z"></path>
</svg>
