<!-- Generated by IcoMoon.io -->
<svg version="1.1" xmlns="http://www.w3.org/2000/svg" width="32" height="32" viewBox="0 0 32 32">
<path d="M16 0c2.903 0 5.582 0.716 8.032 2.147 2.431 1.421 4.4 3.39 5.78 5.747l0.041 0.075c1.432 2.45 2.147 5.127 2.147 8.031s-0.716 5.582-2.147 8.032c-1.421 2.431-3.39 4.4-5.747 5.78l-0.075 0.041c-2.45 1.432-5.127 2.147-8.031 2.147s-5.582-0.716-8.032-2.147c-2.431-1.421-4.4-3.39-5.78-5.747l-0.041-0.075c-1.432-2.45-2.147-5.127-2.147-8.031s0.716-5.582 2.147-8.032c1.421-2.431 3.39-4.399 5.746-5.779l0.075-0.041c2.45-1.433 5.128-2.148 8.032-2.148zM21.71 10.853c-0.028 0.016-0.094 0.082-0.2 0.2-0.104 0.116-0.197 0.184-0.282 0.197 0.028 0 0.059-0.034 0.094-0.102 0.034-0.072 0.072-0.147 0.106-0.232 0.020-0.055 0.044-0.103 0.074-0.147l-0.002 0.003c0.084-0.096 0.238-0.202 0.459-0.312 0.194-0.084 0.554-0.168 1.082-0.25 0.472-0.112 0.828-0.034 1.062 0.228-0.028-0.028 0.040-0.119 0.2-0.272s0.259-0.234 0.3-0.25c0.044-0.029 0.146-0.060 0.312-0.094 0.169-0.034 0.272-0.084 0.313-0.156l0.044-0.456c-0.169 0.012-0.29-0.034-0.366-0.147-0.079-0.124-0.128-0.275-0.134-0.436l-0-0.002c0 0.028-0.044 0.085-0.125 0.166 0-0.096-0.032-0.153-0.094-0.166-0.022-0.003-0.047-0.005-0.073-0.005-0.060 0-0.117 0.010-0.171 0.029l0.004-0.001c-0.097 0.028-0.16 0.034-0.188 0.018-0.12-0.031-0.225-0.085-0.313-0.157l0.001 0.001c-0.069-0.062-0.126-0.175-0.166-0.344-0.061-0.245-0.090-0.349-0.12-0.453l0.035 0.141c-0.028-0.070-0.094-0.144-0.197-0.229-0.106-0.084-0.172-0.153-0.2-0.209-0.013-0.029-0.031-0.066-0.050-0.113-0.022-0.050-0.044-0.094-0.063-0.138-0.024-0.043-0.051-0.080-0.084-0.112l-0-0c-0.029-0.032-0.070-0.053-0.116-0.054h-0c-0.040 0-0.090 0.034-0.144 0.103-0.056 0.072-0.109 0.141-0.156 0.21-0.050 0.069-0.081 0.103-0.094 0.103-0.028-0.021-0.064-0.033-0.103-0.033-0.008 0-0.015 0-0.023 0.001l0.001-0c-0.044 0.010-0.075 0.016-0.094 0.022-0.036 0.016-0.067 0.037-0.094 0.063l0-0c-0.031 0.027-0.066 0.051-0.103 0.071l-0.003 0.002c-0.050 0.032-0.109 0.054-0.173 0.062l-0.002 0c-0.078 0.016-0.138 0.028-0.178 0.044 0.21-0.072 0.2-0.147-0.022-0.232-0.138-0.053-0.25-0.074-0.331-0.062 0.125-0.053 0.175-0.137 0.156-0.25-0.026-0.118-0.089-0.218-0.177-0.29l-0.001-0.001h0.103c-0.013-0.056-0.072-0.116-0.176-0.178-0.103-0.061-0.223-0.12-0.348-0.169l-0.017-0.006c-0.107-0.040-0.197-0.082-0.282-0.13l0.010 0.005c-0.11-0.072-0.347-0.138-0.706-0.2-0.362-0.062-0.59-0.066-0.688-0.010-0.072 0.085-0.102 0.157-0.093 0.219 0.006 0.062 0.034 0.159 0.081 0.29 0.050 0.134 0.075 0.218 0.075 0.262 0.012 0.082-0.025 0.172-0.116 0.269s-0.134 0.182-0.134 0.25c0 0.096 0.097 0.206 0.291 0.325 0.194 0.115 0.262 0.266 0.209 0.446-0.043 0.113-0.153 0.222-0.334 0.334-0.181 0.11-0.29 0.194-0.334 0.25-0.069 0.11-0.078 0.238-0.031 0.384 0.043 0.137 0.119 0.253 0.219 0.343l0.001 0.001c0.028 0.028 0.040 0.056 0.031 0.084-0.006 0.029-0.032 0.060-0.072 0.094-0.073 0.056-0.155 0.108-0.242 0.152l-0.009 0.004-0.062 0.040c-0.153 0.070-0.294 0.029-0.428-0.124-0.128-0.151-0.225-0.332-0.279-0.531l-0.002-0.010c-0.097-0.347-0.206-0.557-0.331-0.626-0.322-0.112-0.522-0.106-0.606 0.019-0.069-0.178-0.354-0.36-0.854-0.541-0.346-0.125-0.75-0.153-1.209-0.084 0.084-0.013 0.084-0.116 0-0.313-0.097-0.206-0.228-0.29-0.394-0.25 0.041-0.082 0.069-0.203 0.082-0.363 0.016-0.159 0.022-0.253 0.022-0.281 0.041-0.182 0.126-0.341 0.25-0.482 0.121-0.136 0.235-0.284 0.336-0.442l0.008-0.014c0.050-0.084 0.053-0.125 0.009-0.125 0.488 0.053 0.834-0.022 1.044-0.232 0.069-0.068 0.147-0.187 0.238-0.352 0.090-0.166 0.166-0.285 0.218-0.354 0.126-0.085 0.222-0.122 0.294-0.116 0.069 0.006 0.169 0.044 0.3 0.116 0.134 0.069 0.234 0.103 0.304 0.103 0.194 0.012 0.302-0.062 0.322-0.228 0.004-0.022 0.006-0.046 0.006-0.072 0-0.139-0.063-0.264-0.162-0.347l-0.001-0.001c0.169 0.016 0.188-0.103 0.063-0.353-0.054-0.097-0.11-0.16-0.166-0.188-0.166-0.056-0.354-0.022-0.563 0.104-0.112 0.056-0.096 0.112 0.041 0.168-0.012-0.016-0.078 0.059-0.197 0.219s-0.231 0.281-0.344 0.362c-0.112 0.084-0.222 0.050-0.334-0.104-0.012-0.012-0.050-0.106-0.112-0.28-0.062-0.176-0.128-0.27-0.2-0.282-0.11 0-0.222 0.103-0.331 0.312 0.040-0.112-0.034-0.216-0.232-0.312-0.194-0.097-0.359-0.154-0.499-0.166 0.266-0.169 0.209-0.357-0.166-0.562-0.097-0.056-0.241-0.091-0.429-0.106-0.187-0.013-0.322 0.016-0.406 0.084-0.055 0.067-0.094 0.148-0.112 0.237l-0.001 0.004c-0.010 0.062 0.028 0.116 0.103 0.166s0.15 0.088 0.218 0.116 0.15 0.053 0.241 0.081c0.090 0.028 0.147 0.050 0.175 0.062 0.197 0.141 0.25 0.238 0.168 0.294-0.027 0.013-0.087 0.038-0.178 0.072l-0.24 0.094c-0.070 0.029-0.11 0.056-0.126 0.085-0.040 0.053-0.040 0.153 0 0.29 0.044 0.138 0.028 0.238-0.040 0.291-0.070-0.069-0.132-0.191-0.188-0.363-0.056-0.174-0.103-0.29-0.147-0.344 0.098 0.126-0.074 0.166-0.518 0.126l-0.21-0.022c-0.056 0-0.166 0.012-0.334 0.040-0.089 0.018-0.191 0.028-0.295 0.028-0.046 0-0.091-0.002-0.136-0.006l0.006 0c-0.117-0.011-0.218-0.073-0.281-0.164l-0.001-0.001c-0.056-0.112-0.056-0.25 0-0.419 0.013-0.053 0.041-0.069 0.082-0.040-0.084-0.066-0.158-0.131-0.229-0.199l0.001 0.001c-0.064-0.063-0.132-0.121-0.204-0.174l-0.005-0.004c-0.638 0.209-1.29 0.494-1.956 0.853 0.081 0.016 0.166 0.010 0.25-0.018 0.069-0.028 0.16-0.075 0.269-0.138 0.112-0.062 0.182-0.1 0.21-0.112 0.472-0.198 0.762-0.244 0.875-0.147l0.103-0.104c0.197 0.222 0.334 0.394 0.418 0.52-0.097-0.054-0.306-0.063-0.625-0.019-0.278 0.081-0.432 0.166-0.459 0.25 0.096 0.166 0.131 0.291 0.103 0.375-0.087-0.072-0.165-0.141-0.24-0.212l0.002 0.002c-0.089-0.085-0.189-0.16-0.296-0.224l-0.008-0.004c-0.090-0.053-0.195-0.091-0.308-0.106l-0.004-0c-0.222 0-0.375 0.010-0.459 0.022-2.025 1.115-3.677 2.681-4.862 4.569l-0.032 0.055c0.096 0.098 0.178 0.154 0.25 0.166 0.054 0.016 0.091 0.078 0.104 0.187 0.012 0.112 0.030 0.188 0.053 0.232 0.018 0.040 0.1 0.018 0.237-0.063 0.126 0.11 0.147 0.241 0.063 0.394 0.016-0.012 0.322 0.176 0.918 0.563 0.262 0.237 0.41 0.384 0.438 0.437 0.040 0.154-0.028 0.278-0.21 0.376-0.012-0.029-0.075-0.091-0.187-0.188s-0.175-0.125-0.188-0.082c-0.040 0.069-0.037 0.197 0.010 0.384 0.050 0.188 0.122 0.275 0.219 0.26-0.098 0-0.163 0.112-0.198 0.334-0.034 0.215-0.053 0.462-0.053 0.714 0 0.009 0 0.019 0 0.028v-0.001c0 0.269-0.006 0.434-0.018 0.487l0.040 0.022c-0.040 0.166-0.003 0.406 0.116 0.719 0.115 0.312 0.266 0.446 0.447 0.406-0.182 0.040-0.041 0.34 0.415 0.896 0.084 0.11 0.141 0.173 0.169 0.188 0.040 0.028 0.125 0.078 0.25 0.156 0.126 0.075 0.229 0.144 0.313 0.206 0.082 0.062 0.153 0.138 0.206 0.219 0.056 0.072 0.125 0.228 0.21 0.469 0.084 0.243 0.181 0.406 0.29 0.49-0.028 0.084 0.040 0.222 0.2 0.416 0.16 0.196 0.231 0.356 0.218 0.481-0.016 0-0.031 0.006-0.053 0.018-0.022 0.016-0.038 0.022-0.053 0.022 0.043 0.096 0.15 0.194 0.325 0.29 0.172 0.097 0.281 0.187 0.322 0.272 0.013 0.040 0.028 0.112 0.040 0.21 0.016 0.096 0.035 0.171 0.063 0.228s0.084 0.069 0.169 0.040c0.028-0.278-0.141-0.706-0.5-1.29-0.21-0.346-0.328-0.55-0.356-0.603-0.049-0.094-0.088-0.202-0.111-0.317l-0.001-0.008c-0.023-0.114-0.055-0.214-0.097-0.31l0.004 0.010c0.028 0 0.069 0.010 0.125 0.032 0.053 0.018 0.112 0.043 0.175 0.071s0.115 0.056 0.156 0.084c0.044 0.029 0.056 0.048 0.044 0.063-0.044 0.096-0.028 0.218 0.040 0.362 0.070 0.146 0.154 0.274 0.25 0.387 0.097 0.11 0.216 0.24 0.354 0.394 0.14 0.154 0.222 0.244 0.25 0.272 0.084 0.085 0.182 0.219 0.294 0.406 0.11 0.187 0.11 0.282 0 0.282 0.125 0 0.262 0.072 0.416 0.218s0.272 0.282 0.353 0.406c0.072 0.112 0.125 0.29 0.169 0.541 0.040 0.25 0.075 0.418 0.103 0.5 0.028 0.096 0.088 0.19 0.178 0.281s0.174 0.156 0.259 0.2l0.334 0.166 0.269 0.147c0.072 0.028 0.2 0.1 0.387 0.218 0.188 0.116 0.334 0.197 0.447 0.238 0.138 0.056 0.25 0.084 0.334 0.084 0.081 0 0.184-0.018 0.3-0.053 0.118-0.034 0.212-0.059 0.281-0.072 0.21-0.028 0.41 0.075 0.606 0.312 0.194 0.238 0.341 0.382 0.438 0.438 0.5 0.262 0.882 0.341 1.144 0.228-0.028 0.016-0.022 0.066 0.012 0.156s0.091 0.2 0.166 0.325c0.075 0.126 0.138 0.226 0.188 0.3 0.050 0.078 0.088 0.138 0.115 0.178 0.069 0.085 0.194 0.188 0.375 0.312 0.178 0.126 0.303 0.229 0.375 0.313 0.081-0.056 0.131-0.118 0.144-0.187-0.041 0.112 0.009 0.25 0.146 0.416 0.138 0.168 0.262 0.237 0.375 0.209 0.194-0.040 0.29-0.262 0.29-0.666-0.428 0.206-0.768 0.082-1.018-0.375-0.013-0.044-0.031-0.082-0.055-0.117l0.001 0.001c-0.028-0.049-0.056-0.108-0.080-0.168l-0.004-0.010c-0.018-0.048-0.036-0.106-0.049-0.166l-0.002-0.009c-0.008-0.023-0.012-0.050-0.012-0.078s0.004-0.055 0.012-0.080l-0 0.002c0.013-0.043 0.047-0.062 0.104-0.062 0.124 0 0.193-0.025 0.208-0.075 0.013-0.046 0-0.134-0.043-0.259-0.024-0.064-0.051-0.155-0.075-0.247l-0.005-0.025c-0.016-0.109-0.091-0.25-0.232-0.416-0.077-0.090-0.159-0.192-0.238-0.296l-0.012-0.016c-0.069 0.125-0.178 0.182-0.331 0.166-0.153-0.012-0.266-0.075-0.334-0.187 0 0.016-0.010 0.053-0.032 0.115-0.016 0.039-0.027 0.085-0.030 0.133l-0 0.001c-0.182 0-0.285-0.006-0.312-0.018 0.012-0.044 0.030-0.166 0.053-0.366 0.014-0.175 0.040-0.335 0.076-0.491l-0.004 0.022c0.012-0.056 0.053-0.138 0.115-0.25s0.112-0.212 0.156-0.303c0.041-0.090 0.069-0.174 0.082-0.259 0.016-0.084-0.016-0.15-0.094-0.197-0.075-0.050-0.197-0.066-0.362-0.053-0.266 0.012-0.447 0.153-0.544 0.416-0.013 0.043-0.034 0.115-0.062 0.218-0.022 0.091-0.057 0.171-0.106 0.243l0.002-0.003c-0.050 0.062-0.112 0.112-0.183 0.146l-0.003 0.001c-0.098 0.040-0.263 0.054-0.5 0.040-0.238-0.012-0.403-0.050-0.5-0.102-0.182-0.112-0.338-0.312-0.469-0.606-0.132-0.29-0.198-0.546-0.198-0.768 0-0.142 0.016-0.326 0.050-0.554s0.056-0.403 0.062-0.522c0.010-0.115-0.031-0.287-0.112-0.509 0.040-0.028 0.102-0.094 0.187-0.197 0.081-0.106 0.153-0.178 0.206-0.219 0.027-0.015 0.059-0.026 0.092-0.031l0.002-0c0.014-0.004 0.030-0.007 0.047-0.007s0.033 0.003 0.048 0.007l-0.001-0c0.028 0.006 0.056-0.003 0.084-0.031 0.031-0.034 0.053-0.076 0.063-0.123l0-0.002c-0.025-0.024-0.053-0.044-0.083-0.061l-0.002-0.001c-0.040-0.044-0.069-0.062-0.081-0.062 0.096 0.040 0.294 0.031 0.594-0.032 0.296-0.062 0.488-0.053 0.572 0.032 0.209 0.153 0.362 0.137 0.459-0.044 0-0.013-0.019-0.078-0.054-0.197s-0.037-0.213-0.009-0.282c0.069 0.375 0.269 0.438 0.603 0.188 0.040 0.040 0.15 0.074 0.322 0.103 0.175 0.028 0.297 0.062 0.366 0.106 0.040 0.028 0.090 0.066 0.147 0.113 0.053 0.050 0.094 0.082 0.112 0.094 0.022 0.016 0.056 0.013 0.106-0.010 0.068-0.036 0.125-0.081 0.175-0.134l0-0c0.141 0.194 0.222 0.36 0.25 0.5 0.154 0.554 0.285 0.86 0.397 0.916 0.097 0.040 0.176 0.056 0.229 0.040 0.056-0.012 0.087-0.078 0.094-0.196 0.009-0.119 0.009-0.216 0-0.291-0.008-0.103-0.020-0.193-0.035-0.282l0.003 0.019-0.018-0.166v-0.374l-0.022-0.166c-0.21-0.043-0.338-0.125-0.384-0.25-0.020-0.048-0.031-0.104-0.031-0.163 0-0.083 0.023-0.16 0.063-0.227l-0.001 0.002c0.083-0.15 0.188-0.277 0.311-0.382l0.002-0.002c0.048-0.029 0.103-0.053 0.161-0.071l0.005-0.001c0.097-0.035 0.206-0.082 0.322-0.138 0.119-0.053 0.206-0.109 0.263-0.166 0.29-0.262 0.394-0.506 0.312-0.728 0.097 0 0.172-0.062 0.228-0.187-0.040-0.015-0.074-0.036-0.103-0.063l0 0c-0.045-0.035-0.096-0.070-0.149-0.102l-0.007-0.004c-0.027-0.018-0.058-0.032-0.092-0.040l-0.002-0c0.125-0.070 0.138-0.182 0.040-0.335 0.070-0.040 0.122-0.115 0.157-0.228s0.088-0.182 0.156-0.21c0.126 0.169 0.272 0.182 0.438 0.044 0.112-0.112 0.119-0.222 0.022-0.334 0.069-0.097 0.209-0.168 0.424-0.218s0.344-0.116 0.388-0.198c0.097 0.029 0.154 0.013 0.166-0.043 0.013-0.054 0.022-0.138 0.022-0.25 0-0.109 0.018-0.194 0.062-0.25 0.053-0.069 0.159-0.131 0.312-0.188 0.154-0.053 0.241-0.090 0.269-0.103l0.357-0.228c0.040-0.056 0.040-0.084 0-0.084 0.029 0.004 0.063 0.006 0.097 0.006 0.215 0 0.408-0.090 0.546-0.234l0-0c0.141-0.154 0.097-0.294-0.125-0.419 0.044-0.081 0.022-0.146-0.062-0.197-0.090-0.052-0.194-0.092-0.305-0.114l-0.007-0.001c0.043-0.013 0.122-0.016 0.24-0.010s0.19-0.003 0.218-0.032c0.21-0.137 0.16-0.25-0.146-0.334-0.234-0.069-0.534 0.016-0.894 0.25zM18.313 29.125c2.862-0.5 5.3-1.812 7.312-3.938-0.040-0.040-0.128-0.072-0.259-0.094-0.134-0.022-0.218-0.044-0.262-0.072-0.25-0.096-0.416-0.153-0.5-0.168 0.003-0.020 0.005-0.043 0.005-0.066 0-0.075-0.021-0.146-0.057-0.206l0.001 0.002c-0.042-0.076-0.099-0.138-0.166-0.186l-0.002-0.001c-0.063-0.044-0.147-0.097-0.26-0.168-0.101-0.060-0.176-0.108-0.249-0.157l0.021 0.013c-0.045-0.043-0.092-0.084-0.142-0.123l-0.004-0.003c-0.069-0.056-0.119-0.094-0.147-0.115-0.045-0.033-0.096-0.064-0.15-0.091l-0.006-0.003c-0.075-0.041-0.134-0.056-0.176-0.041-0.043 0.012-0.112 0.018-0.208 0.018l-0.063 0.022c-0.044 0.014-0.083 0.032-0.118 0.055l0.002-0.001-0.112 0.062c-0.044 0.018-0.072 0.040-0.085 0.062-0.012 0.019-0.012 0.038 0 0.050-0.29-0.234-0.54-0.388-0.75-0.456-0.088-0.024-0.164-0.064-0.229-0.117l0.001 0.001c-0.063-0.049-0.135-0.098-0.21-0.142l-0.010-0.005c-0.043-0.023-0.094-0.037-0.149-0.037-0.021 0-0.042 0.002-0.062 0.006l0.002-0c-0.096 0.026-0.178 0.078-0.24 0.147l-0 0c-0.069 0.069-0.11 0.174-0.125 0.312-0.007 0.101-0.021 0.193-0.043 0.284l0.002-0.012c-0.097-0.072-0.097-0.19 0-0.366s0.112-0.303 0.040-0.384c-0.040-0.085-0.112-0.116-0.218-0.094-0.094 0.014-0.178 0.047-0.252 0.095l0.002-0.002c-0.063 0.040-0.141 0.1-0.238 0.174-0.056 0.047-0.117 0.092-0.181 0.134l-0.007 0.004c-0.028 0.013-0.087 0.050-0.178 0.113-0.069 0.043-0.128 0.095-0.177 0.155l-0.001 0.001c-0.040 0.056-0.082 0.141-0.125 0.25-0.030 0.089-0.065 0.165-0.107 0.237l0.003-0.006c-0.027-0.056-0.106-0.104-0.24-0.138-0.131-0.034-0.197-0.072-0.197-0.112 0.028 0.137 0.056 0.381 0.084 0.728s0.063 0.612 0.104 0.79c0.096 0.431 0.012 0.766-0.25 1-0.375 0.346-0.575 0.625-0.603 0.834-0.056 0.306 0.028 0.488 0.25 0.541 0 0.096-0.056 0.24-0.168 0.428-0.11 0.187-0.16 0.338-0.144 0.446 0 0.085 0.012 0.197 0.040 0.334z"></path>
</svg>
