<!-- Generated by IcoMoon.io -->
<svg version="1.1" xmlns="http://www.w3.org/2000/svg" width="54" height="42" viewBox="0 0 54 42">
<path d="M4.5 27c1.969 0 1.969-3 0-3s-1.969 3 0 3zM39.023 25.641c-1.852-2.414-3.656-4.875-5.766-7.078l-2.93 3.281c-2.578 2.93-7.195 2.859-9.703-0.141-1.781-2.156-1.781-5.25 0.047-7.383l4.148-4.828c-1.453-0.75-3.211-0.492-4.781-0.492-1.383 0-2.719 0.562-3.703 1.547l-3.703 3.703h-3.633v12.75c1.031 0 1.969-0.141 2.789 0.656l6.961 6.844c1.43 1.383 3.281 2.602 5.32 2.602 1.055 0 2.18-0.352 2.93-1.102 1.758 0.609 3.797-0.375 4.336-2.18 1.125 0.094 2.156-0.258 2.977-1.031 0.539-0.492 1.242-1.477 1.172-2.25 0.211 0.211 0.727 0.234 1.008 0.234 2.789 0 4.242-2.93 2.531-5.133zM42.75 27h2.25v-12h-2.18l-3.68-4.219c-0.984-1.125-2.461-1.781-3.961-1.781h-3.914c-1.313 0-2.578 0.586-3.422 1.57l-4.898 5.695c-0.867 1.031-0.867 2.484-0.023 3.516 1.336 1.594 3.797 1.617 5.18 0.070l4.523-5.109c1.078-1.195 3.047-0.070 2.555 1.453 0.891 1.031 1.852 2.039 2.719 3.070 1.172 1.453 2.297 2.977 3.445 4.453 0.727 0.937 1.266 2.063 1.406 3.281zM49.5 27c1.969 0 1.969-3 0-3s-1.969 3 0 3zM54 13.5v15c0 0.82-0.68 1.5-1.5 1.5h-10.172c-0.844 2.039-2.695 3.398-4.852 3.703-1.008 1.477-2.555 2.602-4.289 2.977-1.289 1.641-3.375 2.625-5.461 2.484-3.867 2.18-8.227 0.281-11.109-2.555l-6.727-6.609h-8.391c-0.82 0-1.5-0.68-1.5-1.5v-15.75c0-0.82 0.68-1.5 1.5-1.5h9.867c2.719-2.719 4.594-5.25 8.672-5.25h2.742c1.523 0 3 0.469 4.242 1.313 1.242-0.844 2.719-1.313 4.242-1.313h3.914c4.453 0 6.305 2.906 9 6h8.32c0.82 0 1.5 0.68 1.5 1.5z"></path>
</svg>
