<!-- Generated by IcoMoon.io -->
<svg version="1.1" xmlns="http://www.w3.org/2000/svg" width="32" height="32" viewBox="0 0 32 32">
<path d="M7.753 1.242c0.226-0.133 3.956-0.233 8.767-0.236l8.376-0.007 0.526 0.562c0.411 0.437 0.988 2.502 2.588 9.265 1.132 4.782 2.055 8.892 2.055 9.124 0 0.404-0.773 0.429-13.563 0.429-12.944 0-13.566-0.021-13.566-0.44 0-0.612 3.815-16.968 4.151-17.794 0.15-0.368 0.448-0.777 0.666-0.902zM3.615 22.798h12.73c9.354 0 12.897 0.079 13.366 0.29 0.963 0.441 1.324 1.386 1.324 3.48 0 1.783-0.032 1.883-0.823 2.674l-0.824 0.824h-12.755c-13.835 0-13.771 0.006-14.375-1.325-0.161-0.35-0.29-1.456-0.29-2.462 0-1.761 0.033-1.865 0.824-2.657zM21.344 26.431v1.213h2.424v-2.424h-2.424zM26.192 26.431v1.213h2.419v-2.424h-2.419zM-0.897 28.167c-0.372-0.297-0.368-0.318 0.079-0.239 0.38 0.064 0.491 0.286 0.516 1.048 0.026 0.684 0 0.755-0.075 0.24-0.061-0.398-0.293-0.87-0.52-1.049z"></path>
</svg>
