<!-- Generated by IcoMoon.io -->
<svg version="1.1" xmlns="http://www.w3.org/2000/svg" width="32" height="32" viewBox="0 0 32 32">
<path d="M9.334 30.666c-0.012 0-0.025 0-0.039 0-0.724 0-1.378-0.299-1.844-0.781l-0.001-0.001c-0.484-0.47-0.785-1.127-0.785-1.854 0-0.010 0-0.021 0-0.031v0.002-24c0-0.734 0.262-1.36 0.784-1.882 0.468-0.484 1.123-0.784 1.848-0.784 0.013 0 0.026 0 0.038 0l-0.002-0h13.331c0.734 0 1.362 0.259 1.884 0.784 0.522 0.522 0.785 1.15 0.785 1.882v24c0 0.734-0.262 1.362-0.784 1.884s-1.15 0.784-1.885 0.782zM16 27.334c0.378 0 0.694-0.128 0.95-0.384s0.384-0.572 0.384-0.95c0-0.006 0-0.014 0-0.021 0-0.725-0.588-1.314-1.314-1.314-0.007 0-0.015 0-0.022 0h0.001c-0.006-0-0.014-0-0.021-0-0.725 0-1.314 0.588-1.314 1.314 0 0.007 0 0.015 0 0.022v-0.001c0 0.378 0.128 0.694 0.384 0.95s0.576 0.384 0.95 0.384zM9.334 21.334h13.331v-13.334h-13.331z"></path>
</svg>
