<!-- Generated by IcoMoon.io -->
<svg version="1.1" xmlns="http://www.w3.org/2000/svg" width="32" height="32" viewBox="0 0 32 32">
<path d="M0 26.666v-2.666h5.334v-1.334c-0.012 0-0.026 0-0.040 0-0.724 0-1.378-0.299-1.844-0.781l-0.001-0.001c-0.483-0.47-0.783-1.126-0.783-1.853 0-0.011 0-0.022 0-0.033l-0 0.002v-13.334c0-0.731 0.262-1.36 0.784-1.882 0.468-0.484 1.123-0.784 1.848-0.784 0.013 0 0.025 0 0.037 0l-0.002-0h21.331c0.734 0 1.362 0.262 1.884 0.784s0.785 1.15 0.785 1.882v13.334c0 0.734-0.262 1.362-0.784 1.884s-1.15 0.784-1.885 0.782v1.334h5.334v2.666zM5.334 20h21.331v-13.334h-21.331zM5.334 20v-13.334z"></path>
</svg>
