<!-- Generated by IcoMoon.io -->
<svg version="1.1" xmlns="http://www.w3.org/2000/svg" width="45" height="42" viewBox="0 0 45 42">
<path d="M9.75 30c-2.063 0-3.75-1.688-3.75-3.75v-16.5c0-2.063 1.688-3.75 3.75-3.75h25.5c2.063 0 3.75 1.688 3.75 3.75v16.5c0 2.063-1.688 3.75-3.75 3.75h-25.5zM9 9.75v16.5c0 0.398 0.352 0.75 0.75 0.75h25.5c0.398 0 0.75-0.352 0.75-0.75v-16.5c0-0.398-0.352-0.75-0.75-0.75h-25.5c-0.398 0-0.75 0.352-0.75 0.75zM41.25 31.5h3.75v2.25c0 1.242-1.688 2.25-3.75 2.25h-37.5c-2.063 0-3.75-1.008-3.75-2.25v-2.25h41.25zM24.375 33.75c0.211 0 0.375-0.164 0.375-0.375s-0.164-0.375-0.375-0.375h-3.75c-0.211 0-0.375 0.164-0.375 0.375s0.164 0.375 0.375 0.375h3.75z"></path>
</svg>
