<!-- Generated by IcoMoon.io -->
<svg version="1.1" xmlns="http://www.w3.org/2000/svg" width="36" height="42" viewBox="0 0 36 42">
<path d="M8.18 14.648v23.227h-7.734v-23.227h7.734zM8.672 7.477c0.023 2.227-1.664 4.008-4.359 4.008v0h-0.047c-2.602 0-4.266-1.781-4.266-4.008 0-2.273 1.734-4.008 4.359-4.008 2.648 0 4.289 1.734 4.313 4.008zM36 24.562v13.312h-7.711v-12.422c0-3.117-1.125-5.25-3.914-5.25-2.133 0-3.398 1.43-3.961 2.812-0.187 0.516-0.258 1.195-0.258 1.898v12.961h-7.711c0.094-21.047 0-23.227 0-23.227h7.711v3.375h-0.047c1.008-1.594 2.836-3.914 7.008-3.914 5.086 0 8.883 3.328 8.883 10.453z"></path>
</svg>
