<!-- Generated by IcoMoon.io -->
<svg version="1.1" xmlns="http://www.w3.org/2000/svg" width="45" height="42" viewBox="0 0 45 42">
<path d="M18 27h9v-2.25h-3v-10.5h-2.672l-3.469 3.211 1.805 1.875c0.562-0.492 0.914-0.75 1.289-1.336h0.047v6.75h-3v2.25zM30 21c0 4.266-2.578 9.75-7.5 9.75s-7.5-5.484-7.5-9.75 2.578-9.75 7.5-9.75 7.5 5.484 7.5 9.75zM42 27v-12c-3.305 0-6-2.695-6-6h-27c0 3.305-2.695 6-6 6v12c3.305 0 6 2.695 6 6h27c0-3.305 2.695-6 6-6zM45 7.5v27c0 0.82-0.68 1.5-1.5 1.5h-42c-0.82 0-1.5-0.68-1.5-1.5v-27c0-0.82 0.68-1.5 1.5-1.5h42c0.82 0 1.5 0.68 1.5 1.5z"></path>
</svg>
