<!-- Generated by IcoMoon.io -->
<svg version="1.1" xmlns="http://www.w3.org/2000/svg" width="23" height="23" viewBox="0 0 23 23">
<path fill="#fff" d="M22.641 0.141c0.27 0.193 0.398 0.501 0.347 0.821l-3.286 19.714c-0.038 0.244-0.193 0.449-0.411 0.578-0.116 0.064-0.257 0.103-0.398 0.103-0.103 0-0.205-0.026-0.308-0.064l-6.764-2.759-3.825 4.197c-0.154 0.18-0.372 0.27-0.603 0.27-0.103 0-0.205-0.013-0.295-0.051-0.321-0.128-0.526-0.436-0.526-0.77v-5.801l-6.058-2.477c-0.295-0.116-0.488-0.385-0.513-0.706-0.026-0.308 0.141-0.603 0.411-0.757l21.357-12.321c0.27-0.167 0.616-0.154 0.873 0.026zM18.251 19.381l2.837-16.98-18.405 10.614 4.313 1.758 11.076-8.201-6.135 10.229z"></path>
</svg>
