<!-- Generated by IcoMoon.io -->
<svg version="1.1" xmlns="http://www.w3.org/2000/svg" width="36" height="42" viewBox="0 0 36 42">
<path d="M8.508 36l2.133-2.133-5.508-5.508-2.133 2.133v2.508h3v3h2.508zM20.766 14.25c0-0.305-0.211-0.516-0.516-0.516-0.141 0-0.281 0.047-0.398 0.164l-12.703 12.703c-0.117 0.117-0.164 0.258-0.164 0.398 0 0.305 0.211 0.516 0.516 0.516 0.141 0 0.281-0.047 0.398-0.164l12.703-12.703c0.117-0.117 0.164-0.258 0.164-0.398zM19.5 9.75l9.75 9.75-19.5 19.5h-9.75v-9.75zM35.508 12c0 0.797-0.328 1.57-0.867 2.109l-3.891 3.891-9.75-9.75 3.891-3.867c0.539-0.562 1.313-0.891 2.109-0.891s1.57 0.328 2.133 0.891l5.508 5.484c0.539 0.562 0.867 1.336 0.867 2.133z"></path>
</svg>
