<!-- Generated by IcoMoon.io -->
<svg version="1.1" xmlns="http://www.w3.org/2000/svg" width="33" height="42" viewBox="0 0 33 42">
<path d="M33 29.062c0 0.844-0.375 2.484-0.727 3.258-0.492 1.148-1.805 1.898-2.859 2.484-1.383 0.75-2.789 1.195-4.359 1.195-2.18 0-4.148-0.891-6.141-1.617-1.43-0.516-2.812-1.148-4.102-1.945-3.984-2.461-8.789-7.266-11.25-11.25-0.797-1.289-1.43-2.672-1.945-4.102-0.727-1.992-1.617-3.961-1.617-6.141 0-1.57 0.445-2.977 1.195-4.359 0.586-1.055 1.336-2.367 2.484-2.859 0.773-0.352 2.414-0.727 3.258-0.727 0.164 0 0.328 0 0.492 0.070 0.492 0.164 1.008 1.312 1.242 1.781 0.75 1.336 1.477 2.695 2.25 4.008 0.375 0.609 1.078 1.359 1.078 2.086 0 1.43-4.242 3.516-4.242 4.781 0 0.633 0.586 1.453 0.914 2.016 2.367 4.266 5.32 7.219 9.586 9.586 0.562 0.328 1.383 0.914 2.016 0.914 1.266 0 3.352-4.242 4.781-4.242 0.727 0 1.477 0.703 2.086 1.078 1.313 0.773 2.672 1.5 4.008 2.25 0.469 0.234 1.617 0.75 1.781 1.242 0.070 0.164 0.070 0.328 0.070 0.492z"></path>
</svg>
