<!-- Generated by IcoMoon.io -->
<svg version="1.1" xmlns="http://www.w3.org/2000/svg" width="32" height="32" viewBox="0 0 32 32">
<path d="M26.666 20.666c-1.666 0-3.266-0.266-4.76-0.76-0.123-0.040-0.264-0.064-0.411-0.064-0.369 0-0.703 0.147-0.948 0.386l0-0-2.934 2.931c-3.802-1.962-6.823-4.984-8.731-8.675l-0.053-0.112 2.93-2.944c0.247-0.234 0.4-0.564 0.4-0.93 0-0.145-0.024-0.284-0.068-0.414l0.003 0.009c-0.481-1.412-0.759-3.039-0.759-4.731 0-0.010 0-0.020 0-0.029v0.002c0-0.734-0.6-1.334-1.334-1.334h-4.666c-0.734 0-1.334 0.6-1.334 1.334 0 12.518 10.147 22.666 22.666 22.666 0.734 0 1.334-0.6 1.334-1.334v-4.666c0-0.734-0.6-1.334-1.334-1.334zM25.334 16h2.666c0-6.628-5.372-12-12-12v2.666c5.16 0 9.334 4.175 9.334 9.334zM20 16h2.666c0-3.681-2.984-6.666-6.666-6.666v0 2.666c2.213 0 4 1.787 4 4z"></path>
</svg>
