<!-- Generated by IcoMoon.io -->
<svg version="1.1" xmlns="http://www.w3.org/2000/svg" width="36" height="42" viewBox="0 0 36 42">
<path d="M21 32.25v-4.5c0-0.422-0.328-0.75-0.75-0.75h-4.5c-0.422 0-0.75 0.328-0.75 0.75v4.5c0 0.422 0.328 0.75 0.75 0.75h4.5c0.422 0 0.75-0.328 0.75-0.75zM27 16.5c0-4.289-4.5-7.5-8.531-7.5-3.82 0-6.68 1.641-8.695 4.992-0.211 0.328-0.117 0.75 0.187 0.984l3.094 2.344c0.117 0.094 0.281 0.141 0.445 0.141 0.211 0 0.445-0.094 0.586-0.281 1.102-1.406 1.57-1.828 2.016-2.156 0.398-0.281 1.172-0.562 2.016-0.562 1.5 0 2.883 0.961 2.883 1.992 0 1.219-0.633 1.828-2.063 2.484-1.664 0.75-3.938 2.695-3.938 4.969v0.844c0 0.422 0.328 0.75 0.75 0.75h4.5c0.422 0 0.75-0.328 0.75-0.75v0c0-0.539 0.68-1.688 1.781-2.32 1.781-1.008 4.219-2.367 4.219-5.93zM36 21c0 9.938-8.062 18-18 18s-18-8.062-18-18 8.062-18 18-18 18 8.062 18 18z"></path>
</svg>
