<!-- Generated by IcoMoon.io -->
<svg version="1.1" xmlns="http://www.w3.org/2000/svg" width="32" height="32" viewBox="0 0 32 32">
<path d="M1.719 8.059l-0.079 3.7 5.15 0.197 2.456 2.44c1.004-0.984 2.007-1.968 3.011-2.952l-3.605-3.503z"></path>
<path d="M1.758 19.906h4.833l12.32-12.005 4.952 0.079c0.040-1.233 0.079-2.211 0.119-3.444 1.432 0.937 2.565 1.982 3.847 3.103l2.571 2.388-6.418 5.358c-0.053-1.233-0.106-2.275-0.158-3.508-0.99 0.013-1.981 0.026-2.971 0.039l-12.241 11.966-7.012-0.079z"></path>
<path d="M15.267 20.261l2.971-2.913 2.496 2.48 3.169 0.079v-3.857c1.932 1.768 3.914 3.485 5.813 5.284 0.077 0.084 0.166 0.168 0.247 0.251s0.152 0.167 0.195 0.249c0.043 0.082 0.056 0.163 0.021 0.242s-0.121 0.156-0.275 0.231c-1.535 1.407-2.979 2.919-4.671 4.146l-1.29 1.011-0.079-3.739-4.991 0.079z"></path>
</svg>
