<!-- Generated by IcoMoon.io -->
<svg version="1.1" xmlns="http://www.w3.org/2000/svg" width="32" height="32" viewBox="0 0 32 32">
<path d="M20.666 18.666h-1.053l-0.372-0.36c1.301-1.504 2.093-3.48 2.094-5.64v-0c0-4.784-3.882-8.666-8.669-8.666-4.784 0-8.666 3.882-8.666 8.666 0 4.787 3.882 8.669 8.666 8.669 2.147 0 4.122-0.787 5.64-2.094l0.36 0.372v1.053l6.669 6.653 1.984-1.984zM12.666 18.666c-0.002 0-0.005 0-0.008 0-3.309 0-5.992-2.683-5.992-5.992 0-0.003 0-0.006 0-0.008v0c0-3.318 2.682-6 6-6 0.002 0 0.005 0 0.008 0 3.309 0 5.992 2.683 5.992 5.992 0 0.003 0 0.006 0 0.008v-0c0 3.322-2.678 6-6 6z"></path>
</svg>
