<!-- Generated by IcoMoon.io -->
<svg version="1.1" xmlns="http://www.w3.org/2000/svg" width="39" height="42" viewBox="0 0 39 42">
<path d="M27 19.5c0-5.789-4.711-10.5-10.5-10.5s-10.5 4.711-10.5 10.5 4.711 10.5 10.5 10.5 10.5-4.711 10.5-10.5zM39 39c0 1.641-1.359 3-3 3-0.797 0-1.57-0.328-2.109-0.891l-8.039-8.016c-2.742 1.898-6.023 2.906-9.352 2.906-9.117 0-16.5-7.383-16.5-16.5s7.383-16.5 16.5-16.5 16.5 7.383 16.5 16.5c0 3.328-1.008 6.609-2.906 9.352l8.039 8.039c0.539 0.539 0.867 1.313 0.867 2.109z"></path>
</svg>
