<!-- Generated by IcoMoon.io -->
<svg version="1.1" xmlns="http://www.w3.org/2000/svg" width="32" height="32" viewBox="0 0 32 32">
<path d="M15.481 0.756c0-0.138 0.289-0.251 0.644-0.251 0.362 0 0.575 0.11 0.485 0.251-0.203 0.327-1.129 0.327-1.129 0zM26.72 1.68c0.844-0.22 2.859-0.165 3.338 0.089 0.31 0.166 0.486 0.524 0.486 0.996 0 0.837-0.572 1.253-1.72 1.253-0.882 0-0.472-1.529-3.571 13.304-1.254 6.003-2.398 11.056-2.539 11.225-0.141 0.172-0.641 0.382-1.109 0.468-0.768 0.145-0.854 0.244-0.854 0.999 0 1.302-1.398 1.984-2.067 1.009-0.1-0.148-0.186-0.637-0.186-1.085l-0.003-0.816h-7.785v0.864c0 0.958-0.761 1.715-1.471 1.457-0.586-0.217-0.778-0.578-0.781-1.474-0.004-0.727-0.079-0.792-1.044-0.923-1.043-0.138-1.464-0.479-1.464-1.182 0-1.105 0.114-1.126 7.605-1.202l7.13-0.072 0.421-1.946c0.23-1.068 0.481-2.19 0.564-2.497l0.145-0.558h-8.074c-8.977 0-9.286-0.049-9.783-1.563-0.378-1.168-2.311-10.382-2.463-11.77-0.093-0.82-0.027-1.223 0.213-1.377 0.19-0.124 5.525-0.28 11.86-0.348l11.518-0.124 0.337-1.381c0.661-2.707 0.865-3.231 1.296-3.345z"></path>
</svg>
