<!-- Generated by IcoMoon.io -->
<svg version="1.1" xmlns="http://www.w3.org/2000/svg" width="39" height="42" viewBox="0 0 39 42">
<path d="M39 15.164c0 0.422-0.305 0.82-0.609 1.125l-8.508 8.297 2.016 11.719c0.023 0.164 0.023 0.305 0.023 0.469 0 0.609-0.281 1.172-0.961 1.172-0.328 0-0.656-0.117-0.937-0.281l-10.523-5.531-10.523 5.531c-0.305 0.164-0.609 0.281-0.937 0.281-0.68 0-0.984-0.562-0.984-1.172 0-0.164 0.023-0.305 0.047-0.469l2.016-11.719-8.531-8.297c-0.281-0.305-0.586-0.703-0.586-1.125 0-0.703 0.727-0.984 1.313-1.078l11.766-1.711 5.273-10.664c0.211-0.445 0.609-0.961 1.148-0.961s0.937 0.516 1.148 0.961l5.273 10.664 11.766 1.711c0.562 0.094 1.313 0.375 1.313 1.078z"></path>
</svg>
