<!-- Generated by IcoMoon.io -->
<svg version="1.1" xmlns="http://www.w3.org/2000/svg" width="42" height="42" viewBox="0 0 42 42">
<path d="M24 10.594l7.406 7.406-13.406 13.406-7.406-7.406zM19.055 33.539l14.484-14.484c0.586-0.586 0.586-1.523 0-2.109l-8.484-8.484c-0.562-0.562-1.547-0.562-2.109 0l-14.484 14.484c-0.586 0.586-0.586 1.523 0 2.109l8.484 8.484c0.281 0.281 0.656 0.422 1.055 0.422s0.773-0.141 1.055-0.422zM39.891 18.609l-21.258 21.281c-1.172 1.148-3.094 1.148-4.242 0l-2.953-2.953c1.758-1.758 1.758-4.617 0-6.375s-4.617-1.758-6.375 0l-2.93-2.953c-1.172-1.148-1.172-3.070 0-4.242l21.258-21.234c1.148-1.172 3.070-1.172 4.242 0l2.93 2.93c-1.758 1.758-1.758 4.617 0 6.375s4.617 1.758 6.375 0l2.953 2.93c1.148 1.172 1.148 3.094 0 4.242z"></path>
</svg>
