<!-- Generated by IcoMoon.io -->
<svg version="1.1" xmlns="http://www.w3.org/2000/svg" width="32" height="32" viewBox="0 0 32 32">
<path d="M22.993 2.57c0.090-0.087 0.213-0.16 0.273-0.16 0.263 0 6.58 5.933 6.726 6.317l-0.003-0.010c0.044 0.136 0.068 0.281 0.068 0.431s-0.024 0.296-0.065 0.422c-0.25 0.65-6.626 6.374-6.909 6.199-0.14-0.087-0.25-1.043-0.25-2.186v-2.030h-9.717v-4.814h9.718v-2.003c0-1.103 0.073-2.077 0.16-2.167zM3.693 7.031c0.16-0.16 0.707-0.29 1.217-0.29h0.922v4.812h-0.923c-0.51 0-1.056-0.13-1.217-0.29-0.387-0.383-0.387-3.847 0-4.233zM8.26 6.741h2.429v4.813h-2.429v-2.406zM4.313 17.596c1.837-1.731 3.451-3.11 3.584-3.070s0.273 1.014 0.313 2.161l0.070 2.084h9.696v4.813h-9.696l-0.070 2.106c-0.046 1.404-0.166 2.104-0.353 2.104-0.49 0-6.883-6.144-6.883-6.613 0-0.251 1.427-1.783 3.34-3.584zM20.403 18.769h2.43v4.813h-2.43v-2.406zM25.26 18.769h0.923c1.317 0 1.506 0.307 1.506 2.406s-0.189 2.406-1.506 2.406h-0.923v-2.406z"></path>
</svg>
