<!-- Generated by IcoMoon.io -->
<svg version="1.1" xmlns="http://www.w3.org/2000/svg" width="34" height="32" viewBox="0 0 34 32">
<path d="M10.701 16c-1.915 0.059-3.48 0.822-4.696 2.284h-2.376c-0.968 0-1.784-0.24-2.443-0.722-0.662-0.481-0.994-1.186-0.994-2.114 0-4.203 0.734-6.304 2.197-6.304 0.072 0 0.328 0.126 0.772 0.376s1.018 0.502 1.728 0.759c0.627 0.237 1.351 0.376 2.107 0.381h0.002c0.79 0 1.574-0.134 2.356-0.409-0.059 0.44-0.090 0.834-0.090 1.178 0 1.656 0.481 3.178 1.438 4.572zM29.679 27.377c0 1.428-0.431 2.556-1.294 3.384s-2.010 1.24-3.437 1.24h-15.488c-1.43 0-2.574-0.413-3.437-1.24-0.862-0.829-1.294-1.957-1.294-3.385 0-0.632 0.018-1.247 0.062-1.847 0.040-0.603 0.122-1.25 0.247-1.946s0.281-1.344 0.468-1.938c0.191-0.597 0.444-1.176 0.763-1.741 0.308-0.554 0.673-1.031 1.099-1.446l0.001-0.001c0.412-0.4 0.918-0.718 1.515-0.956 0.594-0.238 1.253-0.356 1.975-0.356 0.118 0 0.372 0.128 0.762 0.384 0.387 0.254 0.818 0.541 1.294 0.856 0.472 0.316 1.104 0.6 1.894 0.856 0.794 0.257 1.591 0.385 2.394 0.385s1.6-0.128 2.39-0.384 1.425-0.541 1.896-0.856c0.472-0.316 0.904-0.603 1.294-0.856 0.39-0.257 0.644-0.385 0.762-0.385 0.719 0 1.378 0.118 1.975 0.356 0.588 0.23 1.092 0.553 1.518 0.958l-0.002-0.002c0.424 0.417 0.788 0.893 1.080 1.416l0.016 0.032c0.319 0.566 0.576 1.144 0.763 1.741 0.19 0.594 0.346 1.24 0.469 1.938 0.125 0.696 0.209 1.344 0.25 1.946 0.040 0.6 0.062 1.216 0.062 1.847zM11.533 4.572c0 1.262-0.444 2.338-1.328 3.231-0.888 0.894-1.957 1.341-3.206 1.341-1.254 0-2.322-0.447-3.21-1.341-0.884-0.894-1.328-1.969-1.328-3.232 0-1.262 0.444-2.34 1.328-3.23 0.888-0.894 1.956-1.341 3.21-1.341 1.25 0 2.318 0.447 3.206 1.341 0.884 0.89 1.328 1.968 1.328 3.231zM24.007 11.428c0 1.894-0.666 3.51-1.994 4.85-1.328 1.338-2.931 2.006-4.809 2.006s-3.482-0.668-4.813-2.006c-1.328-1.341-1.994-2.957-1.994-4.85s0.666-3.51 1.994-4.846c1.331-1.341 2.934-2.010 4.813-2.010s3.481 0.669 4.809 2.010c1.328 1.337 1.994 2.953 1.994 4.846zM34.214 15.448c0 0.928-0.331 1.634-0.99 2.115-0.662 0.482-1.478 0.722-2.447 0.722h-2.374c-1.216-1.462-2.782-2.224-4.694-2.284 0.957-1.394 1.434-2.916 1.434-4.572 0-0.344-0.028-0.738-0.087-1.178 0.701 0.258 1.511 0.409 2.355 0.41h0c0.697 0 1.4-0.128 2.11-0.381 0.706-0.256 1.285-0.51 1.725-0.76 0.444-0.25 0.7-0.374 0.772-0.374 1.466 0 2.197 2.1 2.197 6.303zM31.945 4.572c0 1.262-0.44 2.338-1.328 3.231-0.884 0.894-1.953 1.341-3.206 1.341s-2.322-0.447-3.206-1.341c-0.888-0.894-1.332-1.969-1.332-3.232 0-1.262 0.444-2.34 1.332-3.23 0.884-0.894 1.952-1.341 3.206-1.341s2.322 0.447 3.206 1.341c0.888 0.89 1.328 1.968 1.328 3.231z"></path>
</svg>
